<?xml version="1.0" encoding="UTF-8"?>
<svg width="57px" height="70px" viewBox="0 0 57 70" version="1.1" xmlns="http://www.w3.org/2000/svg" xmlns:xlink="http://www.w3.org/1999/xlink">
    <!-- Generator: Sketch 45.1 (43504) - http://www.bohemiancoding.com/sketch -->
    <title>apple</title>
    <desc>Created with Sketch.</desc>
    <defs></defs>
    <g id="Page-1" stroke="none" stroke-width="1" fill="none" fill-rule="evenodd">
        <g id="apple" fill="#FFFFFF">
            <path d="M47.602507,37.1887999 C47.7008735,47.782016 56.8955552,51.3071712 56.9974198,51.3521653 C56.9196744,51.6007787 55.528263,56.3758569 52.1532247,61.3081716 C49.2356526,65.5724075 46.2075974,69.8210228 41.4375158,69.9090152 C36.7504336,69.995379 35.2432751,67.1295635 29.8846133,67.1295635 C24.5275701,67.1295635 22.8530485,69.8210157 18.4162031,69.995379 C13.8118643,70.1696148 10.3057086,65.3841727 7.36389028,61.1355576 C1.35264076,52.444872 -3.24119766,36.5777219 2.92716617,25.8671368 C5.99147773,20.5482167 11.4676341,17.1800544 17.4115122,17.0936842 C21.9328553,17.0074391 26.2004657,20.135493 28.96442,20.135493 C31.7266218,20.135493 36.9126768,16.373734 42.3645851,16.9261959 C44.6469401,17.0211897 51.0535483,17.8481381 55.1674074,23.86976 C54.8359318,24.0752499 47.5230126,28.3324834 47.602507,37.1888099 M38.7936778,11.1765491 C41.2381522,8.2176101 42.8834244,4.09849341 42.4345764,0 C38.9110502,0.141614147 34.6503154,2.34797997 32.1229685,5.30529102 C29.8579804,7.92412769 27.8743599,12.1157428 28.4095751,16.1331182 C32.3369587,16.4369745 36.3490832,14.1373698 38.7936778,11.1765539" id="Shape"></path>
        </g>
    </g>
</svg>