<?xml version="1.0" encoding="UTF-8"?>
<svg width="379px" height="70px" viewBox="0 0 379 70" version="1.1" xmlns="http://www.w3.org/2000/svg" xmlns:xlink="http://www.w3.org/1999/xlink">
    <!-- Generator: Sketch 45.1 (43504) - http://www.bohemiancoding.com/sketch -->
    <title>good</title>
    <desc>Created with Sketch.</desc>
    <defs></defs>
    <g id="Page-1" stroke="none" stroke-width="1" fill="none" fill-rule="evenodd">
        <g id="good" fill="#FFFFFF">
            <path d="M147.14202,59.4413408 L154.742179,59.4413408 L154.742179,34.7905028 L136.892264,34.7905028 L136.892264,42.3324022 L145.956674,42.3324022 C145.398864,46.7318436 142.191458,51.6201117 135.009656,51.6201117 C127.409497,51.6201117 121.203862,46.7318436 121.203862,35 C121.203862,23.6173184 127.409497,18.3798883 135.218835,18.3798883 C141.145564,18.3798883 144.910781,22.0111732 147.211746,27.5977654 L155.509168,25.4329609 C152.999023,16.4944134 146.096127,10 135.218835,10 C123.156197,10 112,18.3100559 112,35 C112,51.6899441 122.737839,60 134.521572,60 C140.796933,60 144.492423,57.0670391 146.375032,54.2039106 L147.14202,59.4413408 Z M209.709691,10 C197.368148,10 186.700035,18.0307263 186.700035,35 C186.700035,51.9692737 197.368148,60 209.709691,60 C222.051233,60 232.719347,51.9692737 232.719347,35 C232.719347,18.0307263 222.051233,10 209.709691,10 L209.709691,10 Z M209.709691,18.3798883 C217.030945,18.3798883 223.515484,23.4078212 223.515484,35 C223.515484,46.5921788 217.030945,51.6201117 209.709691,51.6201117 C202.388437,51.6201117 195.903897,46.5921788 195.903897,35 C195.903897,23.4078212 202.388437,18.3798883 209.709691,18.3798883 L209.709691,18.3798883 Z M286.501512,10 C274.15997,10 263.491856,18.0307263 263.491856,35 C263.491856,51.9692737 274.15997,60 286.501512,60 C298.843055,60 309.511168,51.9692737 309.511168,35 C309.511168,18.0307263 298.843055,10 286.501512,10 L286.501512,10 Z M286.501512,18.3798883 C293.822767,18.3798883 300.307306,23.4078212 300.307306,35 C300.307306,46.5921788 293.822767,51.6201117 286.501512,51.6201117 C279.180258,51.6201117 272.695719,46.5921788 272.695719,35 C272.695719,23.4078212 279.180258,18.3798883 286.501512,18.3798883 L286.501512,18.3798883 Z M356.181259,59.4413408 C367.686087,59.4413408 378.91201,52.1089385 378.91201,35 C378.91201,17.8910615 367.686087,10.5586592 356.181259,10.5586592 L340.911214,10.5586592 L340.911214,59.4413408 L356.181259,59.4413408 Z M349.975624,51.0614525 L349.975624,18.9385475 L353.322483,18.9385475 C361.131821,18.9385475 369.708147,22.0111732 369.708147,35 C369.708147,47.9888268 361.131821,51.0614525 353.322483,51.0614525 L349.975624,51.0614525 Z" id="GOOD"></path>
            <g id="cherub" transform="translate(1.000000, 0.000000)" fill-rule="nonzero">
                <path d="M33.3558282,4.26592025 C33.9821779,2.53030675 36.3870859,2.57325153 37.006135,0.830337423 L35.2883436,1.68923313 C35.0592331,1.48889571 35.2215644,0.897116564 34.6441718,1.04506135 C33.9628528,1.72766871 33.240092,3.50064417 33.3558282,4.26592025 Z M39.797546,1.04506135 C41.0652761,1.20760736 41.5359509,1.20760736 42.803681,1.04506135 C42.3789571,0.0362883436 40.3178221,0.381134969 39.797546,1.04506135 Z M45.1656442,4.6953681 C44.5938344,7.54110429 46.410184,8.95785276 47.7423313,9.20457055 C47.6392638,9.75791411 46.8765644,10.7559509 47.3128834,11.1370859 C47.701319,10.308681 48.2475767,9.63831288 48.8159509,8.98984663 C48.8829448,10.2786196 47.4099387,11.1561963 47.7423313,11.9959816 C48.4887117,11.0733129 49.8152761,9.90542945 49.2453988,8.34567485 L47.9570552,8.56039877 C47.968865,8.2859816 48.2321166,8.26300613 48.1717791,7.91622699 C46.1419939,8.11699387 44.6406442,5.13748466 46.0245399,2.97757669 C45.8242025,2.74846626 45.232638,2.91079755 45.3803681,2.33340491 C46.3629448,2.21788344 46.9590184,3.60693252 47.7423313,2.97757669 C46.317638,2.04009202 44.7918098,1.20417178 42.1595092,1.4745092 C42.383681,3.32607362 44.0941718,3.69110429 45.1656442,4.6953681 Z M39.797546,7.70150307 C40.7859202,8.36714724 41.1123006,6.1608589 42.1595092,6.84260736 C41.7352147,7.8498773 40.3083742,7.8543865 40.4417178,9.41929448 C41.9368405,10.605 43.6544172,8.93680982 45.3803681,8.98984663 C45.9302761,9.37033742 45.7361656,10.4948466 46.2392638,10.922362 C47.1043865,8.94067485 45.2405828,8.13868098 44.5214724,7.05733129 C44.242546,7.92374233 43.5283742,8.35469325 42.5889571,8.56039877 C43.4884356,7.67058282 44.7039877,7.09662577 44.7361963,5.33953988 C43.7677914,6.37730061 43.1611963,8.9151227 41.0858896,8.13095092 C42.4414417,7.84042945 43.3630368,7.11552147 43.8773006,5.98371166 C43.4774847,5.77843558 43.1596933,6.62680982 43.0184049,5.98371166 C43.441411,5.61953988 43.5945092,4.9852454 43.6625767,4.26592025 C42.7961656,3.98720859 42.3654294,3.27282209 42.1595092,2.33340491 C40.0180675,1.07684049 36.9621166,1.93809816 35.2883436,2.97757669 C34.8853067,3.35720859 35.543865,3.60435583 35.0736196,4.05119632 C31.4389877,4.4404908 34.2235276,7.68840491 33.3558282,9.6340184 C35.2593558,9.39030675 36.0843252,8.06803681 37.6503067,7.48677914 C37.5257669,6.78957055 37.7965337,6.48788344 37.8650307,5.98371166 C35.8309509,5.81064417 35.455184,7.29567485 34,7.70150307 C34.8498773,5.90319018 37.7392025,6.14411043 38.7239264,4.48064417 C38.9105215,4.795 39.0453681,5.16110429 39.5828221,5.12481595 C40.2315031,4.77138037 40.5258896,4.06365031 41.0858896,3.62174847 C41.2724847,4.24638037 41.4073313,3.86331288 41.9447853,3.83647239 C41.2514417,5.00392638 39.8742025,5.48791411 38.2944785,5.76898773 C38.049908,6.55079755 37.7482209,8.57220859 38.7239264,8.7751227 C38.9120245,7.8606135 38.0664417,6.87030675 38.7239264,6.19843558 C38.9710736,6.45223926 38.9669939,6.95748466 38.9386503,7.48677914 C39.3571472,6.96757669 40.5677607,6.11941718 41.0858896,6.41315951 C40.6652454,6.85162577 39.8179448,6.86300613 39.797546,7.70150307 Z M49.6748466,8.13095092 C49.1655215,5.99208589 48.5097546,3.99944785 46.6687117,3.19230061 C44.6223926,5.48812883 47.1713804,7.86447853 49.6748466,8.13095092 Z M49.6748466,6.19843558 C49.7923006,5.88644172 49.4238344,5.08874233 49.8895706,5.12481595 C50.6610736,6.68628834 50.8294172,8.58423313 50.5337423,10.707638 C51.4433129,11.1579141 51.7211656,12.239908 52.2515337,13.0696012 C53.0432209,11.4705521 51.3185583,10.9700307 50.9631902,9.84874233 C51.1287423,6.89177914 50.802362,4.42674847 48.8159509,3.62174847 L48.3865031,3.62174847 C48.9922393,4.30435583 49.2258589,5.35907975 49.6748466,6.19843558 Z M31.8527607,9.84874233 C32.9819939,9.3952454 33.5499387,7.53144172 32.4969325,6.62788344 C32.3884969,7.80779141 31.6169939,8.3246319 31.8527607,9.84874233 Z M35.5030675,9.6340184 C34.3396933,12.7582515 38.8753067,14.0238344 37.006135,16.2904601 C36.5528528,14.0740798 35.000184,13.2669325 32.7116564,13.9284969 C32.8445706,14.5112577 32.4389571,15.632546 32.9263804,15.8610123 C33.3541104,14.9417791 33.3360736,14.1481595 34.2147239,14.1432209 C36.062638,14.1326994 34.6360123,17.3509816 36.3619632,17.7935276 C35.9542025,19.7043558 37.3917791,19.7698466 37.4355828,21.2291104 C38.0653681,21.4760429 38.2330675,20.1992945 38.5092025,20.7996626 L38.0797546,21.6585583 C41.9782822,22.0845706 46.0646933,23.7607055 47.9570552,19.9407669 C47.4676994,19.6459509 47.149908,20.4943252 47.0981595,19.9407669 C47.2944172,18.8869018 49.1184969,17.1141411 47.9570552,16.719908 C48.1408589,16.044816 48.7687117,15.813773 48.8159509,15.0021166 C47.3504601,15.4319939 45.9146012,14.5947853 44.7361963,14.7873926 C44.8639571,13.977454 46.2783436,13.3330675 45.809816,12.6401534 C45.2519632,12.7387117 44.8603067,14.1077914 44.5214724,13.713773 C44.5931902,12.988865 45.947454,12.4323006 45.3803681,11.7812577 C45.0082515,12.0533129 44.8177914,12.5070245 44.0920245,12.4254294 C44.6732822,11.8821779 45.4239571,11.0280061 44.9509202,10.0634663 C43.2180982,10.5021472 41.5020245,11.4108589 39.5828221,10.4929141 C39.1164417,11.4870859 36.1556135,11.2203988 36.5766871,10.2781902 C37.2683129,10.9459816 38.8731595,10.773773 38.9386503,9.6340184 C37.9004601,7.74509202 35.9262883,8.49748466 35.5030675,9.6340184 Z M50.1042945,10.707638 C49.817638,9.76457055 50.7467485,8.93294479 50.1042945,8.34567485 C50.118681,9.36582822 48.8659816,10.2784049 50.1042945,10.707638 Z M52.6809816,11.1370859 C52.7657975,10.7677607 52.3623313,10.5867485 52.6809816,10.4929141 C53.2744785,10.543589 52.7578528,11.7043865 53.5398773,11.5665337 C53.5366564,10.281411 53.1044172,9.42530675 51.8220859,9.41929448 C51.7514417,10.3490491 52.1179755,10.8411963 52.6809816,11.1370859 Z M12.3128834,10.922362 C9.47809816,10.5515337 6.40432515,9.83628834 4.58282209,9.6340184 C2.81822086,9.43797546 1.85389571,9.32846626 0.932515337,9.6340184 C3.85297546,8.66539877 9.71386503,12.0391411 12.9570552,11.5665337 C12.4906748,12.2506442 9.88285276,11.9206135 10.3803681,12.8548773 C11.579816,12.0503067 13.738865,12.2051227 15.7484663,12.2107055 C15.077454,11.1671472 13.6216258,11.0934969 12.3128834,10.922362 Z M32.7116564,11.5665337 C33.2600613,12.0200307 33.3103067,12.9721166 34.2147239,13.0696012 C34.3293865,12.3253681 33.8958589,11.0329448 34.6441718,10.922362 C34.4427607,12.2742638 34.9686196,14.026411 35.9325153,13.4990491 C34.5769632,12.9976687 35.1069018,10.7044172 34.8588957,9.6340184 C34.1404294,10.2756135 32.7187423,10.213773 32.7116564,11.5665337 Z M32.2822086,14.5726687 C32.151227,13.3066564 32.7651227,10.7089264 32.2822086,10.0634663 C31.0496933,11.0990798 32.1097853,13.0816258 32.2822086,14.5726687 Z M46.4539877,13.2843252 C47.9263497,13.3927607 49.3068098,12.2774847 49.0306748,11.3518098 C48.8178834,12.6420859 47.182546,12.5096012 46.4539877,13.2843252 Z M28.4171779,12.6401534 C29.5607975,12.3867791 30.1358282,12.4153374 30.5644172,13.2843252 C30.8023313,12.8780675 30.8384049,12.2699693 30.993865,11.7812577 C29.7531902,11.6857055 28.8610123,11.9390798 28.4171779,12.6401534 Z M28.4171779,17.3640798 C26.8005215,13.7554294 21.648865,12.5377301 17.0368098,12.6401534 C20.292454,13.5988957 25.342546,13.9233436 28.4171779,17.3640798 Z M9.30674847,14.1432209 C9.85128834,15.4652761 12.3569018,15.4642025 13.601227,15.4315644 C13.6647853,15.9962883 12.7680982,15.6005521 12.9570552,16.2904601 C15.0890491,16.7733742 16.2513497,15.151135 17.2515337,15.2168405 C16.9749693,16.2286196 15.6333742,16.1753681 15.1042945,16.9346319 C16.9328834,16.9024233 18.8475767,16.9561043 19.398773,15.6462883 C19.0092638,14.4610123 17.8770245,14.018681 17.0368098,13.2843252 C16.9661656,14.2220245 18.7019939,14.4711043 18.1104294,15.2168405 C16.0911656,13.2761656 11.9620245,11.4020552 9.30674847,14.1432209 Z M28.202454,13.713773 C29.5872086,13.452454 28.8595092,14.0594785 29.2760736,14.5726687 C29.3235276,14.4053988 29.4557975,14.3229448 29.7055215,14.3579448 C30.0677607,13.0410429 28.4558282,12.6955521 28.202454,13.713773 Z M20.6871166,15.2168405 C21.4912577,16.0589877 22.2610429,16.9352761 22.6196319,18.2229755 C21.403865,17.4345092 21.1706748,15.6638957 19.8282209,15.0021166 C19.9658589,16.009816 21.1028221,16.0179755 21.1165644,17.1493558 C19.8488344,18.2229755 18.2946626,18.4346933 18.9693252,21.0143865 C20.2991104,21.1876687 20.6452454,22.3446012 21.7607362,22.7321779 C22.9644785,22.4240491 24.101227,21.9754908 25.4110429,22.3027301 C25.2493558,22.9999387 24.025,22.6344785 23.9079755,23.3763497 C25.031411,23.4261656 25.305184,22.626319 26.4846626,22.7321779 C26.3511043,23.3142945 25.587546,23.2666258 25.6257669,24.0205215 C26.0180675,24.5586196 26.0726074,25.4346933 26.6993865,25.7383129 C26.7466258,25.0469018 26.3195399,24.829816 26.4846626,24.0205215 C27.1505215,24.0810736 27.3038344,25.7636503 27.9877301,25.0941411 C27.6394479,25.2476687 27.6394479,24.0817178 27.9877301,24.2352454 C29.0014417,25.9427301 33.5346933,25.191411 34.8588957,24.0205215 C32.3361043,23.322454 30.8085583,21.6289264 28.8466258,20.3702147 C28.7231595,20.7476994 29.1060123,21.6317178 28.6319018,21.6585583 C28.1011043,21.0442331 28.1397546,19.8604601 27.3435583,19.511319 C27.2157975,19.956227 27.6089571,20.9218405 27.1288344,21.0143865 C26.849908,20.4215337 26.9731595,19.5802454 26.0552147,20.1554908 C25.9130675,19.1525153 25.6500307,18.2702147 24.9815951,17.7935276 C24.9807362,18.4510123 25.8422086,19.3498466 25.196319,19.9407669 C24.3348466,18.2242638 23.7065644,15.1337423 21.9754601,15.0021166 C22.736227,15.8904294 24.0752454,17.3359509 23.6932515,18.6524233 C23.0641104,17.2756135 21.8116258,15.3834663 20.6871166,15.2168405 Z M29.9202454,15.4315644 C29.9080061,15.3005828 29.8882515,15.1773313 29.7055215,15.2168405 C29.2966871,15.3089571 29.166135,15.6793558 28.6319018,15.6462883 C29.7909816,19.1394172 31.3120859,22.2707362 34.8588957,23.3763497 C37.3842638,18.9438037 29.0890491,20.2645706 29.9202454,15.4315644 Z M32.4969325,18.4376994 C31.5633129,17.3962883 32.2588037,16.048681 31.208589,15.2168405 C30.5715031,16.5607975 31.2846012,18.2442331 32.4969325,18.4376994 Z M33.3558282,15.6462883 C33.6972393,17.0941718 34.2284663,18.3522393 35.7177914,18.6524233 C35.2106135,17.5322086 33.9765951,16.5288037 34.8588957,15.2168405 C34.1795092,15.1816258 34.1412883,15.7875767 33.3558282,15.6462883 Z M48.3865031,24.8794172 C52.1806748,22.4465951 57.8549693,21.8938957 60.196319,18.0082515 C54.007546,18.0464724 52.6592945,22.9254294 48.3865031,24.8794172 Z M53.3251534,25.9530368 C54.3161043,24.7950307 56.9582822,24.1489264 56.7607362,22.517454 C56.1732515,23.151319 55.2009816,24.5302761 54.6134969,24.4499693 C55.2772086,23.2503067 57.2969018,22.2694479 57.404908,21.2291104 C55.9696933,22.7285276 54.1496933,23.8429448 53.3251534,25.9530368 Z M32.4969325,25.9530368 C33.4320552,26.0915337 34.9241718,25.6730368 35.5030675,26.1677607 C34.9291104,26.7391411 33.8791104,26.8340491 32.7116564,26.8119325 C32.3139877,26.4939264 32.39,25.7022393 31.6380368,25.7383129 C26.7741104,27.8170552 24.9912577,32.9770859 22.190184,37.118681 C22.8049387,37.0763804 23.3621472,37.0920552 23.2638037,37.7628528 C22.814816,38.2309509 22.6509816,37.6554908 21.9754601,37.7628528 C21.8580061,38.0748466 22.2262577,38.8727607 21.7607362,38.8364724 C19.6746933,37.9223926 17.5293865,40.4028834 16.607362,42.0573313 C17.0041718,42.5909202 17.2564724,43.2692331 17.8957055,43.5603988 C17.9624847,42.9112883 17.657362,41.8904908 18.3251534,41.8426074 C19.0732515,42.6048773 19.3223313,43.7317485 19.398773,44.6340184 C19.8990798,43.6312577 20.0914724,42.3205828 20.6871166,41.4131595 C21.2625767,42.5752454 20.543681,43.6847239 20.2576687,44.6340184 C22.0974233,44.5412577 20.8537423,41.3650613 21.5460123,40.124816 C22.2226074,40.5218405 21.6722699,42.1457975 22.404908,42.4867791 C22.5378221,41.9040184 22.1322086,40.7825153 22.6196319,40.5542638 C23.1330368,40.978773 22.8747239,43.2958589 23.2638037,43.1309509 C23.5581902,41.4814417 23.1347546,40.781227 23.4785276,39.2659202 C24.4505828,39.6539264 23.8010429,41.6630982 24.3374233,42.4867791 C24.6869939,41.7629448 24.3204601,40.3225767 24.7668712,39.6953681 C24.9891104,39.9229755 25.2102761,41.2287117 25.6257669,40.5542638 C25.1825767,40.1385583 25.2160736,39.2461656 24.9815951,38.6217485 C25.2583742,38.3258589 25.9143558,38.4093865 26.4846626,38.4070245 C26.6899387,38.0072086 25.8415644,37.6894172 26.4846626,37.5481288 L28.6319018,38.1923006 C29.2943252,37.5045399 28.1273006,37.435184 28.202454,36.6892331 L29.9202454,36.6892331 C30.0351227,35.6439571 29.0641411,35.6843252 28.8466258,34.9714417 C29.1319939,34.7558589 29.6456135,34.7685276 29.7055215,34.3272699 C29.3374847,34.051135 28.861227,33.8832209 28.8466258,33.2536503 C30.0997546,32.8196933 28.2484049,31.5079448 29.0613497,30.8916871 C29.7555521,30.6449693 30.185,32.4054908 30.3496933,31.321135 C30.1980982,30.6138344 30.0046319,29.9484049 29.9202454,29.1738957 C30.9309509,29.2368098 31.4237423,27.9375153 32.0674847,28.315 C32.2076994,29.9320859 30.8347546,30.7841104 31.4233129,32.1800307 C32.5901227,32.4879448 32.0380675,31.0769939 32.9263804,31.106411 C32.0311963,33.5759509 31.9757975,35.4590798 32.2822086,37.7628528 C33.382454,37.783681 33.4715644,35.667362 34.2147239,36.0450613 C34.416135,36.7643865 33.443865,37.398681 34,37.7628528 C34.0453067,37.5219325 34.2383436,37.4285276 34.4294479,37.3334049 L34.4294479,38.6217485 C34.9669018,38.905184 35.1015337,37.7729448 35.2883436,38.4070245 C35.0712577,40.0507362 33.0438344,39.8845399 32.0674847,40.7689877 C31.7778221,42.8221779 31.0183436,45.3737423 31.4233129,47.4254294 C38.6569325,46.5712577 45.1038037,44.9301227 49.8895706,41.6278834 C48.8674847,40.5048773 49.3570552,38.9539264 49.4601227,37.5481288 C48.8754294,38.327362 48.2660429,40.2137117 47.5276074,40.124816 C47.8945706,38.2015337 49.1623006,37.1788037 49.6748466,35.4008896 C48.7330675,35.1747853 48.9696933,36.1270859 48.1717791,36.0450613 C48.0459509,35.5982209 47.7204294,35.3510736 47.5276074,34.9714417 C46.7831595,35.0858896 46.3842025,35.5458282 45.595092,35.6156135 C43.6318712,33.4370245 46.571227,31.1639571 47.3128834,29.6033436 C46.4449693,29.7553681 46.0870245,29.397638 46.2392638,28.5297239 C45.243589,28.4644479 44.3803988,28.5318712 43.8773006,28.9591718 C44.141411,27.4756442 43.3918098,27.9815337 42.803681,27.6708282 C42.7508589,27.0079755 42.5859509,26.4569939 42.3742331,25.9530368 C41.7180368,25.7977914 41.5915644,26.1724847 41.0858896,26.1677607 C40.736319,25.5152147 40.1400307,25.1096012 40.2269939,24.0205215 C39.2059816,23.6099693 38.3357055,23.0488957 37.6503067,22.3027301 C37.8871472,25.4739877 34.3244479,24.846135 32.4969325,25.9530368 Z M22.190184,26.5972086 C22.7205521,26.861319 24.7784663,27.1269325 24.9815951,26.3824847 C24.7821166,25.9255521 24.0365951,24.9105521 24.3374233,24.6646933 C24.9809509,25.2377914 25.322362,26.1132209 26.0552147,26.5972086 C25.8589571,25.3619018 25.2175767,24.5719325 24.5521472,23.8057975 C23.8291718,23.9417178 22.5575767,23.5290184 22.190184,24.0205215 C23.2507055,24.8248773 22.3226687,25.4063497 22.190184,26.5972086 Z M50.1042945,25.7383129 C49.8784049,26.680092 50.8304908,26.443681 50.7484663,27.2413804 C49.9690184,28.5396012 47.5952454,29.3821779 47.9570552,31.106411 C48.7094479,30.4867178 49.3031595,29.2026687 50.3190184,30.0327914 C50.824908,29.3935583 51.287638,28.7109509 52.0368098,28.315 C52.2843865,29.498773 52.547638,30.6673006 52.8957055,31.7505828 C53.4331595,32.0340184 53.5680061,30.9015644 53.7546012,31.5358589 L53.7546012,33.0389264 C55.4204294,31.8560123 55.1153067,34.7008896 55.2576687,35.8303374 C56.682362,34.8971472 56.1159202,37.0686503 56.5460123,37.7628528 C57.9567485,37.4532209 59.1396626,35.7794479 58.9079755,34.5419939 C58.5972699,34.8754601 58.6215337,35.5438957 58.2638037,35.8303374 C57.7592025,34.961135 57.907362,36.0014724 57.190184,36.0450613 C57.4577301,35.3107055 57.2627607,34.1136196 57.6196319,33.4683742 C56.7592331,33.6777301 56.8640184,32.6028221 55.9018405,32.3947546 C55.9447853,30.3475767 53.7842331,30.5043252 54.1840491,28.1002761 C52.5547239,27.7008896 52.1345092,25.0299387 50.1042945,25.7383129 Z M21.9754601,27.4561043 C21.9138344,28.5913497 22.9870245,28.5917791 23.2638037,29.3886196 C22.7553374,29.8268712 22.7345092,30.7317178 23.4785276,30.8916871 C24.2626994,30.4852147 23.2889264,29.6557362 24.1226994,29.3886196 C24.4447853,29.6392025 24.6476994,30.0087423 25.196319,30.0327914 C25.978773,29.8131288 26.3049387,29.1371779 26.4846626,28.315 C26.0580061,28.3122086 26.2117485,27.7290184 25.6257669,27.8855521 C25.4204908,28.2853681 26.268865,28.6031595 25.6257669,28.7444479 C24.5433436,28.2845092 23.1293865,27.1432515 21.9754601,27.4561043 Z M67.0674847,32.8242025 C67.091319,33.3728221 67.7865951,33.2504294 68.3558282,33.2536503 C67.8860123,32.1452454 68.6719018,32.3077914 69.2147239,31.7505828 C68.1846933,31.7941718 67.3313804,32.0146933 67.0674847,32.8242025 Z M69.4294479,32.8242025 C70.9284356,32.9633436 71.6705215,32.3453681 72.4355828,31.7505828 C71.0594172,31.7344785 70.1030368,32.1379448 69.4294479,32.8242025 Z M70.9325153,33.6830982 C64.4858589,33.624908 59.5042638,36.842546 54.8282209,39.2659202 C58.7709816,38.4718712 68.2446012,35.7592638 73.0797546,38.8364724 C72.5942638,36.8882822 72.1107055,34.9383742 70.9325153,33.6830982 Z M73.0797546,34.7567178 C73.4205215,34.4359202 73.393681,33.5325767 72.6503067,33.6830982 C72.7690491,34.0653067 72.7606748,34.5748466 73.0797546,34.7567178 Z M19.8282209,45.2781902 C22.6466871,46.7539877 26.3768712,47.3184969 30.5644172,47.4254294 C30.0145092,43.6147239 32.5014417,39.385092 30.5644172,36.9039571 C27.5007362,40.2104908 25.9306748,45.0106442 19.8282209,45.2781902 Z M53.1104294,39.4806442 C53.6083742,39.5491411 53.9347546,39.4462883 54.1840491,39.2659202 C53.9197239,38.5998466 53.7114417,37.8777301 52.8957055,37.7628528 C52.8016564,38.5010736 52.9807362,38.9663804 53.1104294,39.4806442 Z M51.8220859,43.3456748 C52.887546,42.1208896 54.6343252,41.5772086 55.4723926,40.124816 C49.5640491,42.5907055 44.5790184,45.979908 38.2944785,48.0696012 C43.503681,48.2682209 46.0859509,44.6958589 49.4601227,43.7751227 C49.0216564,44.5534969 47.4698466,44.2183129 47.3128834,45.2781902 C48.457362,46.1055215 50.5723926,45.2296626 51.1779141,44.2045706 C52.6502761,44.2157362 55.0214724,43.346319 55.6871166,41.8426074 C55.5215644,44.491227 52.4875153,44.8818098 50.7484663,45.922362 C48.8146626,47.0792945 46.6884663,48.143681 44.3067485,48.4990491 C43.5945092,50.0070552 41.5428221,51.3155828 39.5828221,50.8610123 C40.1380982,50.4141718 41.455,50.7291718 41.7300613,50.0021166 C40.256411,50.1030368 39.2504294,50.6718405 37.6503067,50.6462883 C42.128589,53.1652147 45.543773,48.026227 49.6748466,47.4254294 C48.1518098,49.1947546 45.4808589,49.8161656 43.6625767,51.2904601 C48.7047239,48.9181902 54.0142025,47.5138957 57.404908,43.7751227 C58.9711043,42.0480982 59.7426074,39.6474847 61.6993865,38.6217485 C56.7605215,38.4072393 55.3074847,42.8226074 51.8220859,43.3456748 Z M10.1656442,43.3456748 C10.6930061,42.2355521 13.656411,41.3281288 14.6748466,42.7015031 C13.702362,42.6201227 12.9995706,42.3442025 12.3128834,42.916227 C12.9315031,42.9417791 13.7184663,42.7989877 14.0306748,43.1309509 C13.761411,43.7847853 13.8666258,43.9660123 14.2453988,44.4192945 C15.4497853,44.4068405 16.2455521,43.9859816 16.607362,43.1309509 C15.6237117,41.2010123 9.94233129,40.6053681 10.1656442,43.3456748 Z M2.00613497,47.6401534 C6.96067485,45.2311656 15.0710123,46.9057975 21.3312883,46.9959816 C19.4752147,43.8663804 13.0753681,46.546135 11.2392638,43.5603988 L9.52147239,44.2045706 C7.17088957,41.2003681 1.66150307,44.6692331 2.00613497,47.6401534 Z M38.9386503,53.4376994 C37.2178528,51.293681 35.0553681,49.5909202 32.7116564,48.0696012 C30.697546,49.4193558 27.6484663,49.7343558 27.1288344,52.5788037 C27.3955215,53.1042331 27.7532515,51.9352761 28.202454,51.9346319 C28.2320859,52.3344479 28.3437423,52.6522393 28.6319018,52.7935276 C28.8730368,52.5167485 29.1592638,51.196411 29.4907975,51.719908 C29.0740184,53.1894785 30.2790491,54.5654294 30.3496933,56.2291104 C31.7673006,56.1436503 30.9015337,53.774816 31.8527607,53.2229755 C32.5091718,54.453773 31.1076687,56.7341411 32.0674847,57.517454 C32.6171779,56.7073006 32.2933742,55.0236503 32.7116564,54.0818712 C33.1754601,54.9819939 32.7629755,57.8902147 33.3558282,57.9469018 C33.4621166,56.7648466 33.5370552,55.5514417 34,54.7260429 C34.3092025,56.4210736 34.0979141,58.6363804 34.4294479,60.308865 C36.0924847,60.3629755 35.3422393,57.9750307 35.7177914,57.3027301 C36.6421779,57.8811963 36.0111043,60.0155521 37.006135,60.523589 C37.5399387,60.1984969 36.8742945,58.6741718 37.4355828,58.3763497 C37.8708282,59.3726687 37.8446319,60.8302147 38.5092025,61.5972086 C38.4735583,60.8458896 38.566319,60.2227607 38.9386503,59.8794172 C38.9231902,60.8598466 39.5701534,60.3097239 40.0122699,60.0941411 L40.4417178,61.1677607 C41.2271779,61.3090491 41.2653988,60.7030982 41.9447853,60.7383129 C42.6978221,60.9985583 42.8436196,62.6255215 43.6625767,61.5972086 C43.9739264,62.0017485 43.9782209,62.7129141 44.5214724,62.8855521 C45.1723006,62.0221472 44.045,60.7026687 44.7361963,59.8794172 C45.1162577,60.4297546 44.8948773,61.5817485 45.3803681,62.0266564 C45.8641411,61.5083129 45.3610429,60.0033129 46.2392638,59.8794172 L46.2392638,61.5972086 C47.991411,62.2070245 48.1567485,64.4036503 50.5337423,64.3886196 C50.1517485,63.4382515 50.7796012,62.615 50.5337423,62.2413804 C51.1508589,62.2858282 51.6245399,62.1868405 51.8220859,61.8119325 C51.5487423,61.5128221 50.7703681,61.7185276 50.7484663,61.1677607 C51.4866871,61.2618098 51.9517791,61.0829448 52.4662577,60.9530368 C52.6730368,60.0305828 51.411319,60.576411 51.392638,59.8794172 C52.2768712,59.7108589 52.4946012,60.2090184 53.3251534,60.0941411 C53.3017485,59.0439264 51.8547239,59.4173313 51.607362,58.5910736 C52.2251227,58.2069325 53.3131288,58.2928221 53.9693252,57.9469018 C54.0846319,57.1874233 53.7872393,56.8406442 53.3251534,56.6585583 C53.0144479,56.9920245 53.0387117,57.6604601 52.6809816,57.9469018 C52.6135583,57.6565951 52.3752147,57.5367791 52.4662577,57.0880061 C50.324816,57.9526994 48.613681,59.2476994 47.9570552,61.5972086 C47.7163497,59.9964417 48.3680368,59.2882822 48.8159509,58.3763497 C44.2844172,57.9692331 43.5292331,53.7857669 38.9386503,53.4376994 Z M53.7546012,50.6462883 C55.0115951,50.3265644 56.0987423,47.9817791 58.6932515,48.2843252 C57.6172699,49.0691411 55.9984663,49.3113497 55.2576687,50.4315644 C57.6417485,49.0745092 61.320184,48.2920552 63.4171779,50.4315644 C62.9376994,50.8824847 63.1315951,52.0069939 62.5582822,52.3640798 C62.7558282,52.9494172 63.2295092,52.0643252 63.8466258,52.3640798 C63.8560736,52.7312577 63.6870859,52.9202147 63.4171779,53.0082515 C66.5530061,55.3120245 67.9308896,59.3739571 69.2147239,63.5297239 C67.5778834,63.6106748 66.8482515,64.5988344 66.208589,65.6769632 C67.3489877,65.4547239 68.6858589,63.5754601 71.3619632,64.1738957 C71.4495706,65.3746319 73.2601227,64.8524233 73.2944785,66.106411 C72.306319,66.0926687 71.9007055,65.4961656 71.1472393,65.2475153 C70.1685276,65.4854294 69.5310123,66.0647546 69.2147239,66.9653067 C68.5297546,67.1493252 68.5505828,66.6273313 68.1411043,66.5358589 C67.8024847,66.9844172 67.9923006,67.9618405 67.7116564,68.4683742 C67.3144172,68.4361656 67.579816,67.7411043 67.2822086,67.6094785 C66.6545706,67.7692331 66.8665031,68.7685583 65.993865,68.6830982 C65.318773,65.4216564 62.8915337,63.912362 62.5582822,60.308865 C62.0687117,60.6066871 62.4781902,61.8035583 62.3435583,62.4561043 C61.4170245,62.3090184 62.1460123,60.506411 61.9141104,59.6646933 C60.9643865,59.788589 61.7077607,61.6055828 60.6257669,61.5972086 C60.9031902,60.7295092 61.0850613,59.7660429 61.0552147,58.5910736 C60.4151227,58.9530982 60.5104601,60.0503374 60.4110429,60.9530368 C59.4177301,60.922546 59.7713804,59.2144172 59.9815951,58.5910736 C59.5195092,57.1206442 57.3389877,57.3686503 57.404908,55.3702147 C56.7590184,55.153773 57.0244172,55.8486196 56.9754601,56.2291104 C56.0006135,55.9156135 55.6499693,54.9779141 54.8282209,54.511319 C54.277454,54.5332209 54.4831595,55.3115951 54.1840491,55.5849387 C53.5055215,55.4762883 53.8359816,54.3584356 53.3251534,54.0818712 C52.7934969,54.2890798 53.6210429,54.906411 53.3251534,55.5849387 C52.3865951,55.736319 52.8675767,54.4679448 52.2515337,54.2965951 C51.9167791,54.8207362 51.8665337,55.6293865 51.392638,56.0143865 C50.3570245,54.6002147 51.8798466,52.2741104 52.2515337,50.8610123 C50.6739571,52.0033436 49.3785276,53.4276074 48.3865031,55.1554908 C48.7702147,51.9606135 51.1373313,50.7487117 53.3251534,49.3579448 C53.9074847,49.681319 52.9833129,50.2842638 52.8957055,50.6462883 L54.398773,49.7873926 L53.7546012,50.6462883 Z M42.803681,12.8548773 C41.6890491,12.2268098 40.2488957,11.3539571 38.5092025,11.9959816 C39.3380368,10.9313804 42.9490491,10.9990184 42.803681,12.8548773 Z M42.803681,13.713773 L42.3742331,14.5726687 C41.9958896,14.3783436 42.0195092,13.7822699 41.5153374,13.713773 C40.7719632,14.1326994 41.7781595,14.5713804 41.7300613,15.0021166 C40.0661656,15.2346626 39.5295706,14.3396933 38.0797546,14.3579448 C38.2906135,13.423681 39.6259816,13.6137117 40.2269939,13.0696012 C40.0457669,12.5639264 39.1198773,13.0829141 38.9386503,13.2843252 C39.2577301,11.838589 41.9726994,12.7730675 42.803681,13.713773 L42.803681,13.713773 Z M45.595092,16.719908 C45.7791104,17.4048773 45.2571166,17.3840491 45.1656442,17.7935276 C44.3471166,17.2298773 43.5891411,17.6807975 42.803681,17.3640798 C43.6091104,16.7244172 44.4482515,17.1957362 45.595092,16.719908 Z M45.1656442,18.4376994 C45.3657669,18.9534663 46.0286196,19.0062883 45.809816,19.9407669 C44.3705215,20.1241411 45.0819018,21.2031288 43.6625767,21.2291104 C43.2311963,20.7912883 43.7574847,20.8080368 43.8773006,20.3702147 C42.6492945,20.5246012 42.2965031,19.8039877 41.7300613,19.2965951 C42.2492638,17.9240798 43.9442945,19.0593252 45.1656442,18.4376994 Z" id="Shape"></path>
            </g>
        </g>
    </g>
</svg>