<?xml version="1.0" encoding="UTF-8"?>
<svg width="259px" height="30px" viewBox="0 0 259 30" version="1.1" xmlns="http://www.w3.org/2000/svg" xmlns:xlink="http://www.w3.org/1999/xlink">
    <!-- Generator: Sketch 45.1 (43504) - http://www.bohemiancoding.com/sketch -->
    <title>newyorker</title>
    <desc>Created with Sketch.</desc>
    <defs></defs>
    <g id="Page-1" stroke="none" stroke-width="1" fill="none" fill-rule="evenodd">
        <g id="newyorker" fill-rule="nonzero" fill="#000000">
            <g id="The_New_Yorker">
                <polygon id="polygon3" points="23.6969565 1.30478261 27.5882609 1.30478261 27.5882609 12.3073913 37.4578261 12.3073913 37.4578261 1.30478261 40.3904348 1.28217391 40.3904348 28.3373913 37.4578261 28.3373913 37.4578261 13.8030435 27.5882609 13.8030435 27.5882609 28.3373913 23.6969565 28.3373913"></polygon>
                <polygon id="polygon5" points="66.5991304 1.36043478 69.886087 1.36043478 83.713913 18.9330435 83.713913 1.36043478 85.8213043 1.36043478 85.8213043 28.7447826 68.7213043 6.68217391 68.7213043 28.3891304 66.5452174 28.3895652"></polygon>
                <path d="M89.483913,1.36043478 L99.3447826,1.36043478 L100.753478,4.49043478 C100.753478,4.49043478 99.1008696,2.84652174 96.0056522,2.84652174 C93.8143478,2.84652174 93.6156522,2.84652174 93.6156522,2.84652174 L93.6156522,12.3691304 C93.6156522,12.3691304 95.5882609,12.3691304 97.6230435,12.3691304 C99.6591304,12.3691304 99.9613043,12.17 100.753478,11.3782609 L100.753478,15.3947826 C100.753478,15.3947826 99.8665217,14.0382609 97.6230435,14.0382609 C95.3795652,14.0382609 93.6156522,14.0382609 93.6156522,14.0382609 L93.6156522,26.5608696 C93.6156522,26.5608696 98.0926087,26.5608696 99.1882609,26.5608696 C104.588261,26.5608696 107.344783,24.3169565 107.344783,24.3169565 L105.362609,28.3865217 L89.4343478,28.3895652 L89.483913,1.36043478 L89.483913,1.36043478 Z" id="path7"></path>
                <path d="M226.560435,1.36043478 L237.500435,1.36043478 L238.908696,4.49043478 C238.908696,4.49043478 237.363043,2.84608696 233.931739,2.84608696 C231.741304,2.84608696 230.332174,2.84608696 230.332174,2.84608696 L230.332174,12.3691304 C230.332174,12.3691304 232.665217,12.3691304 234.7,12.3691304 C236.288696,12.3691304 236.78,12.226087 237.390435,11.6165217 L237.390435,14.8186957 C237.390435,14.8186957 236.943478,13.8817391 234.7,13.8817391 C232.456087,13.8817391 230.332174,13.8817391 230.332174,13.8817391 L230.332174,26.5608696 C230.332174,26.5608696 231.877391,26.5608696 232.972174,26.5608696 C237.73087,26.5608696 239.57087,25.1282609 239.57087,25.1282609 L237.160435,28.3865217 L226.511304,28.3895652 L226.560435,1.36043478 L226.560435,1.36043478 Z" id="path9"></path>
                <path d="M44.0982609,1.34086957 L55.0382609,1.34086957 L56.4465217,4.47086957 C56.4465217,4.47086957 54.9008696,2.82652174 51.4695652,2.82652174 C49.2791304,2.82652174 47.87,2.82652174 47.87,2.82652174 L47.87,12.3495652 C47.87,12.3495652 50.2030435,12.3495652 52.2378261,12.3495652 C53.8265217,12.3495652 54.3178261,12.2065217 54.9282609,11.5969565 L54.9282609,14.7991304 C54.9282609,14.7991304 54.4813043,13.8621739 52.2378261,13.8621739 C49.993913,13.8621739 47.87,13.8621739 47.87,13.8621739 L47.87,26.5413043 C47.87,26.5413043 49.4152174,26.5413043 50.51,26.5413043 C55.2686957,26.5413043 57.1086957,25.1086957 57.1086957,25.1086957 L54.6982609,28.3669565 L44.0491304,28.37 L44.0982609,1.34086957 L44.0982609,1.34086957 Z" id="path11"></path>
                <g id="g13" transform="translate(0.380000, 1.077391)">
                    <g id="g15">
                        <path d="M19.4830435,0.283043478 L12.3743478,0.283043478 L1.53391304,0.283043478 L0.0547826087,3.62956522 C0.0547826087,3.62956522 1.6773913,1.98521739 5.28043478,1.98521739 C7.6826087,1.98521739 7.72826087,1.98521739 8.51478261,1.98347826 L8.52173913,27.2556522 L12.3669565,27.2591304 L12.373913,1.98521739 C12.373913,1.98521739 13.4365217,1.98521739 15.7369565,1.98521739 C19.34,1.98521739 20.9630435,3.62956522 20.9630435,3.62956522 L19.4830435,0.283043478 Z" id="path17"></path>
                    </g>
                </g>
                <polygon id="polygon19" points="101.969565 1.36043478 106.136522 1.36043478 115.121739 21.1795652 117.006087 17.0126087 110.121739 1.36043478 114.107391 1.36043478 119.107391 11.9404348 123.89 1.36043478 125.91913 1.36043478 120.230435 14.8026087 123.12913 21.1795652 131.86087 1.36043478 134.288261 1.36043478 122.259565 28.6069565 118.093043 19.7665217 114.034783 28.6430435"></polygon>
                <path d="M171.863043,0.434782609 C181.168696,0.434782609 186.823043,6.99434783 186.823043,14.2847826 C186.823043,23.696087 181.715652,29.6134783 172.082174,29.6134783 C162.447391,29.6134783 156.69913,22.3326087 156.69913,15.106087 C156.69913,6.94956522 162.776087,0.434782609 171.863043,0.434782609 Z M160.695652,14.503913 C160.695652,20.8313043 164.258261,27.7521739 172.355652,27.7521739 C179.836957,27.7521739 182.812174,21.6195652 182.812174,14.6678261 C182.812174,9.09217391 179.034783,2.0226087 171.698261,2.0226087 C166.558261,2.0226087 160.695652,6.07826087 160.695652,14.503913 Z" id="path21"></path>
                <path d="M190.026087,1.36043478 C190.026087,1.36043478 193.866522,1.36043478 196.366522,1.36043478 C199.702174,1.36043478 202.489565,3.29434783 202.489565,6.86782609 C202.489565,11.0808696 199.386522,12.1747826 197.272174,12.846087 C201.114783,13.4869565 202.526087,15.3278261 202.526087,20.4908696 C202.526087,25.6434783 203.836087,27.556087 205.016957,27.556087 C205.926522,27.556087 206.636522,26.9565217 206.89,26.5430435 L207.417391,26.903913 C207.262609,27.146087 206.196087,28.8243478 203.721739,28.8243478 C201.257826,28.8243478 199.373913,26.5421739 199.373913,21.1795652 C199.373913,13.426087 197.277826,13.2808696 195.605652,13.2808696 L195.605652,12.7013043 C195.656087,12.6895652 199.192609,11.9326087 199.192609,7.5926087 C199.192609,3.48913043 196.728696,2.84608696 195.714348,2.84608696 C195.424348,2.84608696 193.902609,2.84608696 193.902609,2.84608696 L193.902609,28.3895652 L189.975652,28.3895652 L190.026087,1.36043478 L190.026087,1.36043478 Z" id="path23"></path>
                <path d="M241.346522,1.36043478 C241.346522,1.36043478 245.187391,1.36043478 247.687391,1.36043478 C251.023478,1.36043478 253.810435,3.29434783 253.810435,6.86782609 C253.810435,11.0808696 250.706957,12.1747826 248.593043,12.846087 C252.435652,13.4869565 253.846522,15.3278261 253.846522,20.4908696 C253.846522,25.6434783 255.156957,27.556087 256.338261,27.556087 C257.247826,27.556087 257.957391,26.9565217 258.21087,26.5430435 L258.737826,26.903913 C258.583913,27.146087 257.516957,28.8243478 255.042174,28.8243478 C252.578696,28.8243478 250.694348,26.5421739 250.694348,21.1795652 C250.694348,13.426087 248.598696,13.2808696 246.926522,13.2808696 L246.926522,12.7013043 C246.976957,12.6895652 250.513478,11.9326087 250.513478,7.5926087 C250.513478,3.48913043 248.049565,2.84608696 247.035217,2.84608696 C246.745217,2.84608696 245.223478,2.84608696 245.223478,2.84608696 L245.223478,28.3895652 L241.296522,28.3895652 L241.346522,1.36043478 L241.346522,1.36043478 Z" id="path25"></path>
                <path d="M220.156087,20.4908696 C220.156087,25.6430435 221.466087,27.556087 222.646957,27.556087 C223.556087,27.556087 224.266087,26.9556522 224.518696,26.5430435 L225.047391,26.903913 C224.891739,27.1456522 223.824783,28.823913 221.351739,28.823913 C218.887391,28.823913 217.003913,26.5417391 217.003913,21.1791304 L217.003913,20.0926087 C217.003913,16.896087 216.847826,14.4030435 216.293043,12.77 C215.864348,11.5069565 214.31,10.5634783 213.643043,10.5634783 L212.809565,10.563913 L212.809565,28.3895652 L208.882609,28.3895652 L208.933043,1.36043478 L212.809565,1.36043478 L212.809565,9.33173913 L219.911304,1.36043478 L222.447391,1.36043478 L214.988696,9.7326087 C218.831304,10.3730435 220.156087,13.2378261 220.156087,19.4404348 L220.156087,20.4908696 Z" id="path27"></path>
                <polygon id="polygon29" points="151.126957 28.3895652 151.126957 14.436087 158.656957 1.36043478 156.223043 1.36043478 149.073043 13.7769565 141.922609 1.36043478 139.48913 1.36043478 147.01913 14.436087 147.01913 28.3895652"></polygon>
            </g>
        </g>
    </g>
</svg>