<?xml version="1.0" encoding="UTF-8"?>
<svg width="375px" height="70px" viewBox="0 0 375 70" version="1.1" xmlns="http://www.w3.org/2000/svg" xmlns:xlink="http://www.w3.org/1999/xlink">
    <!-- Generator: Sketch 45.1 (43504) - http://www.bohemiancoding.com/sketch -->
    <title>nobu</title>
    <desc>Created with Sketch.</desc>
    <defs></defs>
    <g id="Page-1" stroke="none" stroke-width="1" fill="none" fill-rule="evenodd">
        <g id="nobu" fill-rule="nonzero" fill="#FFFFFF">
            <g id="nobu-restaurants">
                <path d="M282.542361,2.32263889 L319.000694,2.32263889 L318.040139,5.47069444 C318.040139,5.47069444 316.625556,5.47361111 312.846528,5.47361111 C308.780694,5.47361111 307.204722,8.96 306.819722,10.3493056 L298.052222,38.7858333 C296.80875,42.8273611 295.617778,47.9577778 294.981944,51.4908333 C294.46375,54.7652778 294.518194,64.7879167 313.841111,64.7879167 C331.23125,64.7879167 340.174722,53.5752778 343.985833,41.7384722 C347.530556,30.7475 351.442778,14.3568056 352.745556,10.2433333 C353.787778,6.95916667 351.042222,5.47263889 349.545972,5.47263889 L342.476944,5.47263889 L343.375278,2.32166667 L374.45625,2.32166667 L373.455833,5.48041667 C373.455833,5.48041667 370.318472,5.46680556 368.343889,5.46680556 C365.351389,5.46680556 363.000556,7.57652778 362.413333,9.49277778 C360.943333,14.3140278 354.197083,31.3706944 350.228472,43.3931944 C345.658056,57.2347222 331.969167,68.9626389 310.076667,68.9626389 C303.552083,68.9626389 294.395694,67.5480556 288.715972,64.7208333 C283.200556,61.8119444 280.224583,55.8872222 280.485139,49.7145833 C280.485139,49.7145833 280.809861,46.2797222 281.794722,43.0461111 C282.776667,39.8115278 291.504306,11.6968056 292.0225,9.82625 C292.457083,8.24638889 291.344861,5.46680556 288.634306,5.46680556 L281.559444,5.47458333 L282.542361,2.32263889 L282.542361,2.32263889 Z M0.966388889,63.9343056 L5.73027778,63.9343056 C8.41555556,63.9343056 11.6229167,63.0952778 12.9101389,59.5194444 C14.0836111,56.2615278 32.3983333,10.3697222 32.3983333,10.3697222 C24.3775,6.39527778 14.8331944,5.85180556 5.59222222,5.47458333 L6.87944444,2.32361111 L24.50875,2.32361111 C34.9027778,2.32361111 42.2459722,3.77708333 46.8941667,6.01416667 C54.7234722,9.78347222 61.1848611,15.3601389 65.8301389,20.3738889 C78.5225,34.0695833 85.4476389,49.8944444 86.47625,53.0755556 L97.9416667,10.4961111 C98.5969444,8.25902778 97.6869444,5.47652778 94.7343056,5.47652778 L87.6477778,5.47652778 L88.62,2.32555556 L119.322778,2.32555556 L118.322361,5.47652778 L113.760694,5.47652778 C109.659861,5.47652778 107.914722,7.92458333 107.179722,10.2647222 C106.325139,12.9976389 87.7051389,67.0901389 87.7051389,67.0901389 L73.6098611,67.0901389 C73.6098611,67.0901389 70.3373611,53.0191667 58.0144444,34.4156944 C48.16875,19.5465278 37.2156944,12.8936111 37.2156944,12.8936111 C37.2156944,12.8936111 23.7144444,56.7768056 22.9726389,59.2977778 C22.2279167,61.8197222 23.9293056,63.9343056 26.2325,63.9343056 L33.3822222,63.9343056 L32.41875,67.0872222 L0,67.0872222 L0.966388889,63.9343056 Z M161.751528,0.0145833333 C139.306806,0.433611111 114.519028,10.1918056 108.311389,34.4001389 C102.117361,58.5433333 120.232778,69.8726389 145.965556,69.3943056 C168.410278,68.97625 193.196111,59.2180556 199.405694,35.0097222 C205.600694,10.8665278 187.484306,-0.462777778 161.751528,0.0145833333 L161.751528,0.0145833333 Z M182.764167,36.5098611 C175.922639,58.1359722 158.986528,65.5540278 145.236389,65.1748611 C132.180417,64.8180556 117.414306,56.7340278 124.950972,32.8990278 C131.7925,11.2738889 148.728611,3.85972222 162.476806,4.235 C175.529861,4.59180556 190.300833,12.6768056 182.764167,36.5098611 L182.764167,36.5098611 Z" id="Shape"></path>
                <path d="M201.817778,59.4066667 C201.10125,61.7254167 199.178194,63.9333333 195.801667,63.9333333 C194.286944,63.9333333 189.850694,63.9284722 189.850694,63.9284722 L188.878472,67.08625 L234.500972,67.08625 C253.559444,67.08625 267.455417,62.65 270.738611,51.2419444 C273.714583,40.8945833 264.812917,35.3140278 254.076667,33.9120833 C269.238472,32.1144444 275.962361,26.1401389 277.692917,19.6038889 C280.022361,10.8227778 272.334028,2.32263889 253.383472,2.32263889 L207.573333,2.32652778 L206.605972,5.47361111 L213.634167,5.47361111 C215.700139,5.47361111 217.832222,7.35097222 216.995139,10.0731944 C215.956806,13.4643056 202.593611,56.8895833 201.817778,59.4066667 L201.817778,59.4066667 Z M233.122361,6.12791667 L244.687917,6.12791667 C258.515833,6.12791667 264.259722,11.5684722 262.292917,19.1605556 C259.748611,29.0004167 249.71625,31.7304167 239.396111,31.7304167 C234.109167,31.7304167 225.332917,31.7080556 225.332917,31.7080556 L233.122361,6.12791667 L233.122361,6.12791667 Z M230.185278,63.2829167 L220.189861,63.2829167 C217.460833,63.2829167 216.424444,60.5956944 216.900833,58.9759722 C217.282917,57.6809722 224.21,35.4705556 224.21,35.4705556 C224.21,35.4705556 235.044444,35.49 238.715556,35.49 C253.541944,35.49 258.013194,42.5366667 256.225278,49.6270833 C254.895278,54.8877778 249.241806,63.2829167 230.185278,63.2829167 L230.185278,63.2829167 Z" id="Shape"></path>
            </g>
        </g>
    </g>
</svg>