<?xml version="1.0" encoding="UTF-8"?>
<svg width="213px" height="30px" viewBox="0 0 213 30" version="1.1" xmlns="http://www.w3.org/2000/svg" xmlns:xlink="http://www.w3.org/1999/xlink">
    <!-- Generator: Sketch 45.1 (43504) - http://www.bohemiancoding.com/sketch -->
    <title>nytimes</title>
    <desc>Created with Sketch.</desc>
    <defs></defs>
    <g id="Page-1" stroke="none" stroke-width="1" fill="none" fill-rule="evenodd">
        <g id="nytimes" fill-rule="nonzero" fill="#000000">
            <g id="new-york-times">
                <path d="M12.4958898,0.0127118644 C12.2947881,0.0223728814 12.0994068,0.0734745763 11.9110169,0.193855932 C12.6865678,0.348940678 13.595339,0.453177966 14.0848729,1.15995763 C14.3302119,1.42055085 14.2538136,1.82097458 14.0084746,2.04978814 C13.5446186,2.60275424 12.7480932,2.77627119 12.0668644,2.59957627 C9.75699153,2.05423729 7.57245763,0.994067797 5.19915254,0.718220339 C3.9279661,0.550423729 2.68538136,1.16186441 1.80826271,2.04661017 C0.998516949,2.85889831 0.704110169,4.09194915 0.86440678,5.20550847 C1.04351695,6.08644068 1.69639831,7.00169492 2.64088983,7.13135593 C2.0815678,6.52372881 1.97542373,5.46864407 2.55508475,4.83686441 C2.88305085,4.43008475 3.46588983,4.37415254 3.95021186,4.44915254 C5.78961864,4.79110169 7.58199153,5.34470339 9.41631356,5.71716102 C10.4434322,5.99682203 11.4584746,6.33050847 12.5084746,6.52118644 C12.5275424,7.77584746 12.5275424,9.02923729 12.5084746,10.2838983 C11.8309322,10.7898305 11.1838983,11.3345339 10.5190678,11.8569915 C11.1661017,12.3413136 11.8334746,12.7951271 12.5022458,13.2489407 C12.5454661,15.0235169 12.4958898,16.7975847 12.5276695,18.5720339 C11.433178,19.4173729 9.96673729,19.554661 8.63466102,19.3983051 C7.21970339,19.3196186 5.96377119,18.4766949 5.03707627,17.4533898 C6.59059322,16.6245763 8.17385593,15.8427966 9.76283898,15.0827542 C9.81864407,12.2847458 9.77288136,9.48559322 9.78813559,6.68644068 C7.80254237,7.5190678 5.83728814,8.39618644 3.85805085,9.24152542 C4.43008475,7.77838983 5.59372881,6.59300847 6.98199153,5.88877119 C6.61957627,5.91038136 6.23949153,5.88368644 5.90148305,6.04131356 C3.30317797,7.06716102 1.16186441,9.2720339 0.356059322,11.9618644 C-0.182923729,13.670339 -0.00940677966,15.5382203 0.575338983,17.2086864 C1.29991525,19.067161 2.64038136,20.7122034 4.4175,21.6514831 C5.41550847,22.1675847 6.48966102,22.6511441 7.63372881,22.6652542 C10.0019492,22.8622881 12.4933475,21.9687712 14.0913559,20.1864407 C14.7891102,19.4377119 15.1407203,18.4615678 15.4864831,17.5169492 C15.8069492,16.5865678 15.9517373,15.5961864 15.9186864,14.6122881 C15.152161,16.1326271 14.1326695,17.560678 12.7407203,18.5688559 C12.7494915,16.8006356 12.7375424,15.0330508 12.7437712,13.2648305 C13.3489831,12.8033898 13.9564831,12.3425847 14.5425,11.8569915 C13.9412288,11.3243644 13.3437712,10.7923729 12.7437712,10.2584746 C12.7464407,9.01525424 12.7412288,7.76949153 12.7437712,6.52754237 C14.0975847,6.45635593 15.6554237,5.74194915 16.0202542,4.3220339 C16.2744915,3.39533898 16.4073305,2.29766949 15.8391102,1.45868644 C15.3166525,0.863771186 14.6391102,0.347033898 13.8433475,0.203389831 C13.4027542,0.164872881 12.9381356,-0.00838983051 12.4958898,0.0127118644 L12.4958898,0.0127118644 Z M6.16207627,8.53919492 C6.15699153,11.2341102 6.1779661,13.9290254 6.15254237,16.6240678 C5.70254237,16.8007627 5.26004237,16.9939831 4.81779661,17.1896186 C4.00169492,16.0088136 3.49449153,14.6186441 3.26059322,13.2076271 C3.1970339,12.0165254 3.41822034,10.8101695 3.83262712,9.69279661 C4.61567797,9.32033898 5.3815678,8.91800847 6.16207627,8.53919492 L6.16207627,8.53919492 Z M161.431271,0.0127118644 C161.213136,0.00610169492 160.999958,0.048940678 160.798856,0.193855932 C161.256483,0.299364407 161.740042,0.344491525 162.168432,0.559322034 C162.549788,0.742372881 162.802119,1.12118644 162.934195,1.51271186 C163.005508,1.93601695 162.695339,2.32627119 162.324153,2.48516949 C161.658051,2.79279661 160.902203,2.65042373 160.223517,2.46610169 C158.596271,1.96779661 157.011737,1.32330508 155.351695,0.934322034 C154.498729,0.752542373 153.604449,0.580932203 152.742712,0.80720339 C151.808263,1.07033898 150.859958,1.51779661 150.30839,2.35169492 C149.596398,3.27076271 149.506907,4.53495763 149.853941,5.6154661 C150.139958,6.33622881 150.719619,7.04491525 151.538263,7.13771186 C151.271186,6.79449153 150.81178,6.44809322 150.943983,5.95868644 C151.017712,5.47309322 151.219068,4.98050847 151.608178,4.66525424 C151.997288,4.37161017 152.529788,4.37542373 152.981059,4.50635593 C154.636271,4.81398305 156.251822,5.27860169 157.887966,5.66631356 C158.996441,5.90148305 160.061059,6.31525424 161.177161,6.52118644 C161.196229,7.77076271 161.18161,9.02033898 161.186568,10.2711864 C160.586695,10.8012712 159.986695,11.3307203 159.394195,11.8697034 C159.991653,12.3311441 160.578305,12.8040254 161.18339,13.2552966 C161.192161,15.0338136 161.180339,16.8146186 161.192924,18.5942797 C160.142924,19.3810169 158.761144,19.575 157.487415,19.398178 C156.080339,19.3142797 154.849703,18.4677966 153.915381,17.4661017 C154.298008,17.1990254 154.735297,17.0275424 155.148432,16.8114407 C156.310297,16.2394068 157.457542,15.640678 158.628305,15.0889831 C158.665169,12.2885593 158.632754,9.48686441 158.644195,6.68644068 C156.671186,7.52669492 154.713686,8.40635593 152.733178,9.22881356 C153.18572,8.15466102 153.909025,7.1720339 154.881356,6.51483051 C155.172585,6.24915254 155.467373,5.97076271 155.866525,5.87923729 C155.467373,5.90720339 155.054237,5.89385593 154.690678,6.07944915 C151.900551,7.20826271 149.520763,9.67055085 148.995763,12.6959746 C148.796314,14.2315678 148.939322,15.8262712 149.475636,17.2817797 C150.16322,18.9902542 151.374153,20.5080508 152.949153,21.4766949 C153.702966,21.9355932 154.512712,22.3048729 155.357924,22.5602542 C157.381653,22.8971186 159.552331,22.6060169 161.323093,21.5305932 C162.491186,20.7157627 163.576271,19.6594068 164.065551,18.2890678 C164.590678,17.1259322 164.801695,15.8553814 164.828263,14.5867373 C164.584195,14.9058051 164.441186,15.2852542 164.233983,15.6259322 C163.561525,16.7547458 162.691398,17.7774153 161.631229,18.5591949 C161.643941,16.7858898 161.615339,15.0125847 161.647119,13.2392797 C162.247119,12.8058051 162.810127,12.3227542 163.413941,11.891822 C162.857288,11.3147034 162.225381,10.8163983 161.63428,10.2774153 C161.622839,9.03419492 161.648263,7.78970339 161.621568,6.54648305 C162.784703,6.47148305 163.961186,5.94966102 164.58661,4.92889831 C165.237458,3.88016949 165.233644,2.45135593 164.605551,1.395 C164.111059,0.741610169 163.333856,0.320847458 162.530466,0.200084746 C162.170085,0.170847458 161.794703,0.0238983051 161.431271,0.0127118644 L161.431271,0.0127118644 Z M155.046737,8.53601695 C155.061864,11.2258475 155.046737,13.9150424 155.052966,16.6048729 C154.594195,16.796822 154.14089,16.9995763 153.683263,17.1927966 C153.019703,16.2597458 152.502966,15.2103814 152.237288,14.0942797 C151.943644,12.6324153 152.021314,11.0478814 152.701271,9.69915254 C153.489407,9.32288136 154.266102,8.92881356 155.046737,8.53601695 Z M60.5072034,0.908898305 C61.2648305,2.23601695 60.790678,4.03474576 59.6504237,4.99067797 C58.95,5.4470339 58.1440678,5.69872881 57.354661,5.95423729 C57.3724576,11.3822034 57.3573305,16.8114407 57.3597458,22.2394068 C57.415678,22.4872881 57.1881356,22.6816525 56.9543644,22.5826271 C56.4927966,22.5610169 56.3707627,22.0741525 56.175,21.7461864 C53.3351695,16.5241525 50.5259746,11.284322 47.6631356,6.07372881 C47.6084746,9.90635593 47.6618644,13.7427966 47.6364407,17.5765678 C48.9889831,17.8322034 50.3059322,18.484322 51.190678,19.5597458 C51.6012712,19.2419492 51.8669492,18.6826271 52.3932203,18.5542373 C52.2597458,18.7970339 52.0652542,18.9964831 51.879661,19.2 C50.8563559,20.3326271 49.8355932,21.470339 48.8135593,22.6055085 C48.3395339,22.0080508 47.7077542,21.4411017 46.9169492,21.3597458 C46.3970339,21.3394068 45.7958898,21.3661017 45.4169492,21.7766949 C44.9809322,22.165678 44.6886864,22.8216102 45,23.3771186 C45.3648305,24.1741525 46.2826271,24.3902542 47.0555085,24.5809322 C46.0894068,24.7716102 45.0077542,24.6597458 44.2285169,24.0127119 C43.608178,23.4826271 43.0449153,22.8100424 42.8836017,21.9889831 C42.6662288,20.8576271 43.0043644,19.6002966 43.8497034,18.798178 C44.7739831,17.8841949 46.1289407,17.5435169 47.3975847,17.6159746 C47.4319068,15.9455085 47.4166525,14.2752966 47.4052119,12.6049576 C46.7886864,12.5070763 45.9484322,12.5947881 45.6611441,13.2392797 C45.4946186,13.7617373 45.8862712,14.2015678 46.2738559,14.4875847 C45.7933475,14.4036864 45.2594492,14.312161 44.9124153,13.9397034 C44.5030932,13.4350424 44.1852966,12.8388559 44.0670763,12.1956356 C43.9488559,11.3680932 44.1662288,10.4248729 44.8552119,9.89224576 C45.5759746,9.33419492 46.5357203,9.25792373 47.4153814,9.27826271 L47.4153814,5.74690678 C47.0963136,5.26766949 46.7899576,4.71851695 46.2422034,4.47063559 C45.8837288,4.32190678 45.4159322,4.26851695 45.1070339,4.54817797 C44.6799153,4.9104661 44.576822,5.48631356 44.4078814,5.99097458 C44.2438983,4.75919492 44.3672034,3.36216102 45.230339,2.39605932 C46.2727119,1.04605932 48.4782203,0.996483051 49.6184746,2.24478814 C50.1116949,2.75199153 50.4498305,3.37741525 50.7855508,3.99394068 C52.8957203,7.7515678 54.9639407,11.5333475 57.0957203,15.2782627 C57.1084322,12.1727542 57.1147881,9.06483051 57.093178,5.95919492 C56.7269492,5.81682203 56.3190254,5.82063559 55.9464407,5.69097458 C55.2523729,5.50792373 54.6739831,5.0604661 54.1604237,4.57614407 C53.8400847,4.95241525 53.5170763,5.32741525 53.2184746,5.72021186 C53.1485593,5.68207627 53.01,5.60707627 52.9402119,5.56894068 C54.0334322,4.19097458 55.205339,2.87529661 56.343178,1.53292373 C56.9393644,2.16088983 57.7174576,2.67444915 58.6046186,2.73165254 C59.5309322,2.625 60.4423729,1.88389831 60.5072034,0.908898305 L60.5072034,0.908898305 Z M131.4675,3.91525424 C132.992924,2.92118644 134.515678,1.91822034 136.046314,0.931779661 C136.059025,6.7970339 136.034873,12.6635593 136.059025,18.5288136 C136.389661,18.9788136 136.840805,19.3487288 137.241356,19.7441949 C137.492924,19.4747034 137.754788,19.2166525 138.014237,18.9560593 C138.075127,19.0169492 138.197161,19.1391102 138.259576,19.1988559 C137.037966,20.2576271 135.854492,21.3572034 134.625254,22.4047881 C133.851102,21.6102966 133.050127,20.8437712 132.282458,20.045339 C131.937839,20.3516949 131.622712,20.6874153 131.298559,21.0141102 C131.232331,20.9632627 131.100127,20.8601695 131.034153,20.8094492 C131.620042,20.2488559 132.248136,19.7352966 132.840508,19.1797881 C132.835424,14.7344492 132.844322,10.2891102 132.835424,5.84504237 C132.821186,5.01355932 132.397881,4.01822034 131.4675,3.91525424 Z M17.5652542,4.08813559 C18.8783898,3.10932203 20.1661017,2.09491525 21.4805085,1.11991525 C21.4868644,4.35127119 21.4792373,7.58389831 21.484322,10.8165254 C22.5966102,9.89872881 23.7176695,8.99237288 24.8185169,8.06186441 C25.7019915,8.97838983 26.5269915,9.95211864 27.437161,10.8394068 C27.8211864,10.5635593 28.2151271,10.3016949 28.6180932,10.0550847 C28.5457627,10.5673729 27.9329237,10.7427966 27.6151271,11.1 C27.6189407,12.8669492 27.6151271,14.6326271 27.6163983,16.3995763 C27.641822,17.7204661 27.4511441,19.0322034 27.4118644,20.3516949 C27.3519915,21.7830508 26.7966102,23.2463136 25.6805085,24.1855932 C24.7727542,24.9967373 23.5322034,25.2889831 22.3487288,25.3868644 C22.3283898,25.4148305 22.2851695,25.4720339 22.2635593,25.5011441 L22.295339,25.3970339 C21.8872881,25.3970339 21.4805085,25.3817797 21.0737288,25.3512712 C21.5848729,25.0868644 22.1631356,24.9177966 22.5661017,24.4805085 C23.0288136,23.9642797 23.5677966,23.4724576 23.795339,22.7974576 C24.1677966,21.7677966 24.1792373,20.6580508 24.2161017,19.5775424 C24.2059322,17.1559322 24.2275424,14.7330508 24.204661,12.3127119 C23.665678,11.6097458 23.0199153,10.9894068 22.4478814,10.3105932 C22.1351695,10.6449153 21.7602966,10.9258475 21.4919492,11.2970339 C21.470339,13.7961864 21.4894068,16.2966102 21.4830508,18.7956356 C21.8073305,19.1186441 22.1300847,19.4440678 22.4567797,19.7644068 C22.7187712,19.5012712 22.9805085,19.2368644 23.2423729,18.9724576 C23.3009746,19.029661 23.4165254,19.1440678 23.475,19.2012712 C22.2038136,20.195339 20.9454661,21.2047881 19.6742797,22.1974576 C18.8696186,21.4830508 18.0840254,20.7483051 17.2920763,20.0199153 C17.0263983,20.2182203 16.7607203,20.4190678 16.4937712,20.6159746 C16.4366949,20.5562288 16.3247034,20.4367373 16.2676271,20.3769915 C16.8777966,19.9841949 17.4765254,19.5737288 18.080339,19.173178 C18.0790678,14.7291102 18.0790678,10.2863136 18.080339,5.84224576 C18.0675,5.50283898 18.0841525,5.13673729 17.9049153,4.83419492 C17.7865678,4.60283898 17.5197458,4.52911017 17.3200424,4.38927966 C17.2754237,4.24194915 17.4864407,4.17966102 17.5652542,4.08813559 L17.5652542,4.08813559 Z M105.117712,1.72881356 C103.922797,2.69618644 102.754576,3.6934322 101.571102,4.67478814 C101.55839,3.74936441 101.586992,2.82584746 101.555212,1.90042373 C101.372288,1.89152542 101.291568,1.97415254 101.316864,2.14830508 C101.310508,8.68983051 101.318898,15.2307203 101.313814,21.7722458 C100.668051,21.6488136 100.021017,21.5199153 99.3816102,21.375 C99.3714407,15.8580508 99.3809746,10.3422458 99.3784322,4.82415254 C99.3645763,4.12627119 99.138178,3.42457627 98.6792797,2.89194915 C98.1072458,2.21440678 97.2129661,1.89978814 96.3499576,1.84004237 C95.3265254,1.81080508 94.3883898,2.34851695 93.6739831,3.04131356 C93.0167797,3.6654661 92.6641525,4.63029661 92.8508898,5.52648305 C92.9309746,4.97097458 93.1121186,4.34491525 93.6231356,4.03601695 C94.1837288,3.7970339 94.9305508,3.98961864 95.2661441,4.51588983 C95.5534322,4.9404661 95.5820339,5.47118644 95.5934746,5.96822034 C95.5960169,7.45932203 95.5920763,8.95042373 95.5934746,10.4427966 C94.6095763,10.4580508 93.4477119,10.6169492 92.8793644,11.529661 C92.3073305,12.2440678 92.1306356,13.2572034 92.5234322,14.0974576 C92.7814831,14.9288136 93.6458898,15.3573305 94.4491525,15.4894068 C93.9992797,15.1984322 93.5415254,14.6861441 93.8072034,14.1165254 C94.1645339,13.5444915 94.9766949,13.4605932 95.5805085,13.6271186 C95.604661,16.2736017 95.5932203,18.9190678 95.5868644,21.565678 C94.684322,21.8808051 93.8059322,22.428178 93.3241525,23.2786017 C92.9733051,23.8849576 92.9644068,24.6101695 92.9936441,25.2902542 C93.1016949,26.4826271 93.8885593,27.5712712 94.9449153,28.1154661 C95.7432203,28.4891949 96.6419492,28.5006356 97.5063559,28.4713983 C99.9597458,28.325339 102.290466,27.3514831 104.748941,27.2702542 C105.481144,27.2154661 105.910169,28.0247034 105.71822,28.6590254 C105.572034,29.2323305 105.091525,29.6200424 104.637712,29.9556356 C105.500847,29.7725847 106.360169,29.4484322 107.033898,28.8622881 C107.794068,28.2179237 108.143644,27.1786017 108.095466,26.2023305 C108.038263,25.2362288 107.259025,24.5173729 106.44928,24.1016949 C105.382754,23.4762712 104.095042,23.6155932 102.921737,23.7427119 C100.7175,23.9969492 98.5691949,24.6967373 96.3433475,24.7564831 C95.5883898,24.8073305 94.8835169,24.2727966 94.7321186,23.5329661 C94.5617797,22.8199576 95.1408051,22.1961864 95.726822,21.8899576 C96.995339,21.2912288 98.4554237,21.5129237 99.7787288,21.7914407 C101.313051,21.9517373 102.752669,22.5776695 104.288263,22.7352966 C105.160297,22.8344492 106.086483,22.6667797 106.802034,22.1379661 C107.539322,21.6828814 107.871737,20.7961017 107.891949,19.9610593 C107.900975,14.7542797 107.882542,9.54800847 107.90161,4.34135593 C108.377034,3.92822034 108.901271,3.55766949 109.315805,3.07970339 C108.736017,3.22334746 108.372585,3.76677966 107.898432,4.09983051 C106.961441,3.32033898 106.044407,2.52076271 105.117712,1.72881356 L105.117712,1.72881356 Z M102.518008,4.36016949 C103.051907,4.81779661 103.577542,5.28432203 104.110169,5.74576271 C104.111441,7.38559322 104.106356,9.02542373 104.110169,10.6652542 C103.857203,10.9144068 103.58072,11.1775424 103.210805,11.2245763 C102.608263,11.3516949 102.02161,11.0536017 101.567797,10.6811441 C101.570339,8.76673729 101.569068,6.8529661 101.567797,4.93855932 C101.88572,4.74788136 102.202881,4.55720339 102.518008,4.36016949 L102.518008,4.36016949 Z M101.567797,11.1355932 C102.348432,11.5322034 103.352669,11.6523305 104.110169,11.1387712 C104.107627,11.8824153 104.107627,12.6292373 104.110169,13.3728814 C103.802542,13.0728814 103.407331,12.8345339 102.966102,12.8358051 C102.447585,12.8243644 101.97089,13.0690678 101.567797,13.3728814 C101.570339,12.6279661 101.566525,11.8817797 101.567797,11.1355932 Z M102.959746,13.0709746 C103.463136,13.0836864 103.849576,13.459322 104.110169,13.8559322 C104.106483,15.9317797 104.111568,18.0088983 104.110169,20.0847458 C104.150847,20.7216102 103.712415,21.2663136 103.233178,21.6324153 C102.770466,21.9997881 102.1425,22.0125 101.580636,21.9819915 C101.548856,19.2705508 101.579237,16.5547881 101.567797,13.8432203 C101.931356,13.4478814 102.391525,13.0633475 102.959746,13.0709746 Z M165.541525,5.11271186 C166.365127,4.39067797 167.140551,3.61525424 167.982203,2.91355932 C168.694068,3.66483051 169.444068,4.37923729 170.167246,5.1190678 C169.299025,5.93135593 168.42572,6.73728814 167.546059,7.53686441 C166.881483,6.72457627 166.197458,5.93135593 165.541525,5.11271186 L165.541525,5.11271186 Z M70.4694915,5.88559322 C70.984322,5.53220339 71.6351695,5.55381356 72.2302119,5.47754237 C71.7814831,5.83220339 71.283178,6.2440678 71.2220339,6.85550847 C71.1216102,7.40211864 71.4675,7.8940678 71.8704661,8.2220339 C72.6039407,8.80932203 73.5458898,9.13728814 74.1433475,9.88983051 C74.4306356,10.2533898 74.6047881,10.7135593 74.5920763,11.1800847 C74.5882627,13.6461864 74.5946186,16.1110169 74.5882627,18.5758475 C75.2440678,19.1059322 75.9026695,19.629661 76.5572034,20.1597458 C76.7478814,20.0364407 76.9385593,19.9132627 77.1306356,19.7898305 C77.1217373,17.0987288 77.1444915,14.4063559 77.1190678,11.7165254 C76.7823305,11.3186441 76.3158051,11.0338983 75.9305085,10.6792373 C76.8762712,9.80847458 77.8029661,8.91483051 78.7677966,8.06567797 C79.6067797,8.88940678 80.4889831,9.66864407 81.3495763,10.4694915 C81.0228764,10.8151104 80.6867324,11.1516784 80.3415254,11.4788136 C80.3351695,13.8444915 80.3415254,16.2101695 80.3377119,18.5758475 C81.1970339,19.2419492 82.0564831,19.909322 82.9245763,20.5652542 C83.0467373,20.4939407 83.1700424,20.4241525 83.2958898,20.3542373 C83.2830508,17.4649576 83.297161,14.5766949 83.2881356,11.6872881 C82.8902542,11.3478814 82.4783898,11.0237288 82.0855932,10.6779661 C83.0135593,9.80084746 83.9529661,8.93898305 84.8860169,8.06822034 C85.8152542,8.79533898 86.7457627,9.52245763 87.6697881,10.2559322 C87.9902542,9.90254237 88.3182203,9.55169492 88.6841949,9.24279661 C88.7312288,9.31016949 88.827839,9.44618644 88.8748729,9.51355932 C88.0841949,10.2177966 87.2986017,10.9309322 86.5320763,11.6618644 C86.4658475,13.9652542 86.5308051,16.2762712 86.5002966,18.5809322 C84.4880085,19.9029661 82.3867373,21.1094492 80.3452119,22.3957627 C79.2683898,21.6241525 78.2223305,20.8105932 77.1594915,20.0211864 C76.2061017,20.7877119 75.2514407,21.5555085 74.2916949,22.3144068 C74.1544068,22.4669492 74.0133051,22.2444915 73.9001695,22.1809322 C73.0025847,21.4601695 72.110339,20.7329237 71.2014407,20.0288136 C70.8200847,20.3617373 70.4197881,20.673178 70.037161,21.0062288 C69.9761441,20.9477542 69.8566525,20.8320763 69.7956356,20.7748729 C70.262161,20.4521186 70.7185169,20.1125847 71.1850424,19.7897034 C71.1877119,17.5562288 71.1877119,15.3240254 71.1850424,13.0905508 C71.1837712,12.4930932 70.9740254,11.8880085 70.5659746,11.4456356 C70.1172458,10.9587712 69.5134322,10.616822 69.1562288,10.0460593 C68.7608898,9.3825 68.7252966,8.56004237 68.8765678,7.81881356 C69.0978814,6.98135593 69.762839,6.34322034 70.4694915,5.88559322 Z M211.945042,7.4809322 C212.036568,7.71483051 212.065678,7.97605932 211.951271,8.20868644 C211.670466,8.85063559 210.905212,9.09724576 210.254237,9.08580508 C209.573008,9.02478814 209.041525,8.53474576 208.582627,8.0720339 C207.812288,8.58813559 207.038263,9.10042373 206.269195,9.61652542 C205.381907,10.2139831 204.402331,10.6550847 203.418432,11.065678 C203.414746,12.3292373 203.419576,13.5902542 203.415381,14.8538136 C204.133602,15.4525424 204.872161,16.0245763 205.576398,16.6398305 C205.036144,17.2118644 204.503517,17.7920339 203.993771,18.3907627 C203.470169,19.0212712 202.975551,19.749661 202.945042,20.5963983 C202.914534,21.5585593 203.326398,22.6004237 204.178093,23.1100424 C204.554364,23.3312288 205.011992,23.5282627 205.44928,23.3579237 C204.905212,23.1634322 204.235932,22.7693644 204.282966,22.1058051 C204.43411,21.477839 205.179788,21.0577119 205.798856,21.2382203 C206.440805,21.4212712 206.97089,21.8801695 207.381483,22.395 C209.031483,21.2064407 210.769195,20.1443644 212.57428,19.2075 C212.560424,17.604661 212.596653,15.9977542 212.55839,14.3960593 C211.761356,13.8367373 211.001186,13.2272034 210.213178,12.6577119 C211.047076,11.6013559 211.885932,10.4839831 212.234237,9.16194915 C212.363771,8.60402542 212.407627,7.90042373 211.945042,7.4809322 L211.945042,7.4809322 Z M206.631356,9.88347458 C207.166653,10.6525424 207.875212,11.4006356 208.846525,11.5582627 C209.813771,11.7858051 210.751271,11.2614407 211.38572,10.5635593 C210.5175,12.1690678 209.170678,13.4580508 207.778729,14.6122881 C207.402458,14.2131356 206.997585,13.8413136 206.625254,13.4396186 C206.640254,12.2548729 206.627542,11.0682203 206.631356,9.88347458 L206.631356,9.88347458 Z M207.994703,14.6758475 C208.411653,15.0266949 208.823644,15.3837712 209.240466,15.7372881 C209.431144,15.8516949 209.337839,16.090678 209.364407,16.2711864 C209.352966,17.6478814 209.381695,19.0290254 209.348517,20.4057203 C209.037203,19.7013559 208.570678,19.0461864 207.912203,18.6291102 C206.957415,18.0050847 205.644915,17.9688559 204.673729,18.5750847 C204.228814,18.8215678 203.872881,19.1897034 203.536017,19.5634322 C204.017797,18.6227542 204.796398,17.8803814 205.528729,17.135339 C206.365169,16.329661 207.201483,15.525 207.994703,14.6758475 Z M36.3400424,8.06885593 C35.2417373,8.70444915 34.1804237,9.39788136 33.105,10.0677966 C32.1934322,10.5432203 31.2675,10.9919492 30.3495763,11.4533898 C30.3533898,14.0275424 30.3458898,16.6016949 30.3560593,19.1758475 C29.9645339,19.4797881 29.5074153,19.6983051 29.1514831,20.0467373 C29.2201271,20.0872881 29.3561441,20.1700424 29.4247881,20.2119915 C29.7324153,19.9463136 30.0367373,19.6755508 30.375,19.4492797 C31.5127119,20.3949153 32.5863559,21.4189831 33.7213983,22.3698305 C33.7772034,22.3407203 33.8898305,22.2816102 33.9470339,22.2522458 C35.8689407,20.7624153 37.8108051,19.2948305 39.7339831,17.8062712 L39.4956356,17.5965254 C38.4252966,18.4304237 37.3841949,19.3083051 36.3240254,20.1547881 C35.448178,19.3666525 34.6009322,18.5473729 33.7276271,17.7554237 C33.4301695,17.5380508 33.5966949,17.1255508 33.5750847,16.8179237 C35.3687288,15.5047881 37.1631356,14.1910169 38.9299576,12.8422881 C38.0478814,11.2608051 37.1942797,9.6654661 36.3400424,8.06885593 L36.3400424,8.06885593 Z M33.5688559,9.96610169 C34.4764831,11.4572034 35.3885593,12.9432203 36.2860169,14.440678 C35.3733051,15.0826271 34.4682203,15.7322034 33.5658051,16.3855932 C33.5567797,14.2461864 33.5523305,12.1055085 33.5688559,9.96610169 L33.5688559,9.96610169 Z M66.0667373,8.06567797 C65.2925847,8.57542373 64.5133475,9.07881356 63.7213983,9.55932203 C62.5634746,10.2838983 61.308178,10.8292373 60.095339,11.4533898 C60.0991525,14.0262712 60.0883475,16.5997881 60.0985169,19.1726695 C59.7249153,19.4510593 59.3117797,19.6716102 58.9480932,19.9639831 C58.9862288,20.0313559 59.065678,20.1667373 59.1038136,20.2341102 C59.5067797,19.9633475 59.904661,19.6855932 60.3177966,19.4300847 C61.3588983,20.4254237 62.4152542,21.4056356 63.4639831,22.3920763 C65.4255508,20.9351695 67.35,19.4263983 69.2925,17.9429237 C69.5416525,17.8920763 69.3369915,17.487839 69.1780932,17.6440678 C68.1255508,18.4601695 67.1042797,19.3182203 66.0668644,20.154661 C65.2533051,19.3474576 64.4454661,18.5365678 63.6357203,17.7266949 C63.3737288,17.4966102 63.5289407,17.1127119 63.5149576,16.8114407 C65.2412288,15.5300847 66.9141102,14.1756356 68.6441949,12.8993644 C67.8470339,11.2595339 66.9146186,9.68135593 66.0667373,8.06567797 Z M63.4925847,10.0169492 C64.3824153,11.4661017 65.1978814,12.9635593 66.0190678,14.4533898 C65.1711864,15.075 64.3519068,15.7347458 63.5115254,16.3665254 C63.4722458,14.2512712 63.5116525,12.1334746 63.4925847,10.0169492 Z M116.208814,8.0720339 C115.359661,8.56652542 114.521822,9.07627119 113.69822,9.61016949 C112.730847,10.2 111.673729,10.6188559 110.644195,11.0815678 C110.668347,13.7815678 110.651186,16.4822034 110.653729,19.1823305 C110.309237,19.5254237 109.961568,19.8675 109.627246,20.2182203 C109.697288,20.2144068 109.836992,20.2042373 109.906907,20.1992797 C110.150975,19.9385593 110.405212,19.684322 110.656907,19.4300847 C111.812415,20.3758475 112.950763,21.3420763 114.098644,22.2967373 C114.287924,22.479661 114.502246,22.2071186 114.686568,22.1408898 C116.532331,21.1315678 118.276271,19.9423729 120.177966,19.0360169 C120.207203,16.520339 120.186864,14.0052966 120.190805,11.4883475 C120.534025,11.1451271 120.881695,10.803178 121.217288,10.4523305 C121.149915,10.4536017 121.015678,10.459322 120.947161,10.4618644 C120.626695,10.725 120.302669,10.9811441 119.980932,11.2404661 C118.722585,10.1853814 117.469703,9.1220339 116.208814,8.0720339 L116.208814,8.0720339 Z M114.057203,9.9375 C114.964958,10.7904661 115.888983,11.6307203 116.796737,12.4862288 C116.787839,15.1646186 116.790381,17.8417373 116.790381,20.5201271 C115.859873,19.7040254 114.976271,18.8384746 114.057331,18.0095339 L114.057203,9.9375 L114.057203,9.9375 Z" id="Shape"></path>
                <path d="M136.205085,14.0720339 C137.514407,12.0622881 138.851695,10.070339 140.194068,8.0809322 C140.775547,8.57478625 141.493162,8.88062577 142.252119,8.95805085 C142.994492,8.95932203 143.627415,8.51822034 144.186864,8.07711864 C144.045763,9.16144068 143.684746,10.2877119 142.852119,11.0415254 C142.126271,11.7076271 141.025424,11.8677966 140.111441,11.5423729 C139.572458,11.359322 139.074153,11.0720339 138.627839,10.7199153 C138.549025,10.9055085 138.484195,11.0974576 138.437161,11.2932203 C140.295636,14.0923729 142.121059,16.9169492 143.94661,19.7389831 C144.365975,19.4669492 144.733347,19.1236017 145.10339,18.7894068 C145.175847,18.8350424 145.319364,18.9266949 145.391949,18.9723305 C144.078814,20.1430932 142.723729,21.266822 141.377542,22.4007203 C139.647458,19.6283898 137.955508,16.8317797 136.205085,14.0720339 L136.205085,14.0720339 Z M199.077458,8.06885593 C198.268856,8.56080508 197.457203,9.05211864 196.659025,9.55932203 C195.554364,10.3271186 194.287627,10.8050847 193.115593,11.4533898 C193.128305,14.0262712 193.115593,16.6010593 193.121822,19.1726695 C192.717585,19.4396186 192.318559,19.7115254 191.914195,19.9735169 C191.966314,20.0370763 192.071822,20.1673729 192.123941,20.2309322 C192.472246,19.9728814 192.786864,19.6665254 193.163263,19.4427966 C194.211992,20.4177966 195.308898,21.3400424 196.373008,22.2997881 C196.474576,22.4625 196.622797,22.2959746 196.725636,22.2298729 C198.642585,20.7527542 200.564619,19.2845339 202.48411,17.8125 C202.25911,17.4184322 202.003729,17.8004237 201.778602,17.9618644 C200.877331,18.6954661 199.977966,19.428178 199.07428,20.157839 C198.15,19.3150424 197.257627,18.4411017 196.315678,17.6185169 C196.301314,17.3539059 196.300296,17.088739 196.312627,16.8240254 C198.111356,15.5210593 199.889237,14.1875847 201.673856,12.8644068 C200.814407,11.2614407 199.951907,9.66165254 199.077458,8.06885593 L199.077458,8.06885593 Z M196.302966,10.0105932 C197.275424,11.4483051 198.129788,12.9673729 199.0425,14.4470339 C198.117076,15.0814831 197.217076,15.7525424 196.296737,16.3919492 C196.311864,14.2652542 196.298008,12.1372881 196.302966,10.0105932 L196.302966,10.0105932 Z M124.894068,8.28050847 C125.621314,8.94279661 126.232627,9.72330508 126.907754,10.4389831 C127.6425,9.73474576 128.36072,9.01016949 129.070042,8.27923729 C129.586144,8.60974576 130.123856,9.07372881 130.786144,8.94025424 C131.252669,8.90847458 131.495466,8.45084746 131.892076,8.26398305 C131.893347,9.23644068 131.669619,10.2584746 131.026271,11.0135593 C130.288983,11.8957627 128.894492,12.1538136 127.908178,11.5487288 C127.529364,11.3644068 127.277542,11.0110169 126.92428,10.7936441 C126.933051,13.4529661 126.929237,16.1110169 126.926822,18.770339 C127.450551,19.1733051 127.975551,19.575 128.514534,19.9588983 C128.906059,19.7021186 129.207203,19.2292373 129.701822,19.1847458 C128.539831,20.290678 127.322161,21.3432203 126.11072,22.3970339 C125.200551,21.5389831 124.270042,20.7025424 123.369915,19.8344492 C123.019068,20.1495763 122.694915,20.4929237 122.36072,20.8247034 C122.307331,20.7624153 122.200551,20.6389831 122.147161,20.576822 C122.588263,20.0861441 123.080212,19.6437712 123.531483,19.1619915 C123.514958,16.8865678 123.540381,14.6111441 123.520042,12.3369915 C123.278517,11.7624153 122.859025,11.2641102 122.555212,10.7149576 C122.139407,10.9602966 121.836992,11.4713136 121.319619,11.4891102 C122.495466,10.4021186 123.724703,9.37372881 124.894068,8.28050847 L124.894068,8.28050847 Z M172.063983,11.1254237 C173.145763,10.1783898 174.204661,9.20720339 175.292797,8.26779661 C176.073305,9.12838983 176.880508,9.96483051 177.647034,10.8381356 C178.796186,10.0080508 179.899703,9.11567797 181.037288,8.26779661 C181.834449,9.1220339 182.616102,9.99025424 183.420763,10.8381356 C184.548305,9.98389831 185.661992,9.11186441 186.797161,8.2690678 C187.572585,9.13347458 188.372161,9.97627119 189.15661,10.8330508 C189.636992,10.5266949 190.07822,10.159322 190.567627,9.86567797 C190.604492,10.1504237 190.345169,10.2800847 190.164661,10.4377119 C189.902669,10.6487288 189.648432,10.8699153 189.386695,11.079661 C189.364958,13.4466102 189.39178,15.8135593 189.372712,18.1803814 C189.823916,18.6485985 190.284172,19.1080072 190.75322,19.5583475 C191.001102,19.3004237 191.255339,19.0473305 191.496864,18.7829237 C191.569322,18.8286864 191.715508,18.9189407 191.787966,18.9647034 C190.601949,20.1329237 189.379195,21.265678 188.161398,22.4007203 C187.303347,21.3875847 186.403347,20.4075 185.565508,19.3765678 C185.769025,19.1897034 185.967203,18.9952119 186.162966,18.7995763 C186.165508,16.7579237 186.162966,14.7163983 186.162966,12.6761441 C185.514661,11.9529661 184.868898,11.2269915 184.200381,10.5228814 C184.007034,10.7199153 183.813814,10.915678 183.623136,11.1138559 C183.620593,13.6663983 183.633305,16.2189407 183.61678,18.7714831 C183.93839,19.1325 184.300678,19.4553814 184.627373,19.8151271 C183.748983,20.5943644 182.902373,21.4104661 182.029195,22.1973305 C181.213395,21.3393493 180.410341,20.4693387 179.620297,19.5875847 C179.845297,19.3104661 180.296441,19.1096186 180.225381,18.6875847 C180.215212,16.6969068 180.235551,14.7049576 180.215212,12.715678 C179.671144,11.9580508 179.060975,11.2245763 178.430466,10.5330508 C178.246271,10.7288136 178.05928,10.9207627 177.871144,11.1127119 C177.876356,13.5851695 177.857288,16.0588983 177.880042,18.5313559 C178.146992,18.9863136 178.544873,19.3588983 178.876653,19.7693644 C178.023686,20.665678 177.142754,21.5363136 176.254195,22.3969068 C175.405042,21.3851695 174.525381,20.4 173.669873,19.3944915 C173.936949,19.187161 174.206314,18.9826271 174.474534,18.7754237 C174.466907,16.6867373 174.45928,14.5970339 174.478347,12.5084746 C173.977627,11.8881356 173.428347,11.3084746 172.902076,10.7097458 C172.528475,10.9868644 172.199237,11.3351695 171.771992,11.5309322 C171.751271,11.3364407 171.94322,11.2436441 172.063983,11.1254237 L172.063983,11.1254237 Z" id="Shape"></path>
                <path d="M164.539958,11.2894068 C165.658602,10.2648305 166.816653,9.27966102 167.946737,8.26652542 C168.751398,9.18177966 169.533051,10.1173729 170.334025,11.0364407 C170.749703,10.7110169 171.122034,10.3245763 171.582203,10.0563559 C171.547881,10.2025424 171.508602,10.3538136 171.372585,10.4364407 C171.027966,10.7224576 170.686144,11.0097458 170.338983,11.2881356 C170.344195,13.6588983 170.328814,16.0283898 170.346737,18.3991525 C170.799407,18.9101695 171.267076,19.4110169 171.689237,19.9498729 C172.041356,19.7351695 172.335,19.4413983 172.670593,19.2025424 C172.74178,19.2405508 172.885297,19.315678 172.95661,19.3525424 C171.839237,20.4 170.679915,21.4042373 169.515508,22.3969068 C168.741356,21.4665254 167.946864,20.5511441 167.155042,19.6347458 C166.810424,19.9474576 166.523136,20.3262712 166.14572,20.5983051 C166.092331,20.5487288 165.985551,20.4470339 165.932034,20.3961864 C166.267754,20.0783898 166.58428,19.7402542 166.924958,19.425 C166.951653,17.2716102 166.926229,15.115678 166.937669,12.962161 C166.917331,12.662161 167.014068,12.3075 166.780169,12.0685169 C166.365636,11.5536864 165.98428,11.012161 165.543305,10.5202119 C165.214958,10.7860169 164.90339,11.0745763 164.539958,11.2894068 L164.539958,11.2894068 Z" id="Shape"></path>
            </g>
        </g>
    </g>
</svg>