<?xml version="1.0" encoding="UTF-8"?>
<svg width="244px" height="70px" viewBox="0 0 244 70" version="1.1" xmlns="http://www.w3.org/2000/svg" xmlns:xlink="http://www.w3.org/1999/xlink">
    <!-- Generator: Sketch 45.1 (43504) - http://www.bohemiancoding.com/sketch -->
    <title>shopfiy</title>
    <desc>Created with Sketch.</desc>
    <defs></defs>
    <g id="Page-1" stroke="none" stroke-width="1" fill="none" fill-rule="evenodd">
        <g id="shopfiy" fill-rule="nonzero">
            <g id="shopify">
                <path d="M52.6988636,13.4829545 C52.6590909,13.125 52.3409091,12.9659091 52.1022727,12.9659091 C51.8636364,12.9659091 46.6534091,12.5681818 46.6534091,12.5681818 C46.6534091,12.5681818 43.0340909,8.94886364 42.5965909,8.59090909 C42.1988636,8.19318182 41.4431818,8.3125 41.125,8.39204545 C41.0852273,8.39204545 40.3295455,8.63068182 39.0965909,9.02840909 C37.8636364,5.48863636 35.7556818,2.26704545 31.9772727,2.26704545 L31.6193182,2.26704545 C30.5852273,0.914772727 29.2329545,0.278409091 28.1193182,0.278409091 C19.3693182,0.278409091 15.1534091,11.2159091 13.8409091,16.7840909 C10.4204545,17.8579545 7.99431818,18.5738636 7.71590909,18.6931818 C5.80681818,19.2897727 5.76704545,19.3295455 5.52840909,21.1193182 C5.32954545,22.4715909 0.357954545,60.9318182 0.357954545,60.9318182 L39.0568182,68.1704545 L60.0568182,63.6363636 C60.0965909,63.5568182 52.7386364,13.8409091 52.6988636,13.4829545 Z M36.9488636,9.58522727 C35.9943182,9.86363636 34.8409091,10.2215909 33.6875,10.6193182 L33.6875,9.90340909 C33.6875,7.75568182 33.4090909,6.00568182 32.8920455,4.61363636 C34.8806818,4.85227273 36.1136364,7.03977273 36.9488636,9.58522727 Z M30.4659091,5.05113636 C30.9829545,6.40340909 31.3409091,8.3125 31.3409091,10.9375 L31.3409091,11.3352273 C29.1931818,12.0113636 26.9261364,12.6875 24.5795455,13.4431818 C25.8920455,8.43181818 28.3977273,5.96590909 30.4659091,5.05113636 Z M27.9204545,2.58522727 C28.3181818,2.58522727 28.7159091,2.74431818 29.0340909,2.98295455 C26.2102273,4.29545455 23.2272727,7.59659091 21.9943182,14.2784091 C20.125,14.875 18.3352273,15.3920455 16.625,15.9488636 C18.0568182,10.8579545 21.6363636,2.58522727 27.9204545,2.58522727 L27.9204545,2.58522727 Z" id="Shape" fill="#95BF47"></path>
                <path d="M52.1022727,12.8863636 C51.8636364,12.8863636 46.6534091,12.4886364 46.6534091,12.4886364 C46.6534091,12.4886364 43.0340909,8.86931818 42.5965909,8.51136364 C42.4375,8.35227273 42.2386364,8.27272727 42.0795455,8.27272727 L39.1761364,68.1704545 L60.1761364,63.6363636 C60.1761364,63.6363636 52.8181818,13.8409091 52.7784091,13.4829545 C52.6193182,13.125 52.3409091,12.9659091 52.1022727,12.8863636 L52.1022727,12.8863636 Z" id="Shape" fill="#5E8E3E"></path>
                <path d="M31.9772727,24.5 L29.4318182,32.1761364 C29.4318182,32.1761364 27.125,30.9431818 24.3806818,30.9431818 C20.2840909,30.9431818 20.0852273,33.5284091 20.0852273,34.1647727 C20.0852273,37.6647727 29.2329545,39.0170455 29.2329545,47.25 C29.2329545,53.7329545 25.1363636,57.9090909 19.6079545,57.9090909 C12.9261364,57.9090909 9.58522727,53.7727273 9.58522727,53.7727273 L11.375,47.8863636 C11.375,47.8863636 14.875,50.9090909 17.8181818,50.9090909 C19.7670455,50.9090909 20.5625,49.3977273 20.5625,48.2840909 C20.5625,43.7102273 13.0852273,43.5113636 13.0852273,35.9545455 C13.0852273,29.6306818 17.6193182,23.5056818 26.8068182,23.5056818 C30.2272727,23.4659091 31.9772727,24.5 31.9772727,24.5 L31.9772727,24.5 Z" id="Shape" fill="#FFFFFF"></path>
                <path d="M84.5568182,38.9375 C82.4488636,37.8238636 81.375,36.8295455 81.375,35.5170455 C81.375,33.8465909 82.8863636,32.7727273 85.2329545,32.7727273 C87.9772727,32.7727273 90.4034091,33.8863636 90.4034091,33.8863636 L92.3125,28.0397727 C92.3125,28.0397727 90.5625,26.6875 85.3920455,26.6875 C78.1931818,26.6875 73.1818182,30.8238636 73.1818182,36.6306818 C73.1818182,39.9318182 75.5284091,42.4375 78.6306818,44.2272727 C81.1761364,45.6193182 82.0511364,46.6534091 82.0511364,48.1647727 C82.0511364,49.7159091 80.7784091,50.9886364 78.4318182,50.9886364 C74.9715909,50.9886364 71.6704545,49.1988636 71.6704545,49.1988636 L69.6420455,55.0454545 C69.6420455,55.0454545 72.6647727,57.0738636 77.7556818,57.0738636 C85.1534091,57.0738636 90.5227273,53.4147727 90.5227273,46.8522727 C90.4431818,43.2727273 87.7784091,40.8068182 84.5568182,38.9375 L84.5568182,38.9375 Z M114.068182,26.6079545 C110.409091,26.6079545 107.545455,28.3579545 105.357955,30.9829545 L105.278409,30.9431818 L108.460227,14.3977273 L100.227273,14.3977273 L92.1931818,56.5568182 L100.426136,56.5568182 L103.170455,42.1590909 C104.244318,36.7102273 107.068182,33.3295455 109.693182,33.3295455 C111.5625,33.3295455 112.278409,34.6022727 112.278409,36.3920455 C112.278409,37.5056818 112.198864,38.9375 111.920455,40.0511364 L108.818182,56.5568182 L117.051136,56.5568182 L120.272727,39.5340909 C120.630682,37.7443182 120.869318,35.5965909 120.869318,34.125 C120.829545,29.3920455 118.403409,26.6079545 114.068182,26.6079545 L114.068182,26.6079545 Z M139.482955,26.6079545 C129.539773,26.6079545 122.977273,35.5568182 122.977273,45.5397727 C122.977273,51.9034091 126.914773,57.0738636 134.3125,57.0738636 C144.056818,57.0738636 150.619318,48.3636364 150.619318,38.1420455 C150.659091,32.2159091 147.238636,26.6079545 139.482955,26.6079545 Z M135.426136,50.7897727 C132.602273,50.7897727 131.448864,48.4034091 131.448864,45.3806818 C131.448864,40.6477273 133.875,32.9715909 138.369318,32.9715909 C141.272727,32.9715909 142.267045,35.5170455 142.267045,37.9431818 C142.267045,42.9943182 139.761364,50.7897727 135.426136,50.7897727 Z M171.738636,26.6079545 C166.170455,26.6079545 163.028409,31.5397727 163.028409,31.5397727 L162.948864,31.5397727 L163.426136,27.125 L156.107955,27.125 C155.75,30.1079545 155.073864,34.6818182 154.4375,38.0625 L148.75,68.25 L156.982955,68.25 L159.289773,56.0397727 L159.488636,56.0397727 C159.488636,56.0397727 161.198864,57.1136364 164.301136,57.1136364 C174.005682,57.1136364 180.329545,47.1704545 180.329545,37.1477273 C180.289773,31.5795455 177.784091,26.6079545 171.738636,26.6079545 L171.738636,26.6079545 Z M163.863636,50.8693182 C161.715909,50.8693182 160.443182,49.6363636 160.443182,49.6363636 L161.795455,41.9602273 C162.75,36.7897727 165.454545,33.4090909 168.318182,33.4090909 C170.863636,33.4090909 171.619318,35.7556818 171.619318,37.9431818 C171.659091,43.2727273 168.477273,50.8693182 163.863636,50.8693182 L163.863636,50.8693182 Z M192.0625,14.7954545 C189.4375,14.7954545 187.329545,16.9034091 187.329545,19.5681818 C187.329545,21.9943182 188.880682,23.7045455 191.227273,23.7045455 L191.306818,23.7045455 C193.892045,23.7045455 196.079545,21.9545455 196.119318,18.9318182 C196.159091,16.5056818 194.528409,14.7954545 192.0625,14.7954545 L192.0625,14.7954545 Z M180.528409,56.5170455 L188.761364,56.5170455 L194.329545,27.2443182 L186.056818,27.2443182 L180.528409,56.5170455 Z M215.329545,27.2045455 L209.602273,27.2045455 L209.880682,25.8522727 C210.357955,23.0284091 212.028409,20.5625 214.8125,20.5625 C216.284091,20.5625 217.4375,21 217.4375,21 L219.028409,14.5170455 C219.028409,14.5170455 217.636364,13.8011364 214.534091,13.8011364 C211.630682,13.8011364 208.6875,14.6363636 206.460227,16.5454545 C203.636364,18.9318182 202.323864,22.3920455 201.6875,25.8920455 L201.448864,27.2443182 L197.590909,27.2443182 L196.357955,33.4886364 L200.215909,33.4886364 L195.840909,56.5568182 L204.073864,56.5568182 L208.448864,33.4886364 L214.136364,33.4886364 L215.329545,27.2045455 L215.329545,27.2045455 Z M235.176136,27.2443182 C235.176136,27.2443182 230.005682,40.25 227.738636,47.3693182 L227.659091,47.3693182 C227.5,45.0625 225.630682,27.2443182 225.630682,27.2443182 L216.960227,27.2443182 L221.931818,54.0511364 C222.011364,54.6477273 221.971591,55.0056818 221.732955,55.4034091 C220.778409,57.2727273 219.147727,59.0625 217.238636,60.375 C215.6875,61.4886364 213.9375,62.2443182 212.545455,62.7215909 L214.852273,69.7215909 C216.522727,69.3636364 220.022727,67.9715909 222.926136,65.2272727 C226.664773,61.7272727 230.164773,56.2784091 233.744318,48.8806818 L243.806818,27.2045455 L235.176136,27.2045455 L235.176136,27.2443182 Z" id="Shape" fill="#FFFFFF"></path>
            </g>
        </g>
    </g>
</svg>