<?xml version="1.0" encoding="UTF-8"?>
<svg width="316px" height="72px" viewBox="0 0 316 72" version="1.1" xmlns="http://www.w3.org/2000/svg" xmlns:xlink="http://www.w3.org/1999/xlink">
    <!-- Generator: Sketch 45.1 (43504) - http://www.bohemiancoding.com/sketch -->
    <title>snap</title>
    <desc>Created with Sketch.</desc>
    <defs></defs>
    <g id="Page-1" stroke="none" stroke-width="1" fill="none" fill-rule="evenodd">
        <g id="snap">
            <g id="Group-9" transform="translate(1.000000, 1.000000)" stroke-width="2" stroke="#000000" fill="#FFFFFF" fill-rule="nonzero">
                <g id="brand-logo-yellow">
                    <path d="M38.0293361,69.811361 C37.8373112,69.811361 37.6492456,69.8054384 37.46118,69.7965544 C37.3414119,69.8064255 37.2157049,69.811361 37.0909877,69.811361 C32.692232,69.811361 29.8692682,67.8213529 27.1403372,65.896494 C25.254732,64.5678477 23.4760273,63.3142216 21.3805805,62.9667599 C20.3580974,62.7969774 19.3405635,62.7120862 18.3566834,62.7120862 C16.5849074,62.7120862 15.1862931,62.9845278 14.1657897,63.1839234 C13.546163,63.3043505 13.010671,63.4089839 12.6038553,63.4089839 C12.179223,63.4089839 11.7189572,63.3171829 11.5190137,62.6350919 C11.3448056,62.0448018 11.2190986,61.4722796 11.0983406,60.9194996 C10.7865477,59.4951039 10.5648282,58.6195399 9.96697752,58.5277389 C2.99073317,57.4527792 0.994268241,55.9879122 0.549839508,54.9484883 C0.486491092,54.8004222 0.450857607,54.6513691 0.441949236,54.503303 C0.419183399,54.1045117 0.703261454,53.7511273 1.09918906,53.6869654 C11.8218983,51.9269533 16.6304391,40.9967156 16.8303825,40.5327752 C16.8353316,40.5189557 16.8412705,40.5071104 16.8472094,40.494278 C17.5034594,39.1685931 17.6321359,38.016639 17.2302694,37.0729645 C16.4948339,35.3435528 14.0945228,34.5834803 12.5058633,34.0810427 C12.1168644,33.9586414 11.7486517,33.8421628 11.4586348,33.7276583 C8.28824449,32.4779807 8.02396281,31.1947413 8.14868001,30.5412764 C8.36149109,29.4268324 9.85413815,28.6509662 11.0617173,28.6509662 C11.3933067,28.6509662 11.6843135,28.7092055 11.9287988,28.8227228 C13.355128,29.4890201 14.6409029,29.8275979 15.7495001,29.8275979 C17.28174,29.8275979 17.9508576,29.1849911 18.0320228,29.1000999 C17.9934198,28.3775375 17.9449187,27.6214134 17.8964176,26.8406116 C17.576706,21.7856358 17.1807784,15.5036857 18.7842852,11.9175254 C23.5918361,1.16891539 33.7849922,0.333822724 36.7950318,0.333822724 C36.8722377,0.333822724 38.1154504,0.320003223 38.1154504,0.320003223 L38.2936178,0.319016116 C41.3095963,0.319016116 51.5255182,1.156083 56.3360386,11.9106156 C57.9395454,15.4987502 57.5436178,21.7866229 57.2229164,26.8386374 L57.2100488,27.0577752 C57.1655069,27.7605955 57.1229447,28.4446608 57.0873112,29.0991128 C57.1635273,29.1770943 57.7791947,29.7683715 59.1679108,29.8216753 L59.1698904,29.8216753 C60.2250375,29.7812039 61.4385556,29.4446003 62.7698621,28.8227228 C63.1598508,28.6420822 63.5933915,28.6025979 63.8883576,28.6025979 C64.3397151,28.6025979 64.7960216,28.6904504 65.1751223,28.8474005 L65.198878,28.8572716 C66.275801,29.2382949 66.9805522,29.9904706 66.9963893,30.777195 C67.0102467,31.5175254 66.4430805,32.6319694 63.6616891,33.7276583 C63.3726619,33.8411757 63.0044492,33.9576543 62.6144605,34.0810427 C61.0238214,34.5834803 58.6245001,35.3435528 57.8890646,37.0719774 C57.4871981,38.0156519 57.6158746,39.1656317 58.2721246,40.4932909 C58.2780635,40.5061233 58.2849922,40.5189557 58.2899413,40.5327752 C58.4898848,40.9957284 63.2934764,51.9220177 74.0211348,53.6859782 C74.4170624,53.7501402 74.7001506,54.1035246 74.6783746,54.5023159 C74.6694662,54.6523562 74.6328429,54.8033836 74.5685047,54.9504625 C74.1260556,55.9819895 72.1315703,57.4458695 65.1533463,58.5208292 C64.5842004,58.6076946 64.3624809,59.3490121 64.022973,60.9017317 C63.8992456,61.4673441 63.7735386,62.0230854 63.6013101,62.6074529 C63.4528372,63.1138388 63.1360952,63.3507446 62.6025827,63.3507446 L62.5164685,63.3507446 C62.1462762,63.3507446 61.6206823,63.2846084 60.9545341,63.1543102 C59.77368,62.9243143 58.4493022,62.7120862 56.7636404,62.7120862 C55.7797603,62.7120862 54.7612366,62.7969774 53.7377637,62.9667599 C51.6442965,63.3142216 49.8675714,64.5658735 47.9859255,65.8925455 C45.2500658,67.8213529 42.4280918,69.811361 38.0293361,69.811361" id="Fill-2"></path>
                </g>
            </g>
            <g id="Snap_Inc._logo" transform="translate(96.000000, 10.000000)" fill="#000000">
                <path d="M0.64435372,38.9920408 C0.609790686,35.5258622 0.311067313,31.519019 0.0074063646,28.4552528 C-0.0608210661,27.78391 0.409309852,27.1769743 1.07639166,27.0752002 L1.12576742,27.0677938 C1.77284875,26.9678337 2.39090666,27.3727682 2.55766458,28.0059333 C2.93019481,29.5489399 3.54872318,31.0219043 4.38950542,32.3682821 C5.14989219,33.5631756 7.81124587,37.6885207 13.4005824,37.6885207 C17.4740829,37.6885207 20.4613166,34.8099136 20.4613166,31.1709198 C20.4613166,27.8084303 17.7456496,26.4505968 12.425411,24.4410032 C10.8527929,23.7892431 9.22339272,23.1942651 7.64830584,22.4881917 C5.47577223,21.4537695 0.37031823,19.0664513 0.37031823,12.4402237 C0.37031823,5.06101581 6.29047233,0.715948578 13.8375579,0.715948578 C15.6693987,0.715948578 18.276439,0.972702551 20.888417,2.17253362 C21.4661134,2.43669395 22.1474989,2.23178453 22.4881917,1.69852628 L22.9202297,1.01714074 C23.1467944,0.658076317 23.5376361,0.43579671 23.9620583,0.42463157 C24.6441558,0.408256318 25.2194419,0.929270146 25.270516,1.60964991 C25.5104217,4.70060919 25.8546022,7.782589 26.3024695,10.8503241 C26.4916994,11.3121654 26.3949505,11.8418957 26.0546831,12.2070305 C25.7144157,12.5721653 25.1928133,12.7059768 24.7187934,12.5497386 C24.2447734,12.3935005 23.9049622,11.975765 23.848494,11.4798651 C23.1671085,9.68011853 22.7819775,8.83826176 22.0339347,7.71743191 C20.2440632,5.27580038 17.8542763,3.59455562 14.8695113,3.59455562 C11.0132642,3.59455562 8.73457265,6.73979179 8.73457265,9.29251879 C8.73457265,12.2229704 11.3391442,13.4721772 12.4797244,14.0153106 C14.815198,15.1558908 17.2568295,15.9162775 19.7009298,16.8939177 C23.6090216,18.4146912 28.9835735,20.7501648 28.9835735,27.917057 C28.9835735,34.9728536 23.3374549,40.890539 14.3806913,40.890539 C9.92946614,40.890539 7.02864001,39.4833297 5.34492645,38.4143444 C5.05640442,38.2328901 4.70701599,38.1751316 4.37544652,38.2540767 C4.04387705,38.3330218 3.75800514,38.5420327 3.58221168,38.8340384 L3.10079798,39.6289882 C2.88656223,39.9789163 2.51743407,40.2048007 2.10834512,40.2363101 L2.01699996,40.2437165 C1.66586391,40.2725235 1.31855705,40.1540512 1.058225,39.9166621 C0.797892944,39.679273 0.647972119,39.344338 0.64435372,38.9920408 L0.64435372,38.9920408 Z M30.1759982,38.6809735 C30.1759982,38.1403089 30.5635979,37.6811143 31.0919186,37.5922379 C31.9115563,37.4564546 32.9040091,37.1034179 33.0546052,36.0615892 C33.2175452,34.8099136 33.2175452,31.553582 33.2175452,30.7388819 C33.2175452,28.837915 33.1632319,25.7445234 33.1632319,23.8435564 C33.1632319,21.1180143 32.2497803,20.3699714 30.9660104,20.0070596 C30.4960772,19.869523 30.1738903,19.4375912 30.1759982,18.9479494 L30.1759982,18.8195725 C30.1759982,18.2789078 30.5660667,17.8246508 31.0968562,17.7333056 C33.8001793,17.2592983 37.8884925,16.1039054 40.0338695,15.363269 C40.3130431,15.2665342 40.6193808,15.2860558 40.884017,15.4174454 C41.1486532,15.5488349 41.3493819,15.7810673 41.4410787,16.061936 C41.4855169,16.2051257 41.5274863,16.3409091 41.5645181,16.48163 C41.6590318,16.8115166 41.9016295,17.0786625 42.2209073,17.2044387 C42.5401852,17.3302148 42.8998045,17.3003059 43.1939184,17.123515 C45.2430126,15.933559 47.1859489,15.0497329 50.0472744,15.0497329 C52.1111813,15.0497329 54.1750883,15.5928663 55.8588018,16.785291 C58.502874,18.6220694 58.9447871,21.4266128 59.166978,24.396565 L59.166978,29.163795 C59.166978,29.9784951 59.0608201,34.2124669 59.0608201,35.1382625 C59.0608201,36.5109087 59.4336071,37.3478279 61.2284162,37.6811143 C61.741316,37.786499 62.1070591,38.2413467 62.0998984,38.7649123 C62.1005436,39.0697754 61.9747619,39.3612612 61.752513,39.5699411 C61.5302642,39.7786211 61.2314425,39.8858155 60.927224,39.8659919 C59.3891689,39.7623028 57.0660393,39.6956455 53.2492927,39.6956455 C51.0965094,39.6956455 49.9090223,39.7548964 48.8054739,39.8511791 C48.4969546,39.8788984 48.1909897,39.7756749 47.9623162,39.5667228 C47.7336427,39.3577706 47.6033173,39.0623305 47.6031741,38.7525684 L47.6031741,38.5205023 C47.6031741,38.0242759 47.9364605,37.5848316 48.4178742,37.4589234 C50.005305,37.0293542 50.2028081,36.2714362 50.1559011,32.9657288 L50.0472744,24.4953165 C49.9929611,21.890745 49.8843344,18.9035113 46.3539673,18.9035113 C44.8850383,18.9035113 43.7469269,19.4417071 42.650785,20.2687511 C42.3576953,20.4838995 42.1881123,20.8285954 42.1965279,21.1920779 C42.2829355,23.9126825 42.2829355,31.635052 42.2829355,34.0495269 C42.2829355,36.5405342 42.7149734,37.2293261 44.0407127,37.579894 C44.51472,37.7033334 44.8356625,38.1477153 44.8356625,38.6390041 L44.8356625,38.7821938 C44.8362616,39.0872532 44.710555,39.3789519 44.4883966,39.5880147 C44.2662382,39.7970774 43.967449,39.9048517 43.6629881,39.8857422 C41.8188033,39.7697091 39.4487667,39.6956455 35.0074167,39.6956455 C33.2990152,39.6956455 32.3065624,39.7499588 31.3807668,39.8388352 C31.0712352,39.8681171 30.7637511,39.7651714 30.5342478,39.5554204 C30.3047445,39.3456694 30.1746162,39.0486662 30.1759982,38.7377557 L30.1759982,38.6809735 L30.1759982,38.6809735 Z M77.4681049,29.6402711 C77.4662146,29.2994745 77.3069704,28.9786699 77.0366633,28.7711127 C76.7663562,28.5635555 76.4153147,28.4925335 76.0855835,28.5786922 C74.2537427,29.0428244 71.8219863,30.1118097 71.8219863,32.9657288 C71.8219863,34.432189 72.5823731,36.0591205 74.64628,36.0591205 C75.6979838,36.0591205 76.325056,35.7406468 76.9842225,35.3061401 C77.2879733,35.1015994 77.4695196,34.7588844 77.4681049,34.3926884 L77.4681049,29.6402711 L77.4681049,29.6402711 Z M90.0144866,35.9208683 C90.2568806,36.1153494 90.4060377,36.4030201 90.4253059,36.7131918 C90.4445742,37.0233635 90.3321673,37.3272828 90.1157069,37.5502685 C87.5061978,40.1918719 84.9189077,40.7300677 83.4944169,40.7300677 C82.029118,40.7124391 80.6058867,40.237741 79.4233852,39.3722342 C79.0463153,39.0692883 78.7080111,38.7210339 78.4161196,38.3353432 C78.0705404,37.8772471 77.4282621,37.7669569 76.9496594,38.0835268 C75.4560426,39.0537605 72.3725261,40.7819123 68.9458481,40.7819123 C63.9490208,40.7819123 62.7565961,37.416954 62.7565961,35.4098292 C62.7565961,29.2057644 72.3034,26.611068 76.6262482,25.8358685 C77.1461225,25.7406397 77.524014,25.2880003 77.5248871,24.7594769 C77.5298246,23.0807009 77.5322934,21.1056703 77.3051649,20.4242848 C76.6534048,18.5233179 74.48334,18.5233179 74.2117733,18.5233179 C72.4194331,18.5233179 71.4417929,19.6095847 71.1159129,20.8044782 C70.9529729,21.5105516 70.9529729,22.2709384 70.7900329,22.9770118 C70.3555261,24.8211966 68.8347526,25.52727 67.4793879,25.52727 C65.7956743,25.52727 64.2205875,24.4410032 64.2205875,22.4338784 C64.2205875,18.4146912 71.6590463,15.1558908 78.3914317,15.1558908 C83.0599102,15.1558908 86.4791819,16.6766643 86.4791819,21.1846715 L86.373024,33.2916089 C86.3187106,34.2149357 86.2619285,36.3282184 87.6740754,36.3282184 C88.0246433,36.3282184 88.3554609,36.145528 88.6665282,35.9035868 C89.0664068,35.5988267 89.6225525,35.6059568 90.0144866,35.9208683 L90.0144866,35.9208683 Z" id="Shape"></path>
                <path d="M105.293817,37.0367606 C109.310535,37.0367606 110.774527,31.4449553 110.774527,27.7541169 C110.774527,23.8435564 109.145126,18.6319445 105.130877,18.6319445 C101.491883,18.6319445 101.491883,22.379565 101.491883,23.5176764 C101.491883,24.7668832 101.548665,30.8475086 101.548665,32.2053421 C101.548665,33.943369 101.548665,37.0367606 105.293817,37.0367606 L105.293817,37.0367606 Z M92.5351193,24.1694365 C92.6338709,20.0218723 92.0413617,19.0442322 90.1897705,18.533193 C89.7405228,18.3997974 89.4342072,17.9846592 89.4392589,17.5160523 L89.4392589,17.2444856 C89.4370552,16.7160243 89.8326442,16.2704548 90.3576481,16.2100633 C94.0237986,15.817526 97.9022649,14.8176668 99.8106382,14.2992213 C100.086203,14.223031 100.381042,14.2648669 100.624535,14.4147085 C100.868027,14.5645501 101.038242,14.8089006 101.094408,15.0892335 C101.15119,15.3410499 101.207972,15.6496484 101.277098,16.0372481 C101.334873,16.3780003 101.55825,16.667744 101.87309,16.810313 C102.187929,16.9528819 102.553042,16.9296242 102.847248,16.7482592 C104.977812,15.3830193 107.078751,14.6695395 109.745042,14.6695395 C116.314487,14.6695395 120.385519,20.3156581 120.385519,26.2876568 C120.385519,34.4840336 114.57646,40.1869343 107.79223,40.1869343 C105.711042,40.1869343 104.195206,39.6561449 103.145971,39.0907924 C102.823961,38.9141008 102.432703,38.9200263 102.116191,39.1063883 C101.79968,39.2927503 101.604688,39.632009 101.602978,39.9993064 L101.602978,46.2650909 C101.602978,48.3660296 101.731355,49.9855547 103.977953,50.3657481 C104.464162,50.4622132 104.812091,50.8921904 104.804997,51.3878264 C104.805075,51.6684676 104.691929,51.937272 104.491176,52.1333782 C104.290423,52.3294844 104.019043,52.4363053 103.73848,52.429655 C101.054654,52.3553101 98.3701004,52.3100463 95.6852931,52.2938717 C93.6436052,52.2938717 92.3228035,52.3309035 90.5847767,52.4049671 C90.3008706,52.4184394 90.0237854,52.315334 89.8177454,52.1195494 C89.6117053,51.9237647 89.4945998,51.6522997 89.4935723,51.3680761 L89.4935723,51.2322927 C89.4935723,50.7286599 89.8441402,50.2768717 90.3428354,50.1929329 C92.3623042,49.8473026 92.5351193,48.7363479 92.5351193,47.1884177 C92.5894327,46.1564642 92.5894327,42.9544459 92.5894327,41.7595524 L92.5351193,24.1694365 L92.5351193,24.1694365 Z M148.798802,39.8610543 C146.594175,39.6981143 145.152402,39.6981143 139.377907,39.6981143 C136.217858,39.6981143 134.956307,39.7351461 133.107185,39.8659919 C132.4534,39.8972368 131.888032,39.4146946 131.816181,38.7641199 C131.744331,38.1135451 132.190772,37.5192568 132.835618,37.4070788 C135.879634,36.9799785 136.01048,35.8813677 136.01048,29.000855 L136.01048,11.7366191 C135.956166,7.61127402 135.904322,6.36206719 135.521659,5.60168043 C135.111841,4.63885303 134.467487,4.41172451 132.808461,4.13522024 C132.213237,4.03626366 131.776786,3.52150172 131.776508,2.91810765 C131.776508,2.15772089 132.349267,1.60224354 133.045465,1.62199385 C136.096887,1.70346386 139.150778,1.74543326 142.199732,1.74543326 C145.261029,1.74543326 147.223716,1.67877598 148.907429,1.62199385 C149.587121,1.56609141 150.183438,2.07177262 150.23934,2.75146445 C150.295243,3.43115628 149.789562,4.02747325 149.10987,4.08337568 C145.893039,4.48578816 145.893039,5.4609595 145.893039,12.6599459 L145.947352,29.4896751 C146.055979,35.1925758 146.110292,35.5184558 146.762052,36.3850005 C147.226184,36.9330715 147.954477,37.2219197 149.070369,37.3725158 C149.677251,37.4608271 150.127269,37.9812924 150.12701,38.5945659 C150.134042,38.9434804 149.994222,39.2793097 149.741654,39.5201416 C149.489085,39.7609734 149.146988,39.8846678 148.798802,39.8610543 L148.798802,39.8610543 Z M150.522017,38.6809735 C150.522017,38.1403089 150.909616,37.6811143 151.437937,37.5922379 C152.257575,37.4564546 153.250028,37.1034179 153.400624,36.0615892 C153.563564,34.8099136 153.563564,31.553582 153.563564,30.7388819 C153.563564,28.837915 153.50925,25.7445234 153.50925,23.8435564 C153.50925,21.1180143 152.595799,20.3699714 151.312029,20.0070596 C150.842096,19.869523 150.519909,19.4375912 150.522017,18.9479494 L150.522017,18.8195725 C150.522017,18.2789078 150.909616,17.8246508 151.442875,17.7333056 C154.146198,17.2592983 158.232042,16.1039054 160.379888,15.363269 C160.659062,15.2665342 160.965399,15.2860558 161.230035,15.4174454 C161.494672,15.5488349 161.6954,15.7810673 161.787097,16.061936 C161.831535,16.2051257 161.873505,16.3409091 161.910537,16.48163 C162.00526,16.8107673 162.247435,17.0772682 162.566032,17.2029664 C162.884629,17.3286646 163.24353,17.2993109 163.537468,17.123515 C165.586562,15.933559 167.529498,15.0497329 170.393293,15.0497329 C172.454731,15.0497329 174.518638,15.5928663 176.202351,16.785291 C178.848892,18.6220694 179.293274,21.4266128 179.510528,24.396565 C179.515465,24.4261905 179.515465,24.4558159 179.515465,24.4854414 L179.515465,29.163795 C179.515465,29.9784951 179.406839,34.2124669 179.406839,35.1382625 C179.406839,36.5109087 179.777157,37.3478279 181.574435,37.6811143 C182.087334,37.786499 182.453078,38.2413467 182.445917,38.7649123 C182.446608,39.070234 182.320491,39.362135 182.097689,39.5708953 C181.874887,39.7796556 181.575404,39.88653 181.270774,39.8659919 C179.735187,39.7623028 177.409589,39.6956455 173.595311,39.6956455 C171.440059,39.6956455 170.255041,39.7548964 169.151492,39.8511791 C168.842973,39.8788984 168.537008,39.7756749 168.308335,39.5667228 C168.079661,39.3577706 167.949336,39.0623305 167.949192,38.7525684 L167.949192,38.5205023 C167.949192,38.0242759 168.282479,37.5848316 168.763893,37.4589234 C170.351323,37.0293542 170.548826,36.2714362 170.501919,32.9657288 L170.393293,24.4953165 C170.336511,21.890745 170.230353,18.9035113 166.699986,18.9035113 C165.231057,18.9035113 164.090477,19.4417071 162.994335,20.2687511 C162.702177,20.4844344 162.533558,20.8290424 162.542546,21.1920779 C162.628954,23.9126825 162.628954,31.635052 162.628954,34.0495269 C162.628954,36.5405342 163.058523,37.2293261 164.386731,37.579894 C164.860738,37.7033334 165.181681,38.1477153 165.181681,38.6390041 L165.181681,38.7821938 C165.18228,39.0872532 165.056573,39.3789519 164.834415,39.5880147 C164.612257,39.7970774 164.313467,39.9048517 164.009007,39.8857422 C162.164822,39.7697091 159.794785,39.6956455 155.353435,39.6956455 C153.645034,39.6956455 152.652581,39.7499588 151.726785,39.8388352 C151.417254,39.8681171 151.10977,39.7651714 150.880266,39.5554204 C150.650763,39.3456694 150.520635,39.0486662 150.522017,38.7377557 L150.522017,38.6809735 L150.522017,38.6809735 Z M207.000484,33.9557129 C207.68187,34.4494705 207.775684,35.446861 207.178237,36.0393701 C204.184596,39.0121059 200.14672,40.6956614 195.927969,40.7300677 C188.16363,40.7300677 182.463198,35.353047 182.463198,27.9689015 C182.463198,20.2070314 189.086957,15.2126729 197.177176,15.2126729 C202.497415,15.2126729 207.546086,17.5456777 207.546086,21.4562382 C207.546086,23.300423 205.973468,24.8755099 204.126815,24.8755099 C203.312115,24.8755099 202.334475,24.4953165 201.737028,23.8978698 C201.248208,23.4633631 201.139581,23.1917964 200.107628,20.8587915 C199.618808,19.826838 198.532541,17.9801845 196.851296,17.9801845 C193.701122,17.9801845 192.832109,23.3547364 192.832109,26.0160901 C192.832109,32.1510287 196.308163,36.2763738 200.107628,36.2763738 C202.127096,36.2763738 203.798466,35.3481095 205.282208,34.0445893 C205.763774,33.6169494 206.477367,33.5800394 207.000484,33.9557129 L207.000484,33.9557129 Z M214.498194,30.9561352 C217.159548,30.9561352 219.43577,33.0743555 219.43577,35.8961804 C219.43577,38.6661608 217.159548,40.7843811 214.552507,40.7843811 C211.883855,40.811812 209.696845,38.6734022 209.664307,36.0048071 C209.664307,32.6398488 212.271347,30.9561352 214.498194,30.9561352 L214.498194,30.9561352 Z" id="Shape"></path>
            </g>
        </g>
    </g>
</svg>