<?xml version="1.0" encoding="UTF-8"?>
<svg width="208px" height="30px" viewBox="0 0 208 30" version="1.1" xmlns="http://www.w3.org/2000/svg" xmlns:xlink="http://www.w3.org/1999/xlink">
    <!-- Generator: Sketch 45.1 (43504) - http://www.bohemiancoding.com/sketch -->
    <title>techchrunch</title>
    <desc>Created with Sketch.</desc>
    <defs>
        <polygon id="path-1" points="12.5064854 18.4045208 12.5064854 0.511645678 0.676427488 0.511645678 0.676427488 18.4045208"></polygon>
        <polygon id="path-3" points="0 29.4472333 208.821374 29.4472333 208.821374 0 0 0"></polygon>
    </defs>
    <g id="Page-1" stroke="none" stroke-width="1" fill="none" fill-rule="evenodd">
        <g id="techchrunch">
            <g id="Page-1">
                <polygon id="Fill-1" fill="#000000" points="78.4935634 11.5057702 78.4935634 24.5398518 73.7317004 24.5398518 73.7317004 11.5057702 68.9207587 11.5057702 68.9207587 7.35739123 83.3045052 7.35739123 83.3045052 11.5057702"></polygon>
                <g id="Group-27">
                    <path d="M88.5789954,14.6475446 C87.5728816,14.6475446 87.0084763,15.3346467 86.8612402,16.6106935 L90.5433713,16.6106935 C90.3212901,15.3101074 89.8795816,14.6475446 88.5789954,14.6475446 Z M94.4205903,19.3603289 L86.8612402,19.3603289 C87.0084763,20.7836119 87.8415876,21.4216352 89.0452433,21.4216352 C90.1740539,21.4216352 91.1077766,21.1762416 92.3838234,20.5136789 L94.0758123,23.3369324 C92.4819808,24.2682011 90.8366167,24.809294 88.8243891,24.809294 C84.945943,24.809294 82.8110186,22.0596586 82.8110186,18.1075945 C82.8110186,13.6659702 85.3140335,11.3825826 88.7016922,11.3825826 C92.2353602,11.3825826 94.4451297,13.7150489 94.4451297,18.5002243 C94.4451297,18.8695417 94.4451297,19.1394747 94.4205903,19.3603289 Z" id="Fill-2" fill="#000000"></path>
                    <path d="M102.639927,24.8089259 C98.860865,24.8089259 96.6020168,22.4040686 96.6020168,18.0593747 C96.6020168,14.1073106 98.6154714,11.3834415 102.738084,11.3834415 C105.168708,11.3834415 106.567451,12.5122521 107.696262,14.3281648 L104.653381,16.6348648 C104.039897,15.5060542 103.621501,14.9661882 102.665693,14.9661882 C101.535655,14.9661882 100.97125,16.0949988 100.97125,18.1329928 C100.97125,20.1709867 101.584734,21.2249523 102.787163,21.2249523 C103.621501,21.2249523 104.210446,20.7587044 105.020245,19.5562757 L107.818959,21.7402788 C106.322058,23.9500483 104.922087,24.8089259 102.639927,24.8089259" id="Fill-4" fill="#000000"></path>
                    <path d="M117.707462,24.5393611 L117.707462,17.2241775 C117.707462,15.555501 117.143057,15.1137925 116.235101,15.1137925 C115.301378,15.1137925 114.736973,15.555501 114.736973,17.1750988 L114.736973,24.5393611 L110.319888,24.5393611 L110.319888,8.41331994 L114.736973,6.64648594 L114.736973,12.5113932 C115.546772,11.8979092 116.454728,11.3825826 117.977395,11.3825826 C120.800649,11.3825826 122.150314,13.2721134 122.150314,16.6597722 L122.150314,24.5393611 L117.707462,24.5393611 Z" id="Fill-6" fill="#000000"></path>
                    <path d="M132.725797,24.8089259 C127.620383,24.8089259 124.895287,21.0286374 124.895287,15.9477627 C124.895287,10.4251795 128.135709,7.08782635 132.750336,7.08782635 C136.972333,7.08782635 138.64101,8.90373907 139.818899,12.1441617 L135.499972,13.8373776 C134.885261,12.2423191 134.296316,11.2349784 132.725797,11.2349784 C130.738109,11.2349784 129.879231,13.2238936 129.879231,15.9477627 C129.879231,18.5747013 130.712342,20.660547 132.774876,20.660547 C134.271777,20.660547 134.9098,19.850748 135.842296,18.2311502 L139.867978,20.3660746 C138.714628,22.6249228 136.799331,24.8089259 132.725797,24.8089259" id="Fill-8" fill="#000000"></path>
                    <path d="M150.736093,16.5125361 C150.171687,15.899052 149.534891,15.4328042 148.674786,15.4328042 C147.593828,15.4328042 146.931265,15.9481308 146.931265,17.5186499 L146.931265,24.5393611 L142.51418,24.5393611 L142.51418,11.6525156 L146.931265,11.6525156 L146.931265,12.5850113 C147.693212,11.8488305 148.55209,11.3825826 149.682127,11.3825826 C150.613396,11.3825826 151.252646,11.6034369 151.767973,11.9224486 L150.736093,16.5125361 Z" id="Fill-10" fill="#000000"></path>
                    <path d="M161.239675,24.5393611 L161.239675,23.6792565 C160.453189,24.2927405 159.52192,24.809294 158.025019,24.809294 C155.201766,24.809294 153.852101,22.9197632 153.852101,19.5308775 L153.852101,11.6525156 L158.294952,11.6525156 L158.294952,18.9676991 C158.294952,20.6351487 158.859357,21.0780842 159.767314,21.0780842 C160.67527,21.0780842 161.239675,20.6351487 161.239675,19.0155509 L161.239675,11.6525156 L165.682527,11.6525156 L165.682527,24.5393611 L161.239675,24.5393611 Z" id="Fill-12" fill="#000000"></path>
                    <path d="M176.25801,24.5393611 L176.25801,17.2241775 C176.25801,15.555501 175.693605,15.1137925 174.785648,15.1137925 C173.851925,15.1137925 173.28752,15.555501 173.28752,17.1750988 L173.28752,24.5393611 L168.870435,24.5393611 L168.870435,11.6525156 L173.28752,11.6525156 L173.28752,12.5113932 C174.097319,11.8979092 175.005275,11.3825826 176.527943,11.3825826 C179.351196,11.3825826 180.700861,13.2721134 180.700861,16.6597722 L180.700861,24.5393611 L176.25801,24.5393611 Z" id="Fill-14" fill="#000000"></path>
                    <path d="M189.311355,24.8089259 C185.532293,24.8089259 183.273445,22.4040686 183.273445,18.0593747 C183.273445,14.1073106 185.2869,11.3834415 189.409512,11.3834415 C191.840136,11.3834415 193.23888,12.5122521 194.36769,14.3281648 L191.324809,16.6348648 C190.711325,15.5060542 190.292929,14.9661882 189.337121,14.9661882 C188.207084,14.9661882 187.642678,16.0949988 187.642678,18.1329928 C187.642678,20.1709867 188.256162,21.2249523 189.458591,21.2249523 C190.292929,21.2249523 190.881874,20.7587044 191.691673,19.5562757 L194.490387,21.7402788 C192.993486,23.9500483 191.593515,24.8089259 189.311355,24.8089259" id="Fill-16" fill="#000000"></path>
                    <g id="Group-20" transform="translate(196.314888, 6.134840)">
                        <mask id="mask-2" fill="white">
                            <use xlink:href="#path-1"></use>
                        </mask>
                        <g id="Clip-19"></g>
                        <path d="M8.06400214,18.4045208 L8.06400214,11.0893373 C8.06400214,9.42066071 7.49959683,8.97895221 6.59164047,8.97895221 C5.65791778,8.97895221 5.09351248,9.42066071 5.09351248,11.0402585 L5.09351248,18.4045208 L0.676427488,18.4045208 L0.676427488,2.27847967 L5.09351248,0.511645678 L5.09351248,6.37655297 C5.90331139,5.76306895 6.81126775,5.24774236 8.33393511,5.24774236 C11.1571886,5.24774236 12.5068535,7.13727316 12.5068535,10.524932 L12.5068535,18.4045208 L8.06400214,18.4045208 Z" id="Fill-18" fill="#000000" mask="url(#mask-2)"></path>
                    </g>
                    <polygon id="Fill-21" fill="#000000" points="0 0 0 9.81574442 9.81574442 9.81574442 9.81574442 29.4472333 19.6314888 29.4472333 19.6314888 9.81574442 29.4472333 9.81574442 29.4472333 0"></polygon>
                    <polygon id="Fill-23" fill="#000000" points="39.2629777 19.6314888 39.2629777 9.81574442 29.4472333 9.81574442 29.4472333 29.4472333 58.8944665 29.4472333 58.8944665 19.6314888"></polygon>
                    <mask id="mask-4" fill="white">
                        <use xlink:href="#path-3"></use>
                    </mask>
                    <g id="Clip-26"></g>
                    <polygon id="Fill-25" fill="#000000" mask="url(#mask-4)" points="39.2629777 9.81574442 58.8944665 9.81574442 58.8944665 0 39.2629777 0"></polygon>
                </g>
            </g>
        </g>
    </g>
</svg>