<?xml version="1.0" encoding="UTF-8"?>
<svg width="86px" height="70px" viewBox="0 0 86 70" version="1.1" xmlns="http://www.w3.org/2000/svg" xmlns:xlink="http://www.w3.org/1999/xlink">
    <!-- Generator: Sketch 45.1 (43504) - http://www.bohemiancoding.com/sketch -->
    <title>twitter</title>
    <desc>Created with Sketch.</desc>
    <defs></defs>
    <g id="Page-1" stroke="none" stroke-width="1" fill="none" fill-rule="evenodd">
        <g id="twitter" fill="#FFFFFF">
            <path d="M86.1376655,8.28703868 C82.9119979,9.71524447 79.4908248,10.6528719 75.9877243,11.068793 C79.631152,8.87943915 82.4337887,5.41955665 83.7526766,1.2908881 C80.2838772,3.34931048 76.4886944,4.79954611 72.531139,5.57892227 C69.1910618,2.01195253 64.5201616,-0.00845563028 59.6335148,2.66008086e-05 C49.8781409,2.66008086e-05 41.9604174,7.91005657 41.9604174,17.6676286 C41.9604174,19.0541095 42.1164858,20.40542 42.4220282,21.695732 C27.7329146,20.9577043 14.7143923,13.9263834 5.99654349,3.23459909 C4.47432708,5.84105123 3.60605924,8.87943915 3.60605924,12.1184079 C3.60605924,18.2457411 6.7246795,23.65483 11.4655318,26.8240076 C8.65864234,26.7379787 5.91331836,25.9800371 3.4598825,24.6137714 L3.4598825,24.8390814 C3.4598825,33.3975645 9.55204536,40.5393423 17.6324317,42.1659707 C15.0300246,42.8706093 12.3014152,42.9739657 9.65316009,42.4682158 C11.902963,49.4890956 18.4314579,54.5964888 26.1612399,54.7448637 C20.114139,59.4763739 12.4953634,62.3064875 4.21384673,62.3064875 C2.80565283,62.3048762 1.39871607,62.2223095 0,62.059196 C7.81990596,67.0709699 17.1109214,70 27.0899567,70 C59.5950472,70 77.3670612,43.070508 77.3670612,19.7174002 C77.3670612,18.9535443 77.3670612,18.1896884 77.3121075,17.4313279 C80.7702391,14.9293597 83.7566177,11.8332014 86.1321701,8.28703868 L86.1376655,8.28703868 Z" id="Shape"></path>
        </g>
    </g>
</svg>