<?xml version="1.0" encoding="UTF-8"?>
<svg width="118px" height="30px" viewBox="0 0 118 30" version="1.1" xmlns="http://www.w3.org/2000/svg" xmlns:xlink="http://www.w3.org/1999/xlink">
    <!-- Generator: Sketch 45.1 (43504) - http://www.bohemiancoding.com/sketch -->
    <title>vogue</title>
    <desc>Created with Sketch.</desc>
    <defs></defs>
    <g id="Page-1" stroke="none" stroke-width="1" fill="none" fill-rule="evenodd">
        <g id="vogue" fill-rule="nonzero">
            <g transform="translate(-2.000000, -46.095428)" id="Shape">
                <polygon fill="#FFFFFF" points="0 0 122.036376 0 122.036376 122.036376 0 122.036376"></polygon>
                <path d="M36.6205362,76.4091712 C33.1548743,76.4091712 29.8398934,74.468046 27.6936395,71.8165677 C25.247923,68.8029487 24.0564039,64.908036 24.0564039,61.056175 C24.0564039,57.354995 25.1510567,53.631656 27.4144366,50.6813483 C29.6461608,47.7848552 33.0041934,45.7139418 36.7382953,45.7139418 C40.1716684,45.7139418 43.4651235,47.677859 45.5790886,50.2951492 C48.0146753,53.3100345 49.2270872,57.215077 49.2270872,61.067571 C49.2270872,64.757355 48.1216714,68.480694 45.8684214,71.4310017 C43.6588562,74.3053359 40.3217163,76.4091712 36.6205362,76.4091712 L36.6205362,76.4091712 Z M1.79424293,46.347055 L12.2336472,46.347055 L12.2336472,46.6465176 L9.66953857,46.6465176 L17.4587308,67.9754696 L24.0355112,46.6465176 L21.4498767,46.6465176 L21.4498767,46.347055 L27.0826852,46.347055 L27.0826852,46.6465176 L24.593284,46.6465176 L15.323873,76.1293351 L4.5413213,46.6465176 L1.79424293,46.6465176 L1.79424293,46.347055 Z M72.0799428,45.8317008 L72.0799428,56.0780056 L71.8437916,56.0780056 C71.4037779,54.0609068 70.7814275,52.0976226 69.6981708,50.316675 C68.4110516,48.2349987 66.361664,45.8969115 63.6899261,45.8969115 C57.5531594,45.8969115 56.9953867,56.8940885 56.9953867,61.0890969 C56.9953867,64.8447247 57.2954823,68.7174784 58.657942,72.2363218 C59.6126768,74.7041972 60.9966624,75.9159759 63.5614041,75.9159759 C65.5993956,75.9159759 67.7671754,74.8859007 68.8504321,73.115083 C69.1296351,72.6535434 69.1511609,72.1394554 69.1511609,71.6139715 L69.1511609,63.694991 L66.4692932,63.694991 L66.4692932,63.3847655 L76.2863472,63.3847655 L76.2863472,63.694991 L73.9900455,63.694991 L73.9900455,75.5399067 L73.7874492,75.5399067 C73.2075175,74.574409 72.2952013,73.9412957 71.1264743,73.9412957 C70.2781025,73.9412957 69.4518897,74.2420245 68.7130466,74.6497495 L68.0476446,75.0144227 C66.5452668,75.6798247 65.1068335,76.1616239 63.4442782,76.1616239 C55.8272927,76.1616239 51.7715693,68.0400472 51.7715693,61.3030892 C51.7715693,56.3781012 53.6493832,51.1099659 57.6405291,48.0311362 C59.4322395,46.6465176 61.5993862,45.6278384 63.9058177,45.6278384 C64.807371,45.6278384 65.6975282,45.9064082 66.5345039,46.2394258 L67.1467244,46.475577 C67.8444152,46.7332541 68.6060504,46.9795351 69.3562896,46.9795351 C70.2901317,46.9795351 71.1271074,46.3679477 71.8456909,45.8317008 L72.0799428,45.8317008 L72.0799428,45.8317008 Z M75.0093578,46.347055 L85.4804177,46.347055 L85.4804177,46.6471507 L82.7016837,46.6471507 L82.7016837,69.3822473 C82.7016837,72.9435093 86.3705749,75.111289 89.5779266,75.111289 C93.0328256,75.111289 95.9400816,72.7086243 95.9400816,69.1783848 L95.9400816,46.6465176 L92.6580226,46.6465176 L92.6580226,46.3464219 L119.684361,46.3464219 L119.684361,56.8928223 L119.480498,56.8928223 C119.169007,54.1033254 118.632127,51.2384879 116.711894,49.0605784 C114.770769,46.861143 112.130687,46.6465176 109.41653,46.6465176 L106.488381,46.6465176 L106.488381,60.2084364 C107.08794,60.2723808 107.70016,60.3154325 108.312381,60.3154325 C111.992035,60.3154325 112.94677,57.7836126 113.10758,54.6503352 L113.37602,54.6503352 L113.37602,66.5484324 L113.10758,66.5484324 C112.646041,63.7057539 111.39121,60.6585799 108.05407,60.6585799 C107.528586,60.6585799 107.013865,60.6908687 106.488381,60.7339204 L106.488381,75.2391779 L110.875856,75.2391779 C113.151265,75.2391779 115.414012,74.2521543 117.024019,72.6649394 C118.396608,71.3132427 119.352609,69.553821 119.684994,67.6544812 C119.866697,66.5921172 119.953434,65.5088604 120.006615,64.4357335 L120.242767,64.4357335 L120.242767,75.5399067 L99.117677,75.5399067 L99.117677,75.2391779 L101.574789,75.2391779 L101.574789,46.6465176 L96.3813616,46.6465176 L96.3813616,69.2638551 C96.3813616,73.9406626 91.939439,76.011576 87.7773526,76.011576 C83.0676231,76.011576 77.8735621,73.7266703 77.8735621,68.3401429 L77.8735621,46.6465176 L75.0099909,46.6465176 L75.0099909,46.347055 L75.0093578,46.347055 L75.0093578,46.347055 Z" fill="#000000"></path>
                <path d="M43.9266631,61.056175 C43.9266631,56.7965891 42.4033926,46.1533224 36.6420621,46.1533224 C30.8592057,46.1533224 29.356828,56.7858262 29.356828,61.056175 C29.356828,65.3258907 30.8699687,75.9691575 36.6420621,75.9691575 C42.4033926,75.9685243 43.9266631,65.3157609 43.9266631,61.056175 L43.9266631,61.056175 Z" fill="#FFFFFF"></path>
            </g>
        </g>
    </g>
</svg>