<?xml version="1.0" encoding="UTF-8"?>
<svg width="208px" height="30px" viewBox="0 0 208 30" version="1.1" xmlns="http://www.w3.org/2000/svg" xmlns:xlink="http://www.w3.org/1999/xlink">
    <!-- Generator: Sketch 45.1 (43504) - http://www.bohemiancoding.com/sketch -->
    <title>wwdc</title>
    <desc>Created with Sketch.</desc>
    <defs></defs>
    <g id="Page-1" stroke="none" stroke-width="1" fill="none" fill-rule="evenodd">
        <g id="wwdc" fill="#000000">
            <path d="M20.4010744,15.9380571 C20.4432315,20.4780068 24.3838094,21.9887877 24.4274656,22.0080709 C24.3941462,22.1146195 23.797827,24.1610815 22.351382,26.2749307 C21.100994,28.1024604 19.803256,29.9232955 17.7589354,29.9610065 C15.7501858,29.9980196 15.1042608,28.7698129 12.8076914,28.7698129 C10.5118157,28.7698129 9.79416362,29.9232924 7.89265848,29.9980196 C5.91937041,30.0726921 4.41673226,28.0217883 3.15595298,26.2009533 C0.579703184,22.4763737 -1.38908471,15.6761665 1.25449979,11.0859158 C2.56777617,8.80637858 4.91470033,7.36288047 7.46207668,7.32586465 C9.39979512,7.28890246 11.228771,8.62949699 12.4133229,8.62949699 C13.5971236,8.62949699 15.8197186,7.01731459 18.1562508,7.25408395 C19.1344029,7.29479558 21.8800921,7.64920206 23.6431746,10.2298971 C23.5011136,10.3179642 20.3670054,12.1424929 20.4010744,15.9380614 M16.6258619,4.78994961 C17.6734938,3.5218329 18.3786104,1.75649717 18.186247,0 C16.6761644,0.0606917774 14.8501352,1.00627713 13.7669865,2.27369615 C12.7962773,3.39605473 11.9461543,5.19246121 12.1755322,6.9141935 C13.8586966,7.04441766 15.5781785,6.05887275 16.6258619,4.78995167" id="Shape"></path>
            <path d="M59,10.015625 L59.3125,10.015625 L64.625,29 L70.171875,29 L77.6523438,0.81640625 L71.5390625,0.81640625 L67.203125,20.953125 L66.890625,20.953125 L61.65625,0.81640625 L56.6757812,0.81640625 L51.5390625,20.953125 L51.2265625,20.953125 L46.8320312,0.81640625 L40.6796875,0.81640625 L48.1601562,29 L53.7265625,29 L54.1074219,27.6328125 C54.3613294,26.7213496 54.6901021,25.542976 55.09375,24.0976562 C55.4973979,22.6523365 55.9238259,21.1224039 56.3730469,19.5078125 C56.8222679,17.8932211 57.2454407,16.3665437 57.6425781,14.9277344 C58.0397155,13.4889251 58.3652331,12.3105515 58.6191406,11.3925781 L59,10.015625 Z M96.2282364,10.015625 L96.5407364,10.015625 L101.853236,29 L107.400111,29 L114.88058,0.81640625 L108.767299,0.81640625 L104.431361,20.953125 L104.118861,20.953125 L98.8844864,0.81640625 L93.9040177,0.81640625 L88.7672989,20.953125 L88.4547989,20.953125 L84.0602677,0.81640625 L77.9079239,0.81640625 L85.3883927,29 L90.9547989,29 L91.3356583,27.6328125 C91.5895658,26.7213496 91.9183386,25.542976 92.3219864,24.0976562 C92.7256343,22.6523365 93.1520623,21.1224039 93.6012833,19.5078125 C94.0505043,17.8932211 94.4736772,16.3665437 94.8708146,14.9277344 C95.267952,13.4889251 95.5934695,12.3105515 95.8473771,11.3925781 L96.2282364,10.015625 Z M116.85491,0.796875 L127.94866,0.796875 C132.14139,0.796875 135.39331,2.01105557 137.70452,4.43945312 C140.015729,6.86785068 141.171317,10.2955508 141.171317,14.7226562 C141.171317,19.2929916 140.02224,22.8150918 137.724051,25.2890625 C135.425862,27.7630332 132.167431,29 127.94866,29 L116.85491,29 L116.85491,0.796875 Z M122.753348,5.6796875 L122.753348,24.1367188 L127.01116,24.1367188 C129.61534,24.1367188 131.620528,23.3359455 133.026785,21.734375 C134.433042,20.1328045 135.13616,17.82814 135.13616,14.8203125 C135.13616,11.9166521 134.420022,9.66732568 132.987723,8.07226562 C131.555424,6.47720557 129.563256,5.6796875 127.01116,5.6796875 L122.753348,5.6796875 Z M155.567522,29.7226562 C158.965976,29.7226562 161.797979,28.7851656 164.063616,26.9101562 C166.329252,25.0351469 167.579239,22.593765 167.813616,19.5859375 L162.071428,19.5859375 C161.784968,21.1354244 161.055809,22.3723912 159.883928,23.296875 C158.712047,24.2213588 157.27977,24.6835938 155.587053,24.6835938 C153.360479,24.6835938 151.602685,23.8079515 150.313616,22.0566406 C149.024547,20.3053298 148.380022,17.9192859 148.380022,14.8984375 C148.380022,11.8775891 149.021291,9.49480039 150.30385,7.75 C151.586408,6.00519961 153.340948,5.1328125 155.567522,5.1328125 C157.247218,5.1328125 158.67624,5.62434404 159.854631,6.60742188 C161.033022,7.59049971 161.765437,8.90233555 162.051897,10.5429688 L167.794084,10.5429688 C167.58575,7.50909941 166.332507,5.00912441 164.034319,3.04296875 C161.73613,1.07681309 158.913893,0.09375 155.567522,0.09375 C151.47896,0.09375 148.253081,1.41535137 145.889787,4.05859375 C143.526494,6.70183613 142.344866,10.3150813 142.344866,14.8984375 C142.344866,19.4948146 143.526494,23.1145701 145.889787,25.7578125 C148.253081,28.4010549 151.47896,29.7226562 155.567522,29.7226562 Z M176.350446,29 L182.248883,29 L182.248883,0.81640625 L176.350446,0.81640625 L175.256696,1.578125 C174.527525,2.08594004 173.68118,2.67512686 172.717633,3.34570312 C171.754087,4.01627939 170.904486,4.60546621 170.168805,5.11328125 L169.065289,5.875 L169.065289,11.2070312 L170.110211,10.484375 C170.806829,10.0026018 171.614113,9.44271152 172.532086,8.8046875 C173.45006,8.16666348 174.257343,7.60677324 174.953961,7.125 L175.998883,6.40234375 L176.350446,6.40234375 L176.350446,29 Z M188.148995,29 L194.340401,29 L206.117745,5.5625 L206.117745,0.796875 L185.941963,0.796875 L185.941963,5.5234375 L200.180245,5.5234375 L200.180245,5.85546875 L199.311104,7.52539062 C198.731674,8.63867744 197.986239,10.07421 197.074776,11.8320312 C196.163313,13.5898525 195.193271,15.4550683 194.16462,17.4277344 C193.135969,19.4004005 192.165926,21.2656162 191.254463,23.0234375 C190.343001,24.7812588 189.597565,26.2167913 189.018135,27.3300781 L188.148995,29 Z" id="WWDC17"></path>
        </g>
    </g>
</svg>