<svg width="12" height="5" viewBox="0 0 12 5" fill="none" xmlns="http://www.w3.org/2000/svg">
<path d="M0.280762 1.46582H0.603027C0.60791 1.03369 0.957031 0.713867 1.42334 0.713867C1.86768 0.713867 2.17285 1.02148 2.17285 1.40967C2.17285 1.71973 2.04834 1.92969 1.54297 2.45703L0.297852 3.76562V4H2.59521V3.70215H0.761719V3.69238L1.7041 2.7085C2.33154 2.06152 2.50488 1.77344 2.50488 1.39258C2.50488 0.855469 2.05566 0.420898 1.42334 0.420898C0.771484 0.420898 0.285645 0.862793 0.280762 1.46582ZM4.3042 4.05615C5.10498 4.05615 5.57861 3.34814 5.57861 2.23486C5.57861 1.12891 5.10254 0.420898 4.3042 0.420898C3.5083 0.420898 3.02734 1.13135 3.02734 2.2373C3.02734 3.35059 3.50342 4.05615 4.3042 4.05615ZM4.3042 3.76318C3.7085 3.76318 3.36426 3.16992 3.36426 2.23486C3.36426 1.31689 3.71582 0.716309 4.3042 0.716309C4.89502 0.716309 5.24414 1.31201 5.24414 2.2373C5.24414 3.16992 4.8999 3.76318 4.3042 3.76318ZM6.04248 1.46582H6.36475C6.36963 1.03369 6.71875 0.713867 7.18506 0.713867C7.62939 0.713867 7.93457 1.02148 7.93457 1.40967C7.93457 1.71973 7.81006 1.92969 7.30469 2.45703L6.05957 3.76562V4H8.35693V3.70215H6.52344V3.69238L7.46582 2.7085C8.09326 2.06152 8.2666 1.77344 8.2666 1.39258C8.2666 0.855469 7.81738 0.420898 7.18506 0.420898C6.5332 0.420898 6.04736 0.862793 6.04248 1.46582ZM10.0659 4.05615C10.8667 4.05615 11.3403 3.34814 11.3403 2.23486C11.3403 1.12891 10.8643 0.420898 10.0659 0.420898C9.27002 0.420898 8.78906 1.13135 8.78906 2.2373C8.78906 3.35059 9.26514 4.05615 10.0659 4.05615ZM10.0659 3.76318C9.47021 3.76318 9.12598 3.16992 9.12598 2.23486C9.12598 1.31689 9.47754 0.716309 10.0659 0.716309C10.6567 0.716309 11.0059 1.31201 11.0059 2.2373C11.0059 3.16992 10.6616 3.76318 10.0659 3.76318Z" fill="black"/>
</svg>
