<?xml version="1.0" encoding="utf-8"?>
<!-- Generator: Adobe Illustrator 16.0.4, SVG Export Plug-In . SVG Version: 6.00 Build 0)  -->
<!DOCTYPE svg PUBLIC "-//W3C//DTD SVG 1.1//EN" "http://www.w3.org/Graphics/SVG/1.1/DTD/svg11.dtd">
<svg version="1.1" id="Layer_1" xmlns="http://www.w3.org/2000/svg" xmlns:xlink="http://www.w3.org/1999/xlink" x="0px" y="0px"
	 width="35.447px" height="43.533px" viewBox="0 0 35.447 43.533" enable-background="new 0 0 35.447 43.533" xml:space="preserve">
<g>
	<defs>
		<path id="SVGID_1_" d="M24.126,6.95C25.646,5.11,26.669,2.548,26.39,0c-2.19,0.087-4.841,1.46-6.412,3.299
			c-1.408,1.629-2.643,4.235-2.31,6.734C20.11,10.221,22.605,8.792,24.126,6.95 M29.604,23.127c0.062,6.588,5.78,8.781,5.844,8.809
			c-0.049,0.154-0.914,3.124-3.014,6.191c-1.813,2.652-3.697,5.294-6.663,5.349c-2.915,0.053-3.853-1.729-7.186-1.729
			c-3.331,0-4.373,1.674-7.132,1.782c-2.863,0.108-5.044-2.867-6.874-5.51C0.842,32.615-2.016,22.747,1.82,16.087
			c1.906-3.309,5.312-5.404,9.008-5.457c2.812-0.052,5.466,1.893,7.185,1.893s4.943-2.34,8.334-1.997
			c1.42,0.058,5.404,0.573,7.962,4.318C34.103,14.972,29.555,17.62,29.604,23.127"/>
	</defs>
	<use xlink:href="#SVGID_1_"  overflow="visible" fill-rule="evenodd" clip-rule="evenodd" fill="#FFFFFF"/>
	<clipPath id="SVGID_2_">
		<use xlink:href="#SVGID_1_"  overflow="visible"/>
	</clipPath>
</g>
<rect x="-212.922" y="-513.233" fill="none" width="1440" height="1024"/>
</svg>
