<?xml version="1.0" encoding="UTF-8"?>
<svg width="82px" height="30px" viewBox="0 0 82 30" version="1.1" xmlns="http://www.w3.org/2000/svg" xmlns:xlink="http://www.w3.org/1999/xlink">
    <!-- Generator: Sketch 40.3 (33839) - http://www.bohemiancoding.com/sketch -->
    <title>Combined Shape</title>
    <desc>Created with Sketch.</desc>
    <defs></defs>
    <g id="Welcome" stroke="none" stroke-width="1" fill="none" fill-rule="evenodd">
        <g id="new-home-mobile" transform="translate(-30.000000, -719.000000)" fill="#000000">
            <path d="M37.7249122,719.995575 C37.7249122,719.730087 37.6254508,719.497789 37.426525,719.298673 C37.2275992,719.099557 36.9955226,719 36.7302883,719 L30.9946239,719 C30.7293895,719 30.4973129,719.099557 30.2983872,719.298673 C30.0994614,719.497789 30,719.730087 30,719.995575 L30,744.05531 C30,744.320798 30.0994614,744.553096 30.2983872,744.752212 C30.4973129,744.951328 30.7293895,745.050885 30.9946239,745.050885 L34.0448038,745.050885 C34.1995238,745.050885 34.3597672,744.995576 34.5255387,744.884956 C34.6913101,744.774336 34.8183997,744.652656 34.9068112,744.519912 L35.8351268,742.827434 C36.122464,743.048674 36.4097969,743.258849 36.6971341,743.457965 C36.9844714,743.657081 37.2939068,743.878317 37.6254498,744.121681 C38.9074159,745.006642 40.531952,745.449115 42.4991068,745.449115 C45.1735533,745.449115 47.3285501,744.486735 48.964162,742.561947 C50.5113625,740.725655 51.2849511,738.280989 51.2849511,735.227876 C51.2849511,732.174763 50.533465,729.730098 49.0304703,727.893805 C48.2568701,726.920349 47.3506663,726.195799 46.3118317,725.720133 C45.2729971,725.244467 44.0684091,725.006637 42.6980316,725.006637 C41.3718598,725.006637 40.0678104,725.294245 38.7858443,725.869469 L38.7858443,725.836283 C38.5869185,725.924779 38.4045726,726.007743 38.2388012,726.085177 C38.0730297,726.162611 37.9017351,726.245575 37.7249122,726.334071 L37.7249122,719.995575 Z M38.4874571,731.212389 C39.0842345,730.880529 39.6920541,730.714602 40.3109343,730.714602 C41.5044889,730.714602 42.4106927,731.134952 43.0295729,731.975664 C43.648453,732.816376 43.9578885,734.033178 43.9578885,735.626106 C43.9578885,736.887174 43.6981837,737.915925 43.1787665,738.712389 C42.6593492,739.508854 41.968645,739.90708 41.1066334,739.90708 C40.3330331,739.90708 39.5925983,739.685843 38.8853067,739.243363 L38.9184608,739.243363 C38.6532265,739.066371 38.4211499,738.905974 38.2222241,738.762168 C38.0232983,738.618362 37.8575293,738.491151 37.7249122,738.380531 L37.7249122,731.610619 C37.7912208,731.566371 37.8906821,731.516593 38.0232993,731.461283 C38.1559165,731.405973 38.3106342,731.323009 38.4874571,731.212389 L38.4874571,731.212389 Z M72.4041316,726.931416 C72.4041316,726.665928 72.3101958,726.43916 72.1223215,726.251106 C71.9344471,726.063052 71.7078962,725.969027 71.4426618,725.969027 L65.7733057,725.969027 C65.5080713,725.969027 65.2759947,726.063052 65.0770689,726.251106 C64.8781432,726.43916 64.7786818,726.665928 64.7786818,726.931416 L64.7786818,738.347345 C64.5576531,738.457965 64.3200509,738.563053 64.065868,738.662611 C63.8116851,738.762169 63.5409291,738.878318 63.2535918,739.011062 L63.286746,739.011062 C62.9331001,739.143806 62.6181391,739.237832 62.3418533,739.293142 C62.0655675,739.348452 61.8390165,739.376106 61.6621936,739.376106 C60.8222848,739.376106 60.4023367,738.646025 60.4023367,737.185841 L60.4023367,726.931416 C60.4023367,726.665928 60.3028753,726.43916 60.1039495,726.251106 C59.9050238,726.063052 59.6729472,725.969027 59.4077128,725.969027 L53.7383567,725.969027 C53.4731223,725.969027 53.2410457,726.063052 53.04212,726.251106 C52.8431942,726.43916 52.7437328,726.665928 52.7437328,726.931416 L52.7437328,738.646018 C52.7437328,740.858418 53.2797192,742.545348 54.3517081,743.706858 C55.423697,744.868369 57.0316562,745.449115 59.1756339,745.449115 C60.4354971,745.449115 61.5793032,745.272126 62.6070863,744.918142 C63.6348695,744.564158 64.6460603,744.066375 65.6406891,743.424779 L66.1711552,744.486726 C66.2153609,744.641594 66.3313992,744.774336 66.5192736,744.884956 C66.7071479,744.995576 66.8894938,745.050885 67.0663167,745.050885 L71.4426618,745.050885 C71.7078962,745.050885 71.9344471,744.956859 72.1223215,744.768805 C72.3101958,744.580751 72.4041316,744.342922 72.4041316,744.05531 L72.4041316,726.931416 Z M89.942666,739.309735 C89.942666,737.84955 89.5006154,736.649341 88.6165009,735.709071 C87.7323863,734.768801 86.4946445,734.000003 84.9032384,733.402655 C83.5328608,732.893803 82.5548238,732.490046 81.9690979,732.191372 C81.383372,731.892698 81.0905135,731.588497 81.0905135,731.278761 C81.0905135,731.123893 81.1899749,730.98562 81.3889006,730.863938 C81.5878264,730.742256 81.8530568,730.681416 82.1845997,730.681416 C83.0687143,730.681416 83.9970206,730.924776 84.9695466,731.411504 C85.4779125,731.654868 85.8812837,731.859512 86.1796723,732.025442 C86.478061,732.191373 86.6714581,732.29646 86.7598696,732.340708 C87.0914126,732.584072 87.4229505,732.622788 87.7544935,732.456858 C88.0860364,732.290928 88.2518054,731.986728 88.2518054,731.544248 L88.2518054,727.628319 C88.2518054,727.451327 88.1965491,727.263275 88.0860348,727.064159 C87.9755205,726.865043 87.8429053,726.743363 87.6881852,726.699115 C87.3787451,726.566371 87.0140534,726.428098 86.594099,726.284292 C86.1741446,726.140486 85.715517,726.013275 85.2182026,725.902655 C84.7208882,725.792035 84.2014787,725.698009 83.6599585,725.620575 C83.1184383,725.543141 82.5824519,725.504425 82.0519832,725.504425 C80.9247372,725.504425 79.8859182,725.631636 78.9354951,725.886062 C77.9850719,726.140488 77.156227,726.522121 76.4489353,727.030973 C75.6311294,727.606198 75.034361,728.292031 74.6586124,729.088496 C74.2828637,729.88496 74.0949922,730.814154 74.0949922,731.876106 C74.0949922,733.955763 74.835427,735.471234 76.3163188,736.422566 C77.6424906,737.263279 78.7255147,737.81637 79.5654235,738.081858 L79.5654235,738.048673 C80.6042581,738.424781 81.4275774,738.734512 82.0354062,738.977876 C82.6432349,739.22124 82.9471447,739.486724 82.9471447,739.774336 C82.9471447,739.951328 82.8255808,740.078539 82.5824493,740.155973 C82.3393178,740.233407 82.0077798,740.272124 81.5878254,740.272124 C80.2837565,740.272124 79.0128609,740.028763 77.7751005,739.542035 C77.1120146,739.298671 76.5705026,739.094027 76.1505482,738.928097 C75.7305938,738.762167 75.4211583,738.634956 75.2222326,738.54646 C74.8464839,738.369468 74.5204715,738.391592 74.2441857,738.612832 C73.9678999,738.834072 73.8518617,739.143803 73.8960674,739.542035 L74.3270711,743.623894 C74.3491739,743.800886 74.4265328,743.966813 74.55915,744.121681 C74.6917671,744.276549 74.8354336,744.376106 74.9901537,744.420354 C75.9847825,744.752214 77.0733322,745.012167 78.2558354,745.200221 C79.4383386,745.388275 80.7037086,745.482301 82.0519832,745.482301 C84.5275039,745.482301 86.4614755,744.951333 87.8539559,743.889381 C89.2464363,742.827428 89.942666,741.300895 89.942666,739.309735 Z M105.399858,725.869469 C105.223035,725.869469 105.040689,725.930309 104.852815,726.051991 C104.66494,726.173673 104.537851,726.323008 104.471542,726.5 L101.255592,734.165929 L97.741254,726.466814 C97.6970483,726.311946 97.58101,726.173673 97.3931357,726.051991 C97.2052613,725.930309 97.0229154,725.869469 96.8460925,725.869469 L90.2815749,725.869469 C89.8616205,725.869469 89.5632363,726.018804 89.3864134,726.317478 C89.2095905,726.616152 89.2206418,726.953538 89.4195675,727.329646 L97.3102503,742.528761 L95.0889237,747.606195 C94.9121008,747.960179 94.923152,748.280972 95.1220778,748.568584 C95.3210036,748.856196 95.6083365,749 95.9840852,749 L101.421362,749 C101.598185,749 101.780531,748.93916 101.968406,748.817478 C102.15628,748.695796 102.283369,748.557523 102.349678,748.402655 L111.665988,727.263274 C111.820708,726.90929 111.809657,726.588497 111.632834,726.300885 C111.456011,726.013273 111.168678,725.869469 110.770827,725.869469 L105.399858,725.869469 Z" id="Combined-Shape"></path>
        </g>
    </g>
</svg>