<?xml version="1.0" encoding="UTF-8"?>
<svg width="82px" height="30px" viewBox="0 0 82 30" version="1.1" xmlns="http://www.w3.org/2000/svg" xmlns:xlink="http://www.w3.org/1999/xlink">
    <!-- Generator: Sketch 40.1 (33804) - http://www.bohemiancoding.com/sketch -->
    <title>Combined Shape</title>
    <desc>Created with Sketch.</desc>
    <defs></defs>
    <g id="Welcome" stroke="none" stroke-width="1" fill="none" fill-rule="evenodd">
        <g id="new-home" transform="translate(-344.000000, -621.000000)" fill="#000000">
            <path d="M351.724912,621.995575 C351.724912,621.730087 351.625451,621.497789 351.426525,621.298673 C351.227599,621.099557 350.995523,621 350.730288,621 L344.994624,621 C344.72939,621 344.497313,621.099557 344.298387,621.298673 C344.099461,621.497789 344,621.730087 344,621.995575 L344,646.05531 C344,646.320798 344.099461,646.553096 344.298387,646.752212 C344.497313,646.951328 344.72939,647.050885 344.994624,647.050885 L348.044804,647.050885 C348.199524,647.050885 348.359767,646.995576 348.525539,646.884956 C348.69131,646.774336 348.8184,646.652656 348.906811,646.519912 L349.835127,644.827434 C350.122464,645.048674 350.409797,645.258849 350.697134,645.457965 C350.984471,645.657081 351.293907,645.878317 351.62545,646.121681 C352.907416,647.006642 354.531952,647.449115 356.499107,647.449115 C359.173553,647.449115 361.32855,646.486735 362.964162,644.561947 C364.511362,642.725655 365.284951,640.280989 365.284951,637.227876 C365.284951,634.174763 364.533465,631.730098 363.03047,629.893805 C362.25687,628.920349 361.350666,628.195799 360.311832,627.720133 C359.272997,627.244467 358.068409,627.006637 356.698032,627.006637 C355.37186,627.006637 354.06781,627.294245 352.785844,627.869469 L352.785844,627.836283 C352.586919,627.924779 352.404573,628.007743 352.238801,628.085177 C352.07303,628.162611 351.901735,628.245575 351.724912,628.334071 L351.724912,621.995575 Z M352.487457,633.212389 C353.084234,632.880529 353.692054,632.714602 354.310934,632.714602 C355.504489,632.714602 356.410693,633.134952 357.029573,633.975664 C357.648453,634.816376 357.957888,636.033178 357.957888,637.626106 C357.957888,638.887174 357.698184,639.915925 357.178766,640.712389 C356.659349,641.508854 355.968645,641.90708 355.106633,641.90708 C354.333033,641.90708 353.592598,641.685843 352.885307,641.243363 L352.918461,641.243363 C352.653226,641.066371 352.42115,640.905974 352.222224,640.762168 C352.023298,640.618362 351.857529,640.491151 351.724912,640.380531 L351.724912,633.610619 C351.791221,633.566371 351.890682,633.516593 352.023299,633.461283 C352.155917,633.405973 352.310634,633.323009 352.487457,633.212389 L352.487457,633.212389 Z M386.404132,628.931416 C386.404132,628.665928 386.310196,628.43916 386.122321,628.251106 C385.934447,628.063052 385.707896,627.969027 385.442662,627.969027 L379.773306,627.969027 C379.508071,627.969027 379.275995,628.063052 379.077069,628.251106 C378.878143,628.43916 378.778682,628.665928 378.778682,628.931416 L378.778682,640.347345 C378.557653,640.457965 378.320051,640.563053 378.065868,640.662611 C377.811685,640.762169 377.540929,640.878318 377.253592,641.011062 L377.286746,641.011062 C376.9331,641.143806 376.618139,641.237832 376.341853,641.293142 C376.065567,641.348452 375.839017,641.376106 375.662194,641.376106 C374.822285,641.376106 374.402337,640.646025 374.402337,639.185841 L374.402337,628.931416 C374.402337,628.665928 374.302875,628.43916 374.10395,628.251106 C373.905024,628.063052 373.672947,627.969027 373.407713,627.969027 L367.738357,627.969027 C367.473122,627.969027 367.241046,628.063052 367.04212,628.251106 C366.843194,628.43916 366.743733,628.665928 366.743733,628.931416 L366.743733,640.646018 C366.743733,642.858418 367.279719,644.545348 368.351708,645.706858 C369.423697,646.868369 371.031656,647.449115 373.175634,647.449115 C374.435497,647.449115 375.579303,647.272126 376.607086,646.918142 C377.634869,646.564158 378.64606,646.066375 379.640689,645.424779 L380.171155,646.486726 C380.215361,646.641594 380.331399,646.774336 380.519274,646.884956 C380.707148,646.995576 380.889494,647.050885 381.066317,647.050885 L385.442662,647.050885 C385.707896,647.050885 385.934447,646.956859 386.122321,646.768805 C386.310196,646.580751 386.404132,646.342922 386.404132,646.05531 L386.404132,628.931416 Z M403.942666,641.309735 C403.942666,639.84955 403.500615,638.649341 402.616501,637.709071 C401.732386,636.768801 400.494645,636.000003 398.903238,635.402655 C397.532861,634.893803 396.554824,634.490046 395.969098,634.191372 C395.383372,633.892698 395.090513,633.588497 395.090513,633.278761 C395.090513,633.123893 395.189975,632.98562 395.388901,632.863938 C395.587826,632.742256 395.853057,632.681416 396.1846,632.681416 C397.068714,632.681416 397.997021,632.924776 398.969547,633.411504 C399.477912,633.654868 399.881284,633.859512 400.179672,634.025442 C400.478061,634.191373 400.671458,634.29646 400.75987,634.340708 C401.091413,634.584072 401.422951,634.622788 401.754493,634.456858 C402.086036,634.290928 402.251805,633.986728 402.251805,633.544248 L402.251805,629.628319 C402.251805,629.451327 402.196549,629.263275 402.086035,629.064159 C401.97552,628.865043 401.842905,628.743363 401.688185,628.699115 C401.378745,628.566371 401.014053,628.428098 400.594099,628.284292 C400.174145,628.140486 399.715517,628.013275 399.218203,627.902655 C398.720888,627.792035 398.201479,627.698009 397.659959,627.620575 C397.118438,627.543141 396.582452,627.504425 396.051983,627.504425 C394.924737,627.504425 393.885918,627.631636 392.935495,627.886062 C391.985072,628.140488 391.156227,628.522121 390.448935,629.030973 C389.631129,629.606198 389.034361,630.292031 388.658612,631.088496 C388.282864,631.88496 388.094992,632.814154 388.094992,633.876106 C388.094992,635.955763 388.835427,637.471234 390.316319,638.422566 C391.642491,639.263279 392.725515,639.81637 393.565424,640.081858 L393.565424,640.048673 C394.604258,640.424781 395.427577,640.734512 396.035406,640.977876 C396.643235,641.22124 396.947145,641.486724 396.947145,641.774336 C396.947145,641.951328 396.825581,642.078539 396.582449,642.155973 C396.339318,642.233407 396.00778,642.272124 395.587825,642.272124 C394.283756,642.272124 393.012861,642.028763 391.775101,641.542035 C391.112015,641.298671 390.570503,641.094027 390.150548,640.928097 C389.730594,640.762167 389.421158,640.634956 389.222233,640.54646 C388.846484,640.369468 388.520472,640.391592 388.244186,640.612832 C387.9679,640.834072 387.851862,641.143803 387.896067,641.542035 L388.327071,645.623894 C388.349174,645.800886 388.426533,645.966813 388.55915,646.121681 C388.691767,646.276549 388.835434,646.376106 388.990154,646.420354 C389.984783,646.752214 391.073332,647.012167 392.255835,647.200221 C393.438339,647.388275 394.703709,647.482301 396.051983,647.482301 C398.527504,647.482301 400.461475,646.951333 401.853956,645.889381 C403.246436,644.827428 403.942666,643.300895 403.942666,641.309735 Z M419.399858,627.869469 C419.223035,627.869469 419.040689,627.930309 418.852815,628.051991 C418.66494,628.173673 418.537851,628.323008 418.471542,628.5 L415.255592,636.165929 L411.741254,628.466814 C411.697048,628.311946 411.58101,628.173673 411.393136,628.051991 C411.205261,627.930309 411.022915,627.869469 410.846093,627.869469 L404.281575,627.869469 C403.861621,627.869469 403.563236,628.018804 403.386413,628.317478 C403.209591,628.616152 403.220642,628.953538 403.419568,629.329646 L411.31025,644.528761 L409.088924,649.606195 C408.912101,649.960179 408.923152,650.280972 409.122078,650.568584 C409.321004,650.856196 409.608336,651 409.984085,651 L415.421362,651 C415.598185,651 415.780531,650.93916 415.968406,650.817478 C416.15628,650.695796 416.283369,650.557523 416.349678,650.402655 L425.665988,629.263274 C425.820708,628.90929 425.809657,628.588497 425.632834,628.300885 C425.456011,628.013273 425.168678,627.869469 424.770827,627.869469 L419.399858,627.869469 Z" id="Combined-Shape"></path>
        </g>
    </g>
</svg>