<svg width="55" height="5" viewBox="0 0 55 5" fill="none" xmlns="http://www.w3.org/2000/svg">
<path d="M2.09717 4.38574C3.17383 4.38574 4.00879 3.56055 4.00879 2.47168C4.00879 1.37793 3.17383 0.557617 2.09717 0.557617C1.02295 0.557617 0.185547 1.37793 0.185547 2.47168C0.185547 3.56055 1.02295 4.38574 2.09717 4.38574ZM2.09717 4.11963C1.17432 4.11963 0.45166 3.41406 0.45166 2.47168C0.45166 1.52441 1.17432 0.82373 2.09717 0.82373C3.02246 0.82373 3.74023 1.52441 3.74023 2.47168C3.74023 3.41406 3.02246 4.11963 2.09717 4.11963ZM2.99072 2.0957C2.92969 1.73438 2.6123 1.4292 2.11914 1.4292C1.54541 1.4292 1.15479 1.82471 1.15479 2.46191C1.15479 3.10889 1.54541 3.50684 2.11914 3.50684C2.6123 3.50684 2.92725 3.23584 2.99072 2.85742H2.72461C2.66357 3.10889 2.44385 3.27002 2.11914 3.27002C1.70898 3.27002 1.42578 2.96484 1.42578 2.46191C1.42578 1.96631 1.70898 1.66846 2.11914 1.66846C2.45117 1.66846 2.66357 1.85889 2.72705 2.0957H2.99072ZM7.89062 4H8.24219L6.92627 0.477051H6.59424L5.27588 4H5.62988L6.02051 2.9209H7.5L7.89062 4ZM6.75293 0.889648H6.76758L7.3999 2.63281H6.12061L6.75293 0.889648ZM10.7275 3.69727H8.9624V0.477051H8.63037V4H10.7275V3.69727ZM13.2959 3.69727H11.5308V0.477051H11.1987V4H13.2959V3.69727ZM15.1245 2.55713H16.0083C16.0254 2.55713 16.0498 2.55713 16.062 2.55713L16.8726 4H17.2632L16.4087 2.50342C16.8799 2.38135 17.1631 2.00537 17.1631 1.50732C17.1631 0.879883 16.7236 0.477051 16.0352 0.477051H14.7925V4H15.1245V2.55713ZM15.1245 0.774902H15.9961C16.5088 0.774902 16.8188 1.05078 16.8188 1.51709C16.8188 1.98828 16.521 2.26172 16.0083 2.26172H15.1245V0.774902ZM18.0396 4V0.477051H17.7075V4H18.0396ZM21.6016 2.56934V2.22998H20.1758V2.52295H21.2695V2.64746C21.2695 3.31152 20.8203 3.74609 20.1392 3.74609C19.3848 3.74609 18.8989 3.14795 18.8989 2.21777C18.8989 1.2998 19.375 0.730957 20.1392 0.730957C20.6763 0.730957 21.0889 1.03369 21.2329 1.53662H21.5796C21.4478 0.862793 20.8789 0.420898 20.1392 0.420898C19.1772 0.420898 18.5571 1.12646 18.5571 2.21777C18.5571 3.32861 19.1846 4.05615 20.1392 4.05615C21.0547 4.05615 21.6016 3.49951 21.6016 2.56934ZM24.8682 4V0.477051H24.5337V2.04443H22.4731V0.477051H22.1411V4H22.4731V2.34717H24.5337V4H24.8682ZM26.7896 4V0.779785H27.9541V0.477051H25.293V0.779785H26.4551V4H26.7896ZM28.1787 3.06006C28.2153 3.65576 28.7305 4.05615 29.4824 4.05615C30.2466 4.05615 30.7495 3.65332 30.7495 3.02832C30.7495 2.54004 30.459 2.26416 29.7339 2.10059L29.3506 2.0127C28.8281 1.89551 28.6108 1.69287 28.6108 1.37305C28.6108 0.972656 28.9893 0.723633 29.4653 0.723633C29.9658 0.723633 30.3149 0.992188 30.3491 1.39502H30.6836C30.6641 0.828613 30.1587 0.420898 29.4727 0.420898C28.7817 0.420898 28.269 0.818848 28.269 1.3877C28.269 1.87354 28.562 2.17383 29.2627 2.33008L29.646 2.41553C30.188 2.54004 30.4077 2.74023 30.4077 3.07227C30.4077 3.47266 30.0293 3.75342 29.4995 3.75342C28.9478 3.75342 28.5547 3.48242 28.5132 3.06006H28.1787ZM32.5952 2.55713H33.479C33.4961 2.55713 33.5205 2.55713 33.5327 2.55713L34.3433 4H34.7339L33.8794 2.50342C34.3506 2.38135 34.6338 2.00537 34.6338 1.50732C34.6338 0.879883 34.1943 0.477051 33.5059 0.477051H32.2632V4H32.5952V2.55713ZM32.5952 0.774902H33.4668C33.9795 0.774902 34.2896 1.05078 34.2896 1.51709C34.2896 1.98828 33.9917 2.26172 33.479 2.26172H32.5952V0.774902ZM37.3047 3.69727H35.5103V2.34473H37.2144V2.04688H35.5103V0.779785H37.3047V0.477051H35.1782V4H37.3047V3.69727ZM37.6465 3.06006C37.6831 3.65576 38.1982 4.05615 38.9502 4.05615C39.7144 4.05615 40.2173 3.65332 40.2173 3.02832C40.2173 2.54004 39.9268 2.26416 39.2017 2.10059L38.8184 2.0127C38.2959 1.89551 38.0786 1.69287 38.0786 1.37305C38.0786 0.972656 38.457 0.723633 38.9331 0.723633C39.4336 0.723633 39.7827 0.992188 39.8169 1.39502H40.1514C40.1318 0.828613 39.6265 0.420898 38.9404 0.420898C38.2495 0.420898 37.7368 0.818848 37.7368 1.3877C37.7368 1.87354 38.0298 2.17383 38.7305 2.33008L39.1138 2.41553C39.6558 2.54004 39.8755 2.74023 39.8755 3.07227C39.8755 3.47266 39.4971 3.75342 38.9673 3.75342C38.4155 3.75342 38.0225 3.48242 37.981 3.06006H37.6465ZM42.832 3.69727H41.0376V2.34473H42.7417V2.04688H41.0376V0.779785H42.832V0.477051H40.7056V4H42.832V3.69727ZM43.7329 2.55713H44.6167C44.6338 2.55713 44.6582 2.55713 44.6704 2.55713L45.481 4H45.8716L45.0171 2.50342C45.4883 2.38135 45.7715 2.00537 45.7715 1.50732C45.7715 0.879883 45.332 0.477051 44.6436 0.477051H43.4009V4H43.7329V2.55713ZM43.7329 0.774902H44.6045C45.1172 0.774902 45.4272 1.05078 45.4272 1.51709C45.4272 1.98828 45.1294 2.26172 44.6167 2.26172H43.7329V0.774902ZM47.6929 4L49.0112 0.477051H48.6597L47.5342 3.58496H47.5195L46.3965 0.477051H46.0425L47.3608 4H47.6929ZM51.5234 3.69727H49.729V2.34473H51.4331V2.04688H49.729V0.779785H51.5234V0.477051H49.397V4H51.5234V3.69727ZM52.0923 0.477051V4H53.2349C54.292 4 54.9048 3.35303 54.9048 2.2373C54.9048 1.12402 54.2896 0.477051 53.2349 0.477051H52.0923ZM52.4268 0.779785H53.2153C54.082 0.779785 54.5654 1.30225 54.5654 2.23975C54.5654 3.1748 54.082 3.69727 53.2153 3.69727H52.4268V0.779785Z" fill="black"/>
</svg>
