<?xml version="1.0" encoding="UTF-8" standalone="no"?>
<svg width="23px" height="15px" viewBox="0 0 23 15" version="1.1" xmlns="http://www.w3.org/2000/svg" xmlns:xlink="http://www.w3.org/1999/xlink">
    <!-- Generator: Sketch 39.1 (31720) - http://www.bohemiancoding.com/sketch -->
    <title>Shape</title>
    <desc>Created with Sketch.</desc>
    <defs></defs>
    <g id="Welcome" stroke="none" stroke-width="1" fill="none" fill-rule="evenodd">
        <g id="new-home" transform="translate(-70.000000, -782.000000)" fill="#4A4A4A">
            <path d="M90.0656737,797 L72.4338418,797 C71.0817075,797 70,795.881818 70,794.545455 L70,784.454545 C70,783.090909 71.1087502,782 72.4338418,782 L90.0656737,782 C91.4178081,782 92.4995156,783.118182 92.4995156,784.454545 L92.4995156,794.545455 C92.5265583,795.881818 91.4178081,797 90.0656737,797 L90.0656737,797 Z M72.4338418,783.172727 C71.730732,783.172727 71.1357929,783.745455 71.1357929,784.481818 L71.1357929,794.572727 C71.1357929,795.281818 71.7036893,795.881818 72.4338418,795.881818 L90.0656737,795.881818 C90.7687836,795.881818 91.3637227,795.309091 91.3637227,794.572727 L91.3637227,784.481818 C91.3637227,783.772727 90.7958263,783.172727 90.0656737,783.172727 L72.4338418,783.172727 L72.4338418,783.172727 Z M82.1962518,790.018182 L89.4977773,785.409091 C89.7682042,785.245455 89.8493323,784.890909 89.6870761,784.618182 L89.6870761,784.618182 C89.52482,784.345455 89.1732651,784.263636 88.9028382,784.427273 L81.4120139,789.145455 L73.6237201,784.454545 C73.3532932,784.290909 73.0017383,784.372727 72.8394821,784.645455 L72.8394821,784.645455 C72.677226,784.918182 72.7583541,785.272727 73.0287809,785.436364 L80.6548187,790.045455 C81.141587,790.318182 81.7365262,790.318182 82.1962518,790.018182 L82.1962518,790.018182 Z" id="Shape"></path>
        </g>
    </g>
</svg>