<?xml version="1.0" encoding="utf-8"?>
<!-- Generator: Adobe Illustrator 16.0.4, SVG Export Plug-In . SVG Version: 6.00 Build 0)  -->
<!DOCTYPE svg PUBLIC "-//W3C//DTD SVG 1.1//EN" "http://www.w3.org/Graphics/SVG/1.1/DTD/svg11.dtd">
<svg version="1.1" id="Layer_1" xmlns="http://www.w3.org/2000/svg" xmlns:xlink="http://www.w3.org/1999/xlink" x="0px" y="0px"
	 width="205.639px" height="40.343px" viewBox="40.72 0 205.639 40.343" enable-background="new 40.72 0 205.639 40.343"
	 xml:space="preserve">
<rect x="-859.7" y="-512.029" fill="none" width="1440" height="1024"/>
<g>
	<g id="_x31_Sl8Za.tif">
		<g>
			<path fill="#000000" d="M125.45,40.342c-2.137-0.751-2.805-2.296-2.791-4.491c0.063-10.524,0.026-21.05,0.03-31.574
				c0.001-2.262,1.177-3.805,3.22-4.177c1.651-0.301,2.911,0.392,3.885,1.693c4.285,5.734,8.567,11.468,12.854,17.202
				c1.934,2.587,3.867,5.173,5.804,7.758c0.192,0.258,0.402,0.504,0.762,0.951c0.025-0.571,0.055-0.914,0.055-1.258
				c0.003-7.593-0.005-15.188,0.007-22.779c0.003-2.584,2.203-4.252,4.483-3.438c1.396,0.5,2.229,1.761,2.229,3.443
				c0.008,6.694,0.004,13.389,0.004,20.082c0,3.799-0.091,7.597,0.03,11.392c0.081,2.526-0.702,4.338-3.19,5.196
				c-0.468,0-0.935,0-1.399,0c-1.426-0.469-2.338-1.514-3.207-2.683c-5.968-8.033-11.971-16.042-17.965-24.056
				c-0.207-0.276-0.436-0.537-0.85-1.044c0,0.646,0,0.996,0,1.348c0,7.316-0.05,14.635,0.029,21.953
				c0.023,2.192-0.661,3.733-2.79,4.482C126.249,40.342,125.849,40.342,125.45,40.342z"/>
			<path fill="#000000" d="M77.085,40.342c-0.947-0.538-1.912-1.04-2.332-2.163c-0.391-1.045-0.198-2.014,0.227-2.996
				c3.821-8.849,7.633-17.703,11.446-26.556c0.764-1.771,1.52-3.545,2.284-5.314c0.892-2.066,2.479-3.236,4.714-3.256
				c2.28-0.02,3.907,1.152,4.813,3.256c4.593,10.653,9.183,21.309,13.762,31.965c0.965,2.25,0.396,3.55-2.139,5.063
				c-0.532,0-1.065,0-1.599,0c-1.523-0.64-2.286-1.887-2.846-3.37c-0.584-1.554-1.313-3.052-1.944-4.587
				c-0.207-0.504-0.488-0.687-1.042-0.685c-5.959,0.018-11.915,0.02-17.873-0.002c-0.595-0.002-0.888,0.195-1.107,0.738
				c-0.661,1.633-1.435,3.22-2.056,4.866c-0.55,1.456-1.387,2.556-2.91,3.039C78.018,40.342,77.552,40.342,77.085,40.342z
				 M93.61,9.504c-0.087-0.009-0.174-0.018-0.261-0.028c-2.236,5.194-4.472,10.39-6.737,15.657c4.629,0,9.105,0,13.724,0
				C98.065,19.858,95.839,14.681,93.61,9.504z"/>
			<path fill="#000000" d="M184.606,40.342c-1.858-0.464-3.805-0.72-5.562-1.431c-7.438-3.014-11.892-8.533-12.789-16.537
				c-1.224-10.871,6.007-20.299,16.843-22.092c5.812-0.961,11.083,0.562,15.715,4.21c1.516,1.193,1.785,3.144,0.713,4.623
				c-1.1,1.517-3.065,1.863-4.673,0.685c-2.05-1.502-4.25-2.555-6.776-2.967c-7.582-1.238-15.126,4.994-15.295,12.677
				c-0.159,7.304,4.705,13.087,11.908,14.003c3.281,0.418,6.345-0.375,9.095-2.258c0.411-0.279,0.805-0.594,1.227-0.857
				c1.586-0.994,3.458-0.653,4.515,0.805c1.031,1.422,0.835,3.336-0.562,4.49c-2.967,2.451-6.369,3.939-10.198,4.425
				c-0.39,0.051-0.771,0.151-1.159,0.227C186.604,40.342,185.605,40.342,184.606,40.342z"/>
			<path fill="#000000" d="M43.51,40.342c-2.134-0.751-2.804-2.296-2.79-4.489c0.063-10.621,0.028-21.241,0.029-31.861
				c0.001-2.664,1.314-3.981,3.984-3.982c6.893-0.002,13.782-0.001,20.675,0c1.407,0,2.531,0.54,3.221,1.8
				c0.631,1.152,0.562,2.312-0.162,3.4c-0.749,1.125-1.861,1.527-3.179,1.524C59.795,6.725,54.302,6.73,48.809,6.73
				c-0.395,0-0.79,0-1.262,0c0,3.875,0,7.685,0,11.665c0.352,0,0.732,0,1.114,0c5.026,0,10.055-0.005,15.082,0.003
				c1.707,0.003,2.963,0.808,3.479,2.184c0.854,2.271-0.784,4.508-3.367,4.526c-3.794,0.029-7.59,0.009-11.386,0.009
				c-1.623,0-3.248,0-4.999,0c0,0.44,0,0.793,0,1.149c0,3.193-0.079,6.395,0.026,9.586c0.072,2.197-0.654,3.737-2.788,4.489
				C44.309,40.342,43.909,40.342,43.51,40.342z"/>
			<path fill="#000000" d="M227.374,40.342c-2.133-0.751-2.857-2.292-2.788-4.489c0.104-3.326,0.054-6.658,0.002-9.984
				c-0.009-0.58-0.215-1.251-0.553-1.719c-4.476-6.167-8.984-12.309-13.493-18.45c-0.655-0.892-1.104-1.831-0.844-2.964
				c0.319-1.391,1.172-2.301,2.572-2.619c1.417-0.321,2.575,0.195,3.423,1.315c1.586,2.096,3.117,4.233,4.674,6.352
				c2.302,3.139,4.604,6.279,6.906,9.417c0.194,0.265,0.402,0.52,0.689,0.888c0.264-0.33,0.492-0.593,0.697-0.874
				c3.799-5.178,7.599-10.354,11.388-15.539c0.828-1.133,1.896-1.812,3.314-1.625c1.396,0.185,2.365,0.992,2.807,2.371
				c0.039,0.123,0.126,0.231,0.189,0.347c0,0.399,0,0.799,0,1.199c-0.533,0.874-1.014,1.789-1.614,2.615
				c-4.25,5.835-8.539,11.643-12.772,17.491c-0.373,0.516-0.599,1.256-0.609,1.896c-0.061,3.294-0.106,6.593-0.001,9.884
				c0.069,2.198-0.655,3.738-2.788,4.487C228.174,40.342,227.774,40.342,227.374,40.342z"/>
		</g>
	</g>
</g>
</svg>
