<?xml version="1.0" encoding="UTF-8"?>
<svg width="149px" height="28px" viewBox="0 0 149 28" version="1.1" xmlns="http://www.w3.org/2000/svg" xmlns:xlink="http://www.w3.org/1999/xlink">
    <!-- Generator: Sketch 40.1 (33804) - http://www.bohemiancoding.com/sketch -->
    <title>GOOD</title>
    <desc>Created with Sketch.</desc>
    <defs></defs>
    <g id="Welcome" stroke="none" stroke-width="1" fill="none" fill-rule="evenodd">
        <g id="new-home" transform="translate(-554.000000, -462.000000)" fill="#000000">
            <path d="M573.860817,489.333333 L578.070473,489.333333 L578.070473,475.70023 L568.183576,475.70023 L568.183576,479.871264 L573.204266,479.871264 C572.8953,482.304368 571.118749,485.007816 567.140817,485.007816 C562.931162,485.007816 559.493921,482.304368 559.493921,475.816092 C559.493921,469.52092 562.931162,466.624368 567.25668,466.624368 C570.539438,466.624368 572.624955,468.632644 573.899438,471.722299 L578.4953,470.525057 C577.104955,465.581609 573.281507,461.989885 567.25668,461.989885 C560.5753,461.989885 554.39599,466.585747 554.39599,475.816092 C554.39599,485.046437 560.343576,489.642299 566.870473,489.642299 C570.346335,489.642299 572.393231,488.02023 573.43599,486.436782 L573.860817,489.333333 Z M608.51645,461.989885 C601.680588,461.989885 595.771622,466.431264 595.771622,475.816092 C595.771622,485.20092 601.680588,489.642299 608.51645,489.642299 C615.352312,489.642299 621.261277,485.20092 621.261277,475.816092 C621.261277,466.431264 615.352312,461.989885 608.51645,461.989885 L608.51645,461.989885 Z M608.51645,466.624368 C612.571622,466.624368 616.163346,469.405057 616.163346,475.816092 C616.163346,482.227126 612.571622,485.007816 608.51645,485.007816 C604.461277,485.007816 600.869553,482.227126 600.869553,475.816092 C600.869553,469.405057 604.461277,466.624368 608.51645,466.624368 L608.51645,466.624368 Z M651.050703,461.989885 C644.21484,461.989885 638.305875,466.431264 638.305875,475.816092 C638.305875,485.20092 644.21484,489.642299 651.050703,489.642299 C657.886565,489.642299 663.79553,485.20092 663.79553,475.816092 C663.79553,466.431264 657.886565,461.989885 651.050703,461.989885 L651.050703,461.989885 Z M651.050703,466.624368 C655.105875,466.624368 658.697599,469.405057 658.697599,475.816092 C658.697599,482.227126 655.105875,485.007816 651.050703,485.007816 C646.99553,485.007816 643.403806,482.227126 643.403806,475.816092 C643.403806,469.405057 646.99553,466.624368 651.050703,466.624368 L651.050703,466.624368 Z M689.645645,489.333333 C696.018059,489.333333 702.23599,485.278161 702.23599,475.816092 C702.23599,466.354023 696.018059,462.298851 689.645645,462.298851 L681.187714,462.298851 L681.187714,489.333333 L689.645645,489.333333 Z M686.208404,484.698851 L686.208404,466.933333 L688.062197,466.933333 C692.387714,466.933333 697.138059,468.632644 697.138059,475.816092 C697.138059,482.99954 692.387714,484.698851 688.062197,484.698851 L686.208404,484.698851 Z" id="GOOD"></path>
        </g>
    </g>
</svg>