<?xml version="1.0" encoding="UTF-8"?>
<svg width="1440px" height="174px" viewBox="0 0 1440 174" version="1.1" xmlns="http://www.w3.org/2000/svg" xmlns:xlink="http://www.w3.org/1999/xlink">
    <!-- Generator: Sketch 45.1 (43504) - http://www.bohemiancoding.com/sketch -->
    <title>FREY LABS</title>
    <desc>Created with Sketch.</desc>
    <defs></defs>
    <g id="Page-1" stroke="none" stroke-width="1" fill="none" fill-rule="evenodd">
        <g id="home-3.0-copy" fill="#000000">
            <path d="M0,0 L0,169.30743 L31.4428084,169.30743 L31.4428084,96.7471026 L92.393483,96.7471026 L92.393483,67.7229718 L31.4428084,67.7229718 L31.4428084,29.0241308 L107.147416,29.0241308 L107.147416,0 L0,0 Z M283.19411,48.1316836 C283.19411,70.3835172 272.068193,87.3142601 251.509434,93.6028218 L298.431779,169.30743 L263.360954,169.30743 L217.889816,96.2633671 L201.442808,96.2633671 L201.442808,169.30743 L170,169.30743 L170,0 L231.676278,0 C265.537764,0 283.19411,20.0750238 283.19411,48.1316836 Z M232.475337,67.2151055 C243.843122,67.2151055 252.308493,61.8940149 252.308493,48.1075528 C252.308493,34.3210906 243.843122,29 232.475337,29 L202,29 L202,67.2151055 L232.475337,67.2151055 Z M356,0 L356,169.30743 L463.147416,169.30743 L463.147416,140.283299 L387.442808,140.283299 L387.442808,93.6028218 L446.216673,93.6028218 L446.216673,64.578691 L387.442808,64.578691 L387.442808,29.0241308 L460.728739,29.0241308 L460.728739,0 L356,0 Z M514,0 L562.857287,97.2308381 L562.857287,169.30743 L594.300095,169.30743 L594.300095,97.2308381 L643.157382,0 L609.295896,0 L578.578691,65.7880298 L547.861486,0 L514,0 Z M796,0 L796,169.30743 L899.277532,169.30743 L899.277532,140.283299 L827.442808,140.283299 L827.442808,0 L796,0 Z M1064.22664,169.30743 L1051.89138,129.39925 L998.196742,129.39925 L985.861486,169.30743 L952,169.30743 L1009.32266,0 L1040.76547,0 L1098.08812,169.30743 L1064.22664,169.30743 Z M1024.89821,42 L1007,100.773865 L1042.79643,100.773865 L1024.89821,42 Z M1155,0 L1216.91815,0 C1245.70041,0 1265.2917,14.9958009 1265.2917,45.713006 C1265.2917,59.4994681 1259.245,71.3509882 1248.60282,76.9139466 C1264.56609,83.444376 1273.99894,96.7471026 1273.99894,118.273333 C1273.99894,151.167348 1252.71457,169.30743 1218.12748,169.30743 L1155,169.30743 L1155,0 Z M1214.05666,29 L1186,29 L1186,65.763899 L1214.78226,65.763899 C1227.35939,65.763899 1234.61542,61.1684116 1234.61542,47.3819495 C1234.61542,33.5954874 1227.35939,29 1214.05666,29 Z M1214.78226,95 L1186,95 L1186,140.471138 L1214.78226,140.471138 C1234.37355,140.471138 1242.11332,132.247635 1242.11332,117.735569 C1242.11332,103.223504 1234.37355,95 1214.78226,95 Z M1433.21247,30.7172051 C1424.0215,11.1259168 1406.84889,0 1384.35519,0 C1357.74973,0 1338.15845,20.3168916 1338.15845,45.9548737 C1338.15845,99.6495157 1409.0257,94.0865573 1409.0257,122.143217 C1409.0257,137.622753 1400.07659,144.153183 1387.01573,144.153183 C1368.63378,144.153183 1358.47534,127.948043 1353.39611,109.807961 L1328,125.771233 C1333.32109,151.651083 1355.57292,173.177314 1386.29013,173.177314 C1418.70041,173.177314 1440.46851,153.586025 1440.46851,120.450143 C1440.46851,70.1416494 1368.15005,74.0115335 1368.15005,44.5036672 C1368.15005,35.5545602 1375.16421,29.0241308 1384.35519,29.0241308 C1394.27177,29.0241308 1401.28593,34.3452214 1407.81636,46.9223448 L1433.21247,30.7172051 Z" id="FREY-LABS"></path>
        </g>
    </g>
</svg>