<?xml version="1.0" encoding="UTF-8" standalone="no"?>
<svg width="193px" height="28px" viewBox="0 0 193 28" version="1.1" xmlns="http://www.w3.org/2000/svg" xmlns:xlink="http://www.w3.org/1999/xlink">
    <!-- Generator: Sketch 41.2 (35397) - http://www.bohemiancoding.com/sketch -->
    <title>Neue Store</title>
    <desc>Created with Sketch.</desc>
    <defs></defs>
    <g id="Page-1" stroke="none" stroke-width="1" fill="none" fill-rule="evenodd">
        <g id="LFC---Home" transform="translate(-165.000000, -32.000000)" fill="#000000">
            <path d="M170.16,33.04 L181.6,51.44 L181.6,33.04 L186.32,33.04 L186.32,59 L181.52,59 L169.72,39.96 L169.72,59 L165,59 L165,33.04 L170.16,33.04 Z M207.708889,44.84 C208.042224,45.9600056 208.208889,46.986662 208.208889,47.92 C208.208889,48.853338 208.155556,49.6933296 208.048889,50.44 L195.488889,50.44 C195.542222,52.0133412 195.928885,53.2933284 196.648889,54.28 C197.368892,55.2666716 198.462215,55.76 199.928889,55.76 C201.875565,55.76 203.035554,54.9066752 203.408889,53.2 L208.168889,53.2 C207.848887,55.1466764 206.955563,56.6799944 205.488889,57.8 C203.968881,58.9733392 202.115566,59.56 199.928889,59.56 C197.368876,59.56 195.222231,58.626676 193.488889,56.76 C191.702213,54.8133236 190.808889,52.3200152 190.808889,49.28 C190.808889,46.1599844 191.702213,43.6533428 193.488889,41.76 C195.195564,39.9466576 197.342209,39.04 199.928889,39.04 C202.622236,39.04 204.715548,39.9866572 206.208889,41.88 C206.875559,42.7333376 207.375554,43.7199944 207.708889,44.84 L207.708889,44.84 Z M199.968889,42.8 C198.635549,42.8 197.595559,43.233329 196.848889,44.1 C196.102218,44.966671 195.662223,46.0799932 195.528889,47.44 L203.808889,47.44 C203.808889,45.3333228 203.142229,43.9200036 201.808889,43.2 C201.30222,42.933332 200.688892,42.8 199.968889,42.8 L199.968889,42.8 Z M225.657778,55.48 C224.431105,58.0666796 222.457791,59.36 219.737778,59.36 C216.29776,59.36 214.031116,58.0133468 212.937778,55.32 C212.537776,54.386662 212.337778,53.25334 212.337778,51.92 L212.337778,39.52 L217.057778,39.52 L217.057778,51.44 C217.057778,52.7200064 217.364441,53.6733302 217.977778,54.3 C218.591114,54.9266698 219.34444,55.24 220.237778,55.24 C221.131115,55.24 221.884441,55.1133346 222.497778,54.86 C223.111114,54.6066654 223.644442,54.2266692 224.097778,53.72 C225.084449,52.5733276 225.604444,51.0400096 225.657778,49.12 L225.657778,39.52 L230.377778,39.52 L230.377778,59 L225.657778,59 L225.657778,55.48 Z M251.766667,44.84 C252.100002,45.9600056 252.266667,46.986662 252.266667,47.92 C252.266667,48.853338 252.213334,49.6933296 252.106667,50.44 L239.546667,50.44 C239.6,52.0133412 239.986663,53.2933284 240.706667,54.28 C241.42667,55.2666716 242.519993,55.76 243.986667,55.76 C245.933343,55.76 247.093331,54.9066752 247.466667,53.2 L252.226667,53.2 C251.906665,55.1466764 251.013341,56.6799944 249.546667,57.8 C248.026659,58.9733392 246.173344,59.56 243.986667,59.56 C241.426654,59.56 239.280009,58.626676 237.546667,56.76 C235.759991,54.8133236 234.866667,52.3200152 234.866667,49.28 C234.866667,46.1599844 235.759991,43.6533428 237.546667,41.76 C239.253342,39.9466576 241.399987,39.04 243.986667,39.04 C246.680013,39.04 248.773326,39.9866572 250.266667,41.88 C250.933337,42.7333376 251.433332,43.7199944 251.766667,44.84 L251.766667,44.84 Z M244.026667,42.8 C242.693327,42.8 241.653337,43.233329 240.906667,44.1 C240.159996,44.966671 239.720001,46.0799932 239.586667,47.44 L247.866667,47.44 C247.866667,45.3333228 247.200007,43.9200036 245.866667,43.2 C245.359997,42.933332 244.74667,42.8 244.026667,42.8 L244.026667,42.8 Z M279.444444,40.2 C279.017775,37.933322 277.417791,36.8 274.644444,36.8 C273.284437,36.8 272.224448,37.0733306 271.464444,37.62 C270.70444,38.1666694 270.324444,38.8266628 270.324444,39.6 C270.324444,40.3733372 270.571108,40.9799978 271.064444,41.42 C271.55778,41.8600022 272.324439,42.2666648 273.364444,42.64 L279.004444,44.84 C280.924454,45.5866704 282.404439,46.526661 283.444444,47.66 C284.484449,48.793339 285.004444,50.2133248 285.004444,51.92 C285.004444,54.2666784 284.124453,56.1266598 282.364444,57.5 C280.604435,58.8733402 278.097794,59.56 274.844444,59.56 C271.96443,59.56 269.63112,58.8533404 267.844444,57.44 C265.844434,55.8933256 264.791111,53.7066808 264.684444,50.88 L269.364444,50.88 C269.364444,53.013344 270.4711,54.3599972 272.684444,54.92 C273.351114,55.1066676 274.231105,55.2 275.324444,55.2 C276.417783,55.2 277.431106,54.9266694 278.364444,54.38 C279.297782,53.8333306 279.764444,53.1000046 279.764444,52.18 C279.764444,51.2599954 279.511113,50.5533358 279.004444,50.06 C278.497775,49.5666642 277.671117,49.1066688 276.524444,48.68 L271.364444,46.64 C269.364434,45.8666628 267.831116,44.9600052 266.764444,43.92 C265.697772,42.8799948 265.164444,41.4400092 265.164444,39.6 C265.164444,37.4399892 266.004436,35.7333396 267.684444,34.48 C269.391119,33.1733268 271.70443,32.52 274.624444,32.52 C277.544459,32.52 279.79777,33.1933266 281.384444,34.54 C282.971119,35.8866734 283.884443,37.7733212 284.124444,40.2 L279.444444,40.2 Z M301.173333,58.52 C299.413324,59.2133368 298.026671,59.56 297.013333,59.56 C295.999995,59.56 295.113337,59.4400012 294.353333,59.2 C293.593329,58.9599988 292.920003,58.6000024 292.333333,58.12 C291.10666,57.0266612 290.493333,55.5200096 290.493333,53.6 L290.493333,42.72 L287.773333,42.72 L287.773333,39.56 L290.493333,39.56 L290.493333,34.44 L295.213333,34.44 L295.213333,39.56 L300.493333,39.56 L300.493333,42.72 L295.213333,42.72 L295.213333,53.44 C295.213333,55.040008 295.973325,55.84 297.493333,55.84 C298.26667,55.84 299.26666,55.6266688 300.493333,55.2 L301.173333,58.52 Z M312.542222,39.04 C313.848895,39.04 315.075549,39.2466646 316.222222,39.66 C317.368894,40.0733354 318.355551,40.7066624 319.182222,41.56 C321.022231,43.426676 321.942222,46.0133168 321.942222,49.32 C321.942222,52.5733496 321.022231,55.133324 319.182222,57 C317.52888,58.7066752 315.315569,59.56 312.542222,59.56 C309.768875,59.56 307.528897,58.7066752 305.822222,57 C303.982213,55.1599908 303.062222,52.6000164 303.062222,49.32 C303.062222,45.98665 303.982213,43.4000092 305.822222,41.56 C307.50223,39.8799916 309.742208,39.04 312.542222,39.04 L312.542222,39.04 Z M316.022222,44.66 C315.222218,43.6333282 314.108896,43.12 312.682222,43.12 C311.255548,43.12 310.088893,43.6333282 309.182222,44.66 C308.275551,45.6866718 307.822222,47.2266564 307.822222,49.28 C307.822222,51.3333436 308.228884,52.8733282 309.042222,53.9 C309.855559,54.9266718 310.968881,55.44 312.382222,55.44 C313.795562,55.44 314.955551,54.9266718 315.862222,53.9 C316.768893,52.8733282 317.222222,51.3333436 317.222222,49.28 C317.222222,47.2266564 316.822226,45.6866718 316.022222,44.66 L316.022222,44.66 Z M331.151111,43.4 C332.32445,40.599986 334.084432,39.2 336.431111,39.2 C336.884446,39.2 337.457774,39.2933324 338.151111,39.48 L338.071111,44.2 C337.32444,44.0399992 336.591114,43.96 335.871111,43.96 C332.724428,43.96 331.151111,46.1333116 331.151111,50.48 L331.151111,59 L326.431111,59 L326.431111,39.52 L331.151111,39.52 L331.151111,43.4 Z M357.02,44.84 C357.353335,45.9600056 357.52,46.986662 357.52,47.92 C357.52,48.853338 357.466667,49.6933296 357.36,50.44 L344.8,50.44 C344.853333,52.0133412 345.239996,53.2933284 345.96,54.28 C346.680003,55.2666716 347.773326,55.76 349.24,55.76 C351.186676,55.76 352.346664,54.9066752 352.72,53.2 L357.48,53.2 C357.159998,55.1466764 356.266674,56.6799944 354.8,57.8 C353.279992,58.9733392 351.426677,59.56 349.24,59.56 C346.679987,59.56 344.533342,58.626676 342.8,56.76 C341.013324,54.8133236 340.12,52.3200152 340.12,49.28 C340.12,46.1599844 341.013324,43.6533428 342.8,41.76 C344.506675,39.9466576 346.65332,39.04 349.24,39.04 C351.933346,39.04 354.026659,39.9866572 355.52,41.88 C356.18667,42.7333376 356.686665,43.7199944 357.02,44.84 L357.02,44.84 Z M349.28,42.8 C347.94666,42.8 346.90667,43.233329 346.16,44.1 C345.413329,44.966671 344.973334,46.0799932 344.84,47.44 L353.12,47.44 C353.12,45.3333228 352.45334,43.9200036 351.12,43.2 C350.61333,42.933332 350.000003,42.8 349.28,42.8 L349.28,42.8 Z" id="Neue-Store"></path>
        </g>
    </g>
</svg>