<?xml version="1.0" encoding="UTF-8" standalone="no"?>
<svg width="269px" height="28px" viewBox="0 0 269 28" version="1.1" xmlns="http://www.w3.org/2000/svg" xmlns:xlink="http://www.w3.org/1999/xlink">
    <!-- Generator: Sketch 41 (35326) - http://www.bohemiancoding.com/sketch -->
    <title>The Neue Store Copy@2x</title>
    <desc>Created with Sketch.</desc>
    <defs></defs>
    <g id="Page-1" stroke="none" stroke-width="1" fill="none" fill-rule="evenodd">
        <path d="M0,1.443 L20.28,1.443 L20.28,5.421 L12.441,5.421 L12.441,26.754 L7.839,26.754 L7.839,5.421 L0,5.421 L0,1.443 Z M28.143,10.881 C29.4430065,8.48898804 31.3409875,7.293 33.837,7.293 C36.3330125,7.293 38.1724941,8.05999233 39.3555,9.594 C40.5385059,11.1280077 41.13,13.1559874 41.13,15.678 L41.13,26.754 L36.528,26.754 L36.528,15.678 C36.528,14.273993 36.1900034,13.2145036 35.514,12.4995 C34.8379966,11.7844964 33.8890061,11.427 32.667,11.427 C31.4449939,11.427 30.3985043,11.9729945 29.5275,13.065 C28.6564956,14.1570055 28.1950002,15.7949891 28.143,17.979 L28.143,26.754 L23.541,26.754 L23.541,0 L28.143,0 L28.143,10.881 Z M61.9215,12.948 C62.2465016,14.0400055 62.409,15.0409955 62.409,15.951 C62.409,16.8610046 62.3570005,17.6799964 62.253,18.408 L50.007,18.408 C50.0590002,19.9420077 50.4359964,21.1899952 51.138,22.152 C51.8400035,23.1140048 52.9059928,23.595 54.336,23.595 C56.2340094,23.595 57.3649981,22.7630083 57.729,21.099 L62.37,21.099 C62.0579984,22.9970095 61.1870071,24.4919945 59.757,25.584 C58.2749925,26.7280057 56.4680106,27.3 54.336,27.3 C51.8399875,27.3 49.7470084,26.3900091 48.057,24.57 C46.3149912,22.6719905 45.444,20.2410148 45.444,17.277 C45.444,14.2349848 46.3149912,11.7910092 48.057,9.945 C49.7210083,8.17699116 51.8139873,7.293 54.336,7.293 C56.9620131,7.293 59.0029927,8.21599077 60.459,10.062 C61.1090032,10.8940042 61.5964983,11.8559945 61.9215,12.948 L61.9215,12.948 Z M54.375,10.959 C53.0749935,10.959 52.0610036,11.3814958 51.333,12.2265 C50.6049963,13.0715042 50.1760006,14.1569934 50.046,15.483 L58.119,15.483 C58.119,13.4289897 57.4690065,12.0510035 56.169,11.349 C55.6749975,11.0889987 55.0770035,10.959 54.375,10.959 L54.375,10.959 Z M81.5279999,1.443 L92.6819999,19.383 L92.6819999,1.443 L97.2839999,1.443 L97.2839999,26.754 L92.6039999,26.754 L81.0989999,8.19 L81.0989999,26.754 L76.4969999,26.754 L76.4969999,1.443 L81.5279999,1.443 Z M118.6215,12.948 C118.946502,14.0400055 119.109,15.0409955 119.109,15.951 C119.109,16.8610046 119.057,17.6799964 118.953,18.408 L106.707,18.408 C106.759,19.9420077 107.135996,21.1899952 107.838,22.152 C108.540003,23.1140048 109.605993,23.595 111.036,23.595 C112.934009,23.595 114.064998,22.7630083 114.429,21.099 L119.07,21.099 C118.757998,22.9970095 117.887007,24.4919945 116.457,25.584 C114.974992,26.7280057 113.168011,27.3 111.036,27.3 C108.539987,27.3 106.447008,26.3900091 104.757,24.57 C103.014991,22.6719905 102.144,20.2410148 102.144,17.277 C102.144,14.2349848 103.014991,11.7910092 104.757,9.945 C106.421008,8.17699116 108.513987,7.293 111.036,7.293 C113.662013,7.293 115.702993,8.21599077 117.159,10.062 C117.809003,10.8940042 118.296498,11.8559945 118.6215,12.948 L118.6215,12.948 Z M111.075,10.959 C109.774993,10.959 108.761004,11.3814958 108.033,12.2265 C107.304996,13.0715042 106.876001,14.1569934 106.746,15.483 L114.819,15.483 C114.819,13.4289897 114.169006,12.0510035 112.869,11.349 C112.374997,11.0889987 111.777003,10.959 111.075,10.959 L111.075,10.959 Z M136.605,23.322 C135.408994,25.8440126 133.485013,27.105 130.833,27.105 C127.478983,27.105 125.269005,25.7920131 124.203,23.166 C123.812998,22.2559954 123.618,21.1510065 123.618,19.851 L123.618,7.761 L128.22,7.761 L128.22,19.383 C128.22,20.6310062 128.518997,21.5604969 129.117,22.1715 C129.715003,22.7825031 130.449496,23.088 131.3205,23.088 C132.191504,23.088 132.925997,22.9645012 133.524,22.7175 C134.122003,22.4704988 134.641998,22.1000025 135.084,21.606 C136.046005,20.4879944 136.553,18.9930094 136.605,17.121 L136.605,7.761 L141.207,7.761 L141.207,26.754 L136.605,26.754 L136.605,23.322 Z M162.5445,12.948 C162.869501,14.0400055 163.032,15.0409955 163.032,15.951 C163.032,16.8610046 162.98,17.6799964 162.876,18.408 L150.63,18.408 C150.682,19.9420077 151.058996,21.1899952 151.761,22.152 C152.463003,23.1140048 153.528993,23.595 154.959,23.595 C156.857009,23.595 157.987998,22.7630083 158.352,21.099 L162.993,21.099 C162.680998,22.9970095 161.810007,24.4919945 160.38,25.584 C158.897992,26.7280057 157.09101,27.3 154.959,27.3 C152.462987,27.3 150.370008,26.3900091 148.68,24.57 C146.937991,22.6719905 146.067,20.2410148 146.067,17.277 C146.067,14.2349848 146.937991,11.7910092 148.68,9.945 C150.344008,8.17699116 152.436987,7.293 154.959,7.293 C157.585013,7.293 159.625993,8.21599077 161.082,10.062 C161.732003,10.8940042 162.219498,11.8559945 162.5445,12.948 L162.5445,12.948 Z M154.998,10.959 C153.697993,10.959 152.684003,11.3814958 151.956,12.2265 C151.227996,13.0715042 150.799,14.1569934 150.669,15.483 L158.742,15.483 C158.742,13.4289897 158.092006,12.0510035 156.792,11.349 C156.297997,11.0889987 155.700003,10.959 154.998,10.959 L154.998,10.959 Z M190.497,8.424 C190.080998,6.21398895 188.521013,5.109 185.817,5.109 C184.490993,5.109 183.457503,5.37549733 182.7165,5.9085 C181.975496,6.44150266 181.605,7.08499623 181.605,7.839 C181.605,8.59300377 181.845497,9.18449785 182.3265,9.6135 C182.807502,10.0425021 183.554995,10.4389982 184.569,10.803 L190.068,12.948 C191.940009,13.6760036 193.382995,14.5924945 194.397,15.6975 C195.411005,16.8025055 195.918,18.1869917 195.918,19.851 C195.918,22.1390114 195.060008,23.9524933 193.344,25.2915 C191.627991,26.6305067 189.184016,27.3 186.012,27.3 C183.203986,27.3 180.929008,26.6110069 179.187,25.233 C177.23699,23.7249925 176.21,21.5930138 176.106,18.837 L180.669,18.837 C180.669,20.9170104 181.747989,22.2299973 183.906,22.776 C184.556003,22.9580009 185.413994,23.049 186.48,23.049 C187.546005,23.049 188.533995,22.7825027 189.444,22.2495 C190.354004,21.7164973 190.809,21.0015045 190.809,20.1045 C190.809,19.2074955 190.562002,18.5185024 190.068,18.0375 C189.573997,17.5564976 188.768005,17.1080021 187.65,16.692 L182.619,14.703 C180.66899,13.9489962 179.174005,13.0650051 178.134,12.051 C177.093995,11.0369949 176.574,9.63300897 176.574,7.839 C176.574,5.73298947 177.392992,4.06900611 179.031,2.847 C180.695008,1.57299363 182.950486,0.936 185.7975,0.936 C188.644514,0.936 190.841492,1.59249343 192.3885,2.9055 C193.935508,4.21850656 194.825999,6.05798817 195.06,8.424 L190.497,8.424 Z M212.166,26.286 C210.449991,26.9620034 209.098005,27.3 208.11,27.3 C207.121995,27.3 206.257503,27.1830012 205.5165,26.949 C204.775496,26.7149988 204.119003,26.3640023 203.547,25.896 C202.350994,24.8299947 201.753,23.3610094 201.753,21.489 L201.753,10.881 L199.101,10.881 L199.101,7.8 L201.753,7.8 L201.753,2.808 L206.355,2.808 L206.355,7.8 L211.503,7.8 L211.503,10.881 L206.355,10.881 L206.355,21.333 C206.355,22.8930078 207.095992,23.673 208.578,23.673 C209.332004,23.673 210.306994,23.4650021 211.503,23.049 L212.166,26.286 Z M223.734,7.293 C225.008006,7.293 226.203994,7.49449799 227.322,7.8975 C228.440005,8.30050202 229.401996,8.91799584 230.208,9.75 C232.002009,11.5700091 232.899,14.0919839 232.899,17.316 C232.899,20.4880159 232.002009,22.9839909 230.208,24.804 C228.595992,26.4680083 226.438013,27.3 223.734,27.3 C221.029986,27.3 218.846008,26.4680083 217.182,24.804 C215.387991,23.009991 214.491,20.514016 214.491,17.316 C214.491,14.0659838 215.387991,11.544009 217.182,9.75 C218.820008,8.11199181 221.003986,7.293 223.734,7.293 L223.734,7.293 Z M227.127,12.7725 C226.346996,11.771495 225.261507,11.271 223.8705,11.271 C222.479493,11.271 221.342004,11.771495 220.458,12.7725 C219.573995,13.773505 219.132,15.27499 219.132,17.277 C219.132,19.27901 219.528496,20.780495 220.3215,21.7815 C221.114504,22.782505 222.199993,23.283 223.578,23.283 C224.956007,23.283 226.086995,22.782505 226.971,21.7815 C227.855004,20.780495 228.297,19.27901 228.297,17.277 C228.297,15.27499 227.907004,13.773505 227.127,12.7725 L227.127,12.7725 Z M242.361,11.544 C243.505005,8.81398635 245.220988,7.449 247.509,7.449 C247.951002,7.449 248.509996,7.53999909 249.186,7.722 L249.108,12.324 C248.379996,12.1679992 247.665003,12.09 246.963,12.09 C243.894984,12.09 242.361,14.2089788 242.361,18.447 L242.361,26.754 L237.759,26.754 L237.759,7.761 L242.361,7.761 L242.361,11.544 Z M268.0665,12.948 C268.391501,14.0400055 268.554,15.0409955 268.554,15.951 C268.554,16.8610046 268.502,17.6799964 268.398,18.408 L256.152,18.408 C256.204,19.9420077 256.580996,21.1899952 257.283,22.152 C257.985003,23.1140048 259.050993,23.595 260.481,23.595 C262.379009,23.595 263.509998,22.7630083 263.874,21.099 L268.515,21.099 C268.202998,22.9970095 267.332007,24.4919945 265.902,25.584 C264.419992,26.7280057 262.61301,27.3 260.481,27.3 C257.984987,27.3 255.892008,26.3900091 254.202,24.57 C252.459991,22.6719905 251.589,20.2410148 251.589,17.277 C251.589,14.2349848 252.459991,11.7910092 254.202,9.945 C255.866008,8.17699116 257.958987,7.293 260.481,7.293 C263.107013,7.293 265.147992,8.21599077 266.604,10.062 C267.254003,10.8940042 267.741498,11.8559945 268.0665,12.948 L268.0665,12.948 Z M260.52,10.959 C259.219993,10.959 258.206003,11.3814958 257.478,12.2265 C256.749996,13.0715042 256.321,14.1569934 256.191,15.483 L264.264,15.483 C264.264,13.4289897 263.614006,12.0510035 262.314,11.349 C261.819997,11.0889987 261.222003,10.959 260.52,10.959 L260.52,10.959 Z" id="The-Neue-Store-Copy" fill="#000000"></path>
    </g>
</svg>