<?xml version="1.0" encoding="UTF-8"?>
<svg width="203px" height="26px" viewBox="0 0 203 26" version="1.1" xmlns="http://www.w3.org/2000/svg" xmlns:xlink="http://www.w3.org/1999/xlink">
    <!-- Generator: Sketch 40.1 (33804) - http://www.bohemiancoding.com/sketch -->
    <title>Product Get</title>
    <desc>Created with Sketch.</desc>
    <defs></defs>
    <g id="Welcome" stroke="none" stroke-width="1" fill="none" fill-rule="evenodd">
        <g id="new-home" transform="translate(-70.000000, -621.000000)" fill="#000000">
            <path d="M84.8468329,624.361429 C86.366741,625.686197 87.1266837,627.580464 87.1266837,630.044286 C87.1266837,632.508108 86.366741,634.402374 84.8468329,635.727143 C83.3269248,637.051911 81.2077351,637.714286 78.4892003,637.714286 L74.4114185,637.714286 L74.4114185,646.48 L70,646.48 L70,622.374286 L78.4892003,622.374286 C81.2077351,622.374286 83.3269248,623.03666 84.8468329,624.361429 L84.8468329,624.361429 Z M78.4892003,633.888571 C79.8484677,633.888571 80.8740814,633.529527 81.5660721,632.811429 C82.2580628,632.09333 82.6040529,631.170958 82.6040529,630.044286 C82.6040529,628.917613 82.2580628,627.989051 81.5660721,627.258571 C80.8740814,626.528092 79.8484677,626.162857 78.4892003,626.162857 L74.4114185,626.162857 L74.4114185,633.888571 L78.4892003,633.888571 Z M96.0236622,631.994286 C97.1110761,629.394273 98.7421725,628.094286 100.917,628.094286 C101.337138,628.094286 101.86848,628.180952 102.511042,628.354286 L102.436901,632.737143 C101.74491,632.588571 101.065287,632.514286 100.39801,632.514286 C97.4817635,632.514286 96.0236622,634.532361 96.0236622,638.568571 L96.0236622,646.48 L91.6493144,646.48 L91.6493144,628.391429 L96.0236622,628.391429 L96.0236622,631.994286 Z M114.151256,627.945714 C115.36224,627.945714 116.499064,628.137617 117.561764,628.521429 C118.624464,628.90524 119.538867,629.493329 120.304999,630.285714 C122.010262,632.019056 122.862881,634.420937 122.862881,637.491429 C122.862881,640.512396 122.010262,642.889515 120.304999,644.622857 C118.772734,646.207627 116.721507,647 114.151256,647 C111.581005,647 109.505064,646.207627 107.923371,644.622857 C106.218108,642.914277 105.36549,640.537158 105.36549,637.491429 C105.36549,634.396175 106.218108,631.994294 107.923371,630.285714 C109.48035,628.725706 111.556291,627.945714 114.151256,627.945714 L114.151256,627.945714 Z M117.376411,633.164286 C116.634992,632.210948 115.6032,631.734286 114.281004,631.734286 C112.958807,631.734286 111.877588,632.210948 111.037313,633.164286 C110.197039,634.117624 109.776908,635.54761 109.776908,637.454286 C109.776908,639.360962 110.15379,640.790948 110.907566,641.744286 C111.661341,642.697624 112.693133,643.174286 114.002973,643.174286 C115.312812,643.174286 116.387853,642.697624 117.228128,641.744286 C118.068402,640.790948 118.488533,639.360962 118.488533,637.454286 C118.488533,635.54761 118.117829,634.117624 117.376411,633.164286 L117.376411,633.164286 Z M139.804211,643.694286 C138.692083,645.898106 136.986846,647 134.688448,647 C132.39005,647 130.462391,646.120961 128.905412,644.362857 C127.299005,642.530467 126.495814,640.202871 126.495814,637.38 C126.495814,634.557129 127.261935,632.266675 128.7942,630.508571 C130.301751,628.799991 132.179983,627.945714 134.428953,627.945714 C136.677923,627.945714 138.370803,628.849515 139.507645,630.657143 L139.507645,621 L143.919063,621 L143.919063,646.48 L140.323201,646.48 L139.804211,643.694286 Z M132.149102,633.387143 C131.321185,634.390005 130.907232,635.733325 130.907232,637.417143 C130.907232,639.100961 131.327363,640.456662 132.167637,641.484286 C133.007912,642.51191 134.070596,643.025714 135.355721,643.025714 C136.418421,643.025714 137.369894,642.604766 138.210169,641.762857 C139.075157,640.896186 139.507645,639.806673 139.507645,638.494286 L139.507645,636.154286 C139.458217,634.86666 139.025729,633.81429 138.210169,632.997143 C137.46875,632.254282 136.480207,631.882857 135.244509,631.882857 C134.008812,631.882857 132.977019,632.384281 132.149102,633.387143 L132.149102,633.387143 Z M162.788072,643.211429 C161.65123,645.613345 159.822425,646.814286 157.301602,646.814286 C154.113502,646.814286 152.012847,645.563822 150.999575,643.062857 C150.628866,642.196186 150.443514,641.143816 150.443514,639.905714 L150.443514,628.391429 L154.817862,628.391429 L154.817862,639.46 C154.817862,640.648577 155.102068,641.533807 155.670489,642.115714 C156.23891,642.697622 156.937069,642.988571 157.764986,642.988571 C158.592903,642.988571 159.291062,642.870954 159.859483,642.635714 C160.427904,642.400475 160.922176,642.047621 161.342313,641.577143 C162.256729,640.512376 162.738644,639.08858 162.788072,637.305714 L162.788072,628.391429 L167.16242,628.391429 L167.16242,646.48 L162.788072,646.48 L162.788072,643.211429 Z M180.915666,627.945714 C182.052507,627.945714 183.071943,628.137617 183.974002,628.521429 C184.876061,628.90524 185.636004,629.406664 186.253853,630.025714 C187.48955,631.214292 188.218601,632.712372 188.441027,634.52 L184.029608,634.631429 C183.831896,633.839044 183.467371,633.18286 182.936021,632.662857 C182.404671,632.142855 181.79301,631.882857 181.101019,631.882857 C180.409029,631.882857 179.815903,631.988094 179.321624,632.198571 C178.827345,632.409049 178.394857,632.737141 178.024148,633.182857 C177.183873,634.222862 176.763742,635.659038 176.763742,637.491429 C176.763742,639.323819 177.15916,640.704281 177.950006,641.632857 C178.740853,642.561433 179.698504,643.025714 180.822989,643.025714 C181.947474,643.025714 182.763022,642.759526 183.269658,642.227143 C183.776294,641.694759 184.029608,640.970481 184.029608,640.054286 L188.441027,640.054286 C188.441027,642.035248 187.786117,643.681898 186.476277,644.994286 C185.141724,646.331435 183.275848,647 180.878595,647 C178.506055,647 176.516612,646.133342 174.910205,644.4 C173.204942,642.542848 172.352324,640.227633 172.352324,637.454286 C172.352324,634.532366 173.204942,632.19239 174.910205,630.434286 C176.516612,628.77523 178.518412,627.945714 180.915666,627.945714 L180.915666,627.945714 Z M203.862456,646.034286 C202.231335,646.678098 200.946229,647 200.007099,647 C199.067968,647 198.246242,646.888573 197.541894,646.665714 C196.837547,646.442856 196.213529,646.108574 195.669822,645.662857 C194.53298,644.647614 193.964567,643.24858 193.964567,641.465714 L193.964567,631.362857 L191.443757,631.362857 L191.443757,628.428571 L193.964567,628.428571 L193.964567,623.674286 L198.338915,623.674286 L198.338915,628.428571 L203.232253,628.428571 L203.232253,631.362857 L198.338915,631.362857 L198.338915,641.317143 C198.338915,642.802865 199.043252,643.545714 200.451948,643.545714 C201.168652,643.545714 202.095412,643.347621 203.232253,642.951429 L203.862456,646.034286 Z M232.48107,642.654286 C231.443084,645.551443 229.453641,647 226.51268,647 C223.497578,647 221.013863,645.860964 219.061461,643.582857 C217.034917,641.230464 216.02166,638.221923 216.02166,634.557143 C216.02166,630.694266 217.109058,627.599059 219.283885,625.271429 C221.384571,623.018084 224.090709,621.891429 227.402378,621.891429 C229.651348,621.891429 231.535759,622.380471 233.055667,623.358571 C234.575575,624.336672 235.768005,625.878085 236.632994,627.982857 L232.147434,629.022857 C230.837594,626.918085 229.181784,625.865714 227.179954,625.865714 C225.351121,625.865714 223.831236,626.645706 222.620252,628.205714 C221.359841,629.790484 220.729644,631.907606 220.729644,634.557143 C220.729644,637.058108 221.298057,639.088564 222.434899,640.648571 C223.547027,642.183817 225.029841,642.951429 226.883388,642.951429 C228.465081,642.951429 229.762544,642.443815 230.775816,641.428571 C231.813802,640.388566 232.332787,638.964771 232.332787,637.157143 L232.332787,637.008571 L226.920459,636.897143 L226.920459,634.074286 L236.521781,634.074286 L236.521781,646.48 L232.96299,646.48 L232.48107,642.654286 Z M256.780943,633.331429 C257.089867,634.371434 257.244327,635.324758 257.244327,636.191429 C257.244327,637.0581 257.1949,637.838092 257.096044,638.531429 L245.455831,638.531429 C245.505259,639.992388 245.863605,641.180948 246.530882,642.097143 C247.198159,643.013338 248.211416,643.471429 249.570683,643.471429 C251.374802,643.471429 252.449843,642.679056 252.795838,641.094286 L257.207256,641.094286 C256.910689,642.901914 256.082784,644.325709 254.723517,645.365714 C253.314821,646.455244 251.597227,647 249.570683,647 C247.198144,647 245.2087,646.133342 243.602293,644.4 C241.946459,642.592372 241.118554,640.277157 241.118554,637.454286 C241.118554,634.557128 241.946459,632.229533 243.602293,630.471429 C245.183986,628.787611 247.17343,627.945714 249.570683,627.945714 C252.066792,627.945714 254.006809,628.824753 255.39079,630.582857 C256.008639,631.375242 256.472018,632.291423 256.780943,633.331429 L256.780943,633.331429 Z M249.607754,631.437143 C248.372056,631.437143 247.408227,631.83952 246.716236,632.644286 C246.024245,633.449052 245.616471,634.482851 245.492901,635.745714 L253.166545,635.745714 C253.166545,633.789514 252.548706,632.477146 251.313008,631.808571 C250.843443,631.560951 250.275031,631.437143 249.607754,631.437143 L249.607754,631.437143 Z M272.628686,646.034286 C270.997565,646.678098 269.712459,647 268.773328,647 C267.834198,647 267.012472,646.888573 266.308124,646.665714 C265.603776,646.442856 264.979758,646.108574 264.436051,645.662857 C263.29921,644.647614 262.730797,643.24858 262.730797,641.465714 L262.730797,631.362857 L260.209987,631.362857 L260.209987,628.428571 L262.730797,628.428571 L262.730797,623.674286 L267.105145,623.674286 L267.105145,628.428571 L271.998483,628.428571 L271.998483,631.362857 L267.105145,631.362857 L267.105145,641.317143 C267.105145,642.802865 267.809482,643.545714 269.218177,643.545714 C269.934882,643.545714 270.861641,643.347621 271.998483,642.951429 L272.628686,646.034286 Z" id="Product-Get"></path>
        </g>
    </g>
</svg>