<svg width="34" height="5" viewBox="0 0 34 5" fill="none" xmlns="http://www.w3.org/2000/svg">
<path d="M0.661621 4V2.40088H2.27783V2.10303H0.661621V0.779785H2.41943V0.477051H0.32959V4H0.661621ZM3.25439 2.55713H4.13818C4.15527 2.55713 4.17969 2.55713 4.19189 2.55713L5.00244 4H5.39307L4.53857 2.50342C5.00977 2.38135 5.29297 2.00537 5.29297 1.50732C5.29297 0.879883 4.85352 0.477051 4.16504 0.477051H2.92236V4H3.25439V2.55713ZM3.25439 0.774902H4.12598C4.63867 0.774902 4.94873 1.05078 4.94873 1.51709C4.94873 1.98828 4.65088 2.26172 4.13818 2.26172H3.25439V0.774902ZM7.96387 3.69727H6.16943V2.34473H7.87354V2.04688H6.16943V0.779785H7.96387V0.477051H5.8374V4H7.96387V3.69727ZM9.8584 4V2.47656L11.1206 0.477051H10.7397L9.69727 2.14941H9.68506L8.64258 0.477051H8.26172L9.52393 2.47656V4H9.8584ZM14.6338 3.69727H12.8687V0.477051H12.5366V4H14.6338V3.69727ZM17.4463 4H17.7979L16.4819 0.477051H16.1499L14.8315 4H15.1855L15.5762 2.9209H17.0557L17.4463 4ZM16.3086 0.889648H16.3232L16.9556 2.63281H15.6763L16.3086 0.889648ZM19.4604 4C20.2051 4 20.6519 3.63379 20.6519 3.0332C20.6519 2.54492 20.3125 2.21533 19.8242 2.15674V2.13965C20.2002 2.07129 20.4688 1.73682 20.4688 1.34619C20.4688 0.826172 20.0586 0.477051 19.4531 0.477051H18.186V4H19.4604ZM18.5181 0.772461H19.3823C19.8511 0.772461 20.1318 0.999512 20.1318 1.38281C20.1318 1.79785 19.8193 2.04199 19.2847 2.04199H18.5181V0.772461ZM18.5181 3.70459V2.33008H19.3701C19.978 2.33008 20.3101 2.57666 20.3101 3.01611C20.3101 3.45312 19.9902 3.70459 19.4141 3.70459H18.5181ZM20.957 3.06006C20.9937 3.65576 21.5088 4.05615 22.2607 4.05615C23.0249 4.05615 23.5278 3.65332 23.5278 3.02832C23.5278 2.54004 23.2373 2.26416 22.5122 2.10059L22.1289 2.0127C21.6064 1.89551 21.3892 1.69287 21.3892 1.37305C21.3892 0.972656 21.7676 0.723633 22.2437 0.723633C22.7441 0.723633 23.0933 0.992188 23.1274 1.39502H23.4619C23.4424 0.828613 22.937 0.420898 22.251 0.420898C21.5601 0.420898 21.0474 0.818848 21.0474 1.3877C21.0474 1.87354 21.3403 2.17383 22.041 2.33008L22.4243 2.41553C22.9663 2.54004 23.186 2.74023 23.186 3.07227C23.186 3.47266 22.8076 3.75342 22.2778 3.75342C21.7261 3.75342 21.333 3.48242 21.2915 3.06006H20.957ZM24.2065 4.67383L24.5142 3.49707H24.1699L23.9355 4.67383H24.2065ZM28.0615 3.69727H26.2964V0.477051H25.9644V4H28.0615V3.69727ZM30.6299 3.69727H28.8647V0.477051H28.5327V4H30.6299V3.69727ZM32.3584 4.05615C33.1226 4.05615 33.6621 3.64355 33.7866 2.95752H33.4521C33.3472 3.4458 32.9224 3.74609 32.3608 3.74609C31.6113 3.74609 31.1304 3.15771 31.1304 2.22998C31.1304 1.31445 31.6113 0.730957 32.3584 0.730957C32.9053 0.730957 33.3545 1.0874 33.4521 1.59521H33.7866C33.6914 0.906738 33.103 0.420898 32.3584 0.420898C31.4014 0.420898 30.7886 1.12646 30.7886 2.22998C30.7886 3.3457 31.3989 4.05615 32.3584 4.05615Z" fill="black"/>
</svg>
