<?xml version="1.0" encoding="utf-8"?>
<!-- Generator: Adobe Illustrator 16.0.4, SVG Export Plug-In . SVG Version: 6.00 Build 0)  -->
<!DOCTYPE svg PUBLIC "-//W3C//DTD SVG 1.1//EN" "http://www.w3.org/Graphics/SVG/1.1/DTD/svg11.dtd">
<svg version="1.1" id="Layer_1" xmlns="http://www.w3.org/2000/svg" xmlns:xlink="http://www.w3.org/1999/xlink" x="0px" y="0px"
	 width="42.938px" height="40.371px" viewBox="0 0 42.938 40.371" enable-background="new 0 0 42.938 40.371" xml:space="preserve">
<rect x="-587.582" y="-512" fill="none" width="1440" height="1024"/>
<path fill="#FFFFFF" d="M42.094,30.145c-5.74-0.946-8.325-6.844-8.432-7.095c-0.007-0.016-0.016-0.033-0.023-0.048
	c-0.293-0.597-0.36-1.089-0.202-1.463c0.313-0.738,1.516-1.119,2.312-1.373c0.23-0.072,0.447-0.141,0.628-0.213
	c0.783-0.308,1.344-0.644,1.713-1.026c0.44-0.454,0.526-0.889,0.522-1.174c-0.015-0.69-0.541-1.302-1.38-1.602
	c-0.283-0.116-0.605-0.179-0.935-0.179c-0.224,0-0.555,0.032-0.869,0.178c-0.671,0.314-1.272,0.486-1.789,0.511
	c-0.274-0.014-0.468-0.075-0.591-0.13c0.015-0.269,0.032-0.545,0.05-0.833l0.008-0.124c0.185-2.914,0.412-6.542-0.548-8.695
	c-0.657-1.474-1.541-2.743-2.626-3.771c-0.91-0.861-1.968-1.56-3.143-2.076C24.743,0.134,22.836,0,21.882,0h-0.003
	c-0.037,0-0.071,0-0.104,0c-0.265,0.003-0.699,0.007-0.737,0.008c-0.954,0-2.86,0.134-4.909,1.039
	c-1.172,0.517-2.225,1.215-3.132,2.076c-1.08,1.026-1.962,2.292-2.615,3.761c-0.96,2.151-0.733,5.775-0.549,8.688v0.004
	c0.02,0.312,0.04,0.638,0.059,0.955c-0.141,0.064-0.368,0.133-0.705,0.133c-0.541,0-1.186-0.173-1.912-0.514
	C7.06,16.05,6.814,16,6.545,16c-0.434,0-0.89,0.128-1.285,0.36c-0.499,0.292-0.821,0.706-0.909,1.165
	c-0.057,0.304-0.055,0.903,0.611,1.511c0.367,0.335,0.905,0.644,1.6,0.918c0.183,0.071,0.398,0.14,0.627,0.213
	c0.796,0.252,1.999,0.634,2.312,1.373c0.158,0.375,0.091,0.867-0.202,1.462c-0.008,0.017-0.017,0.033-0.023,0.049
	c-0.072,0.172-0.756,1.722-2.16,3.355c-0.797,0.929-1.676,1.707-2.609,2.309c-1.139,0.736-2.371,1.218-3.662,1.431
	c-0.508,0.083-0.87,0.535-0.843,1.048c0.01,0.148,0.044,0.295,0.104,0.439c0,0.001,0,0.001,0,0.002
	c0.206,0.479,0.682,0.888,1.455,1.247c0.944,0.439,2.356,0.808,4.198,1.096c0.093,0.177,0.189,0.622,0.257,0.926
	c0.07,0.324,0.143,0.656,0.247,1.01c0.111,0.383,0.403,0.841,1.151,0.841c0.284,0,0.609-0.064,0.986-0.137
	c0.554-0.108,1.311-0.257,2.254-0.257c0.522,0,1.064,0.047,1.611,0.137c1.052,0.175,1.959,0.816,3.008,1.558
	c1.536,1.085,3.274,2.315,5.932,2.315c0.071,0,0.145-0.002,0.216-0.008c0.089,0.005,0.198,0.008,0.312,0.008
	c2.657,0,4.396-1.229,5.932-2.315l0.002-0.002c1.049-0.741,1.954-1.381,3.006-1.556c0.547-0.09,1.089-0.137,1.612-0.137
	c0.9,0,1.615,0.115,2.253,0.24c0.416,0.082,0.738,0.121,0.986,0.121l0.024,0.001h0.025c0.547,0,0.948-0.301,1.102-0.826
	c0.103-0.347,0.176-0.671,0.247-1c0.062-0.285,0.163-0.742,0.256-0.921c1.843-0.29,3.255-0.657,4.199-1.096
	c0.771-0.358,1.246-0.765,1.452-1.242c0.063-0.143,0.098-0.292,0.107-0.443C42.964,30.682,42.602,30.228,42.094,30.145z"/>
<g>
	<defs>
		<rect id="SVGID_17_" x="-300.084" y="-512" width="1440" height="1024"/>
	</defs>
	<clipPath id="SVGID_2_">
		<use xlink:href="#SVGID_17_"  overflow="visible"/>
	</clipPath>
</g>
</svg>
