<?xml version="1.0" encoding="utf-8"?>
<!-- Generator: Adobe Illustrator 16.0.4, SVG Export Plug-In . SVG Version: 6.00 Build 0)  -->
<!DOCTYPE svg PUBLIC "-//W3C//DTD SVG 1.1//EN" "http://www.w3.org/Graphics/SVG/1.1/DTD/svg11.dtd">
<svg version="1.1" id="Layer_1" xmlns="http://www.w3.org/2000/svg" xmlns:xlink="http://www.w3.org/1999/xlink" x="0px" y="0px"
	 width="49.678px" height="40.371px" viewBox="0 0 49.678 40.371" enable-background="new 0 0 49.678 40.371" xml:space="preserve">
<rect x="-514.374" y="-512" fill="none" width="1440" height="1024"/>
<path fill-rule="evenodd" clip-rule="evenodd" fill="#000000" d="M49.678,4.78c-1.858,0.822-3.833,1.364-5.854,1.604
	c2.105-1.263,3.72-3.257,4.481-5.639c-2.003,1.188-4.188,2.024-6.472,2.474C39.906,1.161,37.209-0.004,34.393,0
	c-5.626,0-10.191,4.562-10.191,10.189c0,0.8,0.09,1.579,0.267,2.324C15.994,12.086,8.487,8.032,3.46,1.866
	C2.582,3.369,2.081,5.121,2.081,6.988c0,3.535,1.797,6.654,4.529,8.482c-1.617-0.048-3.201-0.487-4.613-1.276v0.131
	c0,4.937,3.511,9.057,8.172,9.993c-1.501,0.409-3.076,0.467-4.603,0.175c1.3,4.05,5.064,6.998,9.521,7.083
	c-3.486,2.729-7.88,4.359-12.656,4.359c-0.812,0-1.624-0.048-2.432-0.142c4.511,2.891,9.868,4.579,15.624,4.579
	c18.747,0,28.996-15.53,28.996-29.001c0-0.439,0-0.88-0.028-1.317c1.99-1.443,3.714-3.23,5.083-5.273H49.678z"/>
<g>
	<defs>
		<rect id="SVGID_17_" x="-226.876" y="-512" width="1440" height="1024"/>
	</defs>
	<clipPath id="SVGID_2_">
		<use xlink:href="#SVGID_17_"  overflow="visible"/>
	</clipPath>
</g>
</svg>
