<?xml version="1.0" encoding="UTF-8"?>
<svg width="37px" height="30px" viewBox="0 0 37 30" version="1.1" xmlns="http://www.w3.org/2000/svg" xmlns:xlink="http://www.w3.org/1999/xlink">
    <!-- Generator: Sketch 40.1 (33804) - http://www.bohemiancoding.com/sketch -->
    <title>Shape</title>
    <desc>Created with Sketch.</desc>
    <defs></defs>
    <g id="Welcome" stroke="none" stroke-width="1" fill="none" fill-rule="evenodd">
        <g id="new-home" transform="translate(-271.000000, -460.000000)" fill="#000000">
            <path d="M307.916142,463.551588 C306.533713,464.163676 305.067496,464.565517 303.566168,464.743768 C305.127637,463.805474 306.328767,462.322667 306.894004,460.553238 C305.407376,461.435419 303.780869,462.056948 302.084774,462.390967 C300.653312,460.862265 298.651498,459.996376 296.557221,460.000011 C292.376346,460.000011 288.983036,463.390024 288.983036,467.571841 C288.983036,468.166047 289.049922,468.74518 289.180869,469.298171 C282.885535,468.981873 277.306168,465.96845 273.569947,461.386257 C272.917569,462.503308 272.545454,463.805474 272.545454,465.193603 C272.545454,467.819603 273.882005,470.137784 275.913799,471.496003 C274.710847,471.459134 273.534279,471.134302 272.482807,470.548759 L272.482807,470.645321 C272.482807,474.313242 275.093734,477.374004 278.556756,478.07113 C277.441439,478.373118 276.272035,478.417414 275.137069,478.200664 C276.10127,481.209612 278.899196,483.398495 282.21196,483.462084 C279.620345,485.489875 276.355156,486.70278 272.805934,486.70278 C272.202423,486.70209 271.59945,486.666704 271,486.596798 C274.351388,488.744701 278.333252,490 282.609981,490 C296.540735,490 304.157312,478.458789 304.157312,468.450314 C304.157312,468.122948 304.157312,467.795581 304.13376,467.470569 C305.615817,466.398297 306.895693,465.071372 307.913787,463.551588 L307.916142,463.551588 Z" id="Shape"></path>
        </g>
    </g>
</svg>