<?xml version="1.0" encoding="UTF-8" standalone="no"?>
<svg width="18px" height="15px" viewBox="0 0 18 15" version="1.1" xmlns="http://www.w3.org/2000/svg" xmlns:xlink="http://www.w3.org/1999/xlink">
    <!-- Generator: Sketch 39.1 (31720) - http://www.bohemiancoding.com/sketch -->
    <title>Shape</title>
    <desc>Created with Sketch.</desc>
    <defs></defs>
    <g id="Welcome" stroke="none" stroke-width="1" fill="none" fill-rule="evenodd">
        <g id="new-home" transform="translate(-266.000000, -782.000000)" fill="#4A4A4A">
            <path d="M283.515791,783.715728 C283.649408,783.265634 283.496586,782.778914 283.126381,782.485906 C282.916352,782.318647 282.662194,782.234407 282.404358,782.234407 C282.200867,782.234407 281.997377,782.287311 281.814726,782.395968 C281.451876,782.607993 281.072272,782.7781 280.675915,782.898152 C279.918343,782.321088 278.978936,782 278.013379,782 C275.800319,782 273.966862,783.644103 273.677971,785.770043 C271.913571,785.394015 270.306078,784.425866 269.148063,783.011286 C268.927411,782.740253 268.596432,782.58561 268.250744,782.58561 C268.221732,782.58561 268.191086,782.587645 268.160031,782.58968 C267.780836,782.619387 267.442094,782.832226 267.250454,783.158604 C266.861452,783.82235 266.656736,784.579289 266.656736,785.350471 C266.656736,785.871375 266.749492,786.378035 266.92111,786.851325 C266.736416,787.060501 266.629359,787.331534 266.629359,787.618031 C266.629359,788.760764 267.062491,789.811525 267.784105,790.60102 C267.739566,790.797987 267.746513,791.006349 267.811483,791.205757 C268.061146,791.984671 268.517978,792.654928 269.108836,793.166472 C268.725146,793.253154 268.327972,793.297512 267.925078,793.297512 C267.716275,793.297512 267.505021,793.284083 267.292133,793.260072 C267.247185,793.254375 267.202237,793.251526 267.156472,793.251526 C266.671855,793.251526 266.233002,793.553488 266.06833,794.018639 C265.885679,794.523264 266.078954,795.087713 266.5317,795.377872 C268.195172,796.438807 270.117298,797 272.089684,797 C278.486555,797 282.330807,791.872351 282.399863,786.867197 C282.920439,786.425649 283.378088,785.917361 283.766272,785.350064 C283.912965,785.157166 284,784.917469 284,784.654983 C284,784.268781 283.808768,783.926124 283.515791,783.715728 L283.515791,783.715728 Z M281.232449,786.314143 C281.239804,786.451287 281.242665,786.589652 281.242665,786.728425 C281.242665,790.962397 278.006841,795.844244 272.089684,795.844244 C270.273389,795.844244 268.582131,795.31398 267.157698,794.40484 C267.408179,794.432513 267.665607,794.450012 267.925078,794.450012 C269.432459,794.450012 270.819299,793.937247 271.920926,793.077349 C270.511612,793.052524 269.324585,792.125071 268.914744,790.852519 C269.111288,790.889959 269.313143,790.910714 269.518677,790.910714 C269.81288,790.910714 270.097276,790.870832 270.366554,790.797987 C268.894722,790.50213 267.785331,789.208823 267.785331,787.655064 L267.785331,787.615182 C268.219281,787.854472 268.715748,787.998535 269.242862,788.014813 C268.379866,787.440191 267.812708,786.458613 267.812708,785.347622 C267.812708,784.760791 267.971251,784.210993 268.248292,783.737703 C269.833719,785.676036 272.204913,786.95103 274.878891,787.084511 C274.82332,786.850918 274.796351,786.605117 274.796351,786.354025 C274.796351,784.586207 276.236311,783.151686 278.012153,783.151686 C278.938075,783.151686 279.77451,783.540736 280.361282,784.162158 C281.093111,784.019317 281.782445,783.752761 282.403949,783.385279 C282.163275,784.132858 281.652914,784.760791 280.989732,785.157166 C281.639839,785.080659 282.258891,784.908516 282.836672,784.652541 C282.406401,785.29838 281.861717,785.862422 281.232449,786.314143 L281.232449,786.314143 Z" id="Shape"></path>
        </g>
    </g>
</svg>