<?xml version="1.0" encoding="UTF-8"?>
<svg width="23px" height="15px" viewBox="0 0 23 15" version="1.1" xmlns="http://www.w3.org/2000/svg" xmlns:xlink="http://www.w3.org/1999/xlink">
    <!-- Generator: Sketch 45.2 (43514) - http://www.bohemiancoding.com/sketch -->
    <title>Shape</title>
    <desc>Created with Sketch.</desc>
    <defs></defs>
    <g id="Page-1" stroke="none" stroke-width="1" fill="none" fill-rule="evenodd">
        <g id="home-3.0-mobile" transform="translate(-30.000000, -2566.000000)" fill="#000000">
            <g id="Group-3" transform="translate(30.000000, 2566.000000)">
                <path d="M20.0656737,15 L2.43384183,15 C1.08170748,15 0,13.8818182 0,12.5454545 L0,2.45454545 C0,1.09090909 1.10875017,0 2.43384183,0 L20.0656737,0 C21.4178081,0 22.4995156,1.11818182 22.4995156,2.45454545 L22.4995156,12.5454545 C22.5265583,13.8818182 21.4178081,15 20.0656737,15 L20.0656737,15 Z M2.43384183,1.17272727 C1.73073197,1.17272727 1.13579285,1.74545455 1.13579285,2.48181818 L1.13579285,12.5727273 C1.13579285,13.2818182 1.70368928,13.8818182 2.43384183,13.8818182 L20.0656737,13.8818182 C20.7687836,13.8818182 21.3637227,13.3090909 21.3637227,12.5727273 L21.3637227,2.48181818 C21.3637227,1.77272727 20.7958263,1.17272727 20.0656737,1.17272727 L2.43384183,1.17272727 L2.43384183,1.17272727 Z M12.1962518,8.01818182 L19.4977773,3.40909091 C19.7682042,3.24545455 19.8493323,2.89090909 19.6870761,2.61818182 L19.6870761,2.61818182 C19.52482,2.34545455 19.1732651,2.26363636 18.9028382,2.42727273 L11.4120139,7.14545455 L3.62372006,2.45454545 C3.35329319,2.29090909 3.00173826,2.37272727 2.83948213,2.64545455 L2.83948213,2.64545455 C2.67722601,2.91818182 2.75835407,3.27272727 3.02878094,3.43636364 L10.6548187,8.04545455 C11.141587,8.31818182 11.7365262,8.31818182 12.1962518,8.01818182 L12.1962518,8.01818182 Z" id="Shape"></path>
            </g>
        </g>
    </g>
</svg>