<?xml version="1.0" encoding="utf-8"?>
<!-- Generator: Adobe Illustrator 21.1.0, SVG Export Plug-In . SVG Version: 6.00 Build 0)  -->
<svg version="1.1" id="Layer_1" xmlns="http://www.w3.org/2000/svg" xmlns:xlink="http://www.w3.org/1999/xlink" x="0px" y="0px"
	 viewBox="0 0 22.5 15" style="enable-background:new 0 0 22.5 15;" xml:space="preserve">
<title>Shape</title>
<desc>Created with Sketch.</desc>
<g id="Page-1">
	<g id="home-3.0-mobile" transform="translate(-30.000000, -2614.000000)">
		<path id="Shape" d="M47.5,2615.7c0.1-0.5,0-0.9-0.4-1.2c-0.2-0.2-0.5-0.3-0.7-0.3c-0.2,0-0.4,0.1-0.6,0.2
			c-0.4,0.2-0.7,0.4-1.1,0.5c-0.8-0.6-1.7-0.9-2.7-0.9c-2.2,0-4,1.6-4.3,3.8c-1.8-0.4-3.4-1.3-4.5-2.8c-0.2-0.3-0.6-0.4-0.9-0.4
			c0,0-0.1,0-0.1,0c-0.4,0-0.7,0.2-0.9,0.6c-0.4,0.7-0.6,1.4-0.6,2.2c0,0.5,0.1,1,0.3,1.5c-0.2,0.2-0.3,0.5-0.3,0.8
			c0,1.1,0.4,2.2,1.2,3c0,0.2,0,0.4,0,0.6c0.2,0.8,0.7,1.4,1.3,2c-0.4,0.1-0.8,0.1-1.2,0.1c-0.2,0-0.4,0-0.6,0c0,0-0.1,0-0.1,0
			c-0.5,0-0.9,0.3-1.1,0.8c-0.2,0.5,0,1.1,0.5,1.4c1.7,1.1,3.6,1.6,5.6,1.6c6.4,0,10.2-5.1,10.3-10.1c0.5-0.4,1-0.9,1.4-1.5
			c0.1-0.2,0.2-0.4,0.2-0.7C48,2616.3,47.8,2615.9,47.5,2615.7L47.5,2615.7z M45.2,2618.3c0,0.1,0,0.3,0,0.4c0,4.2-3.2,9.1-9.2,9.1
			c-1.8,0-3.5-0.5-4.9-1.4c0.3,0,0.5,0,0.8,0c1.5,0,2.9-0.5,4-1.4c-1.4,0-2.6-1-3-2.2c0.2,0,0.4,0.1,0.6,0.1c0.3,0,0.6,0,0.8-0.1
			c-1.5-0.3-2.6-1.6-2.6-3.1v0c0.4,0.2,0.9,0.4,1.5,0.4c-0.9-0.6-1.4-1.6-1.4-2.7c0-0.6,0.2-1.1,0.4-1.6c1.6,1.9,4,3.2,6.6,3.3
			c-0.1-0.2-0.1-0.5-0.1-0.7c0-1.8,1.4-3.2,3.2-3.2c0.9,0,1.8,0.4,2.3,1c0.7-0.1,1.4-0.4,2-0.8c-0.2,0.7-0.8,1.4-1.4,1.8
			c0.7-0.1,1.3-0.2,1.8-0.5C46.4,2617.3,45.9,2617.9,45.2,2618.3L45.2,2618.3z"/>
	</g>
</g>
</svg>
